   <svg xmlns="http://www.w3.org/2000/svg" viewBox="0 0 177 87" height="87" width="177" aria-hidden="true"
                 focusable="false" >
                <path d="M4.416 993.475h.94v-27.937h-.94v27.937z"
                  style="fill:#FFFFFF;fill-opacity:1;fill-rule:nonzero;stroke:none"
                  transform="matrix(2.75994 0 0 2.75994 -12.19 -2659.873)" />
                <path
                  d="M0 0c-.07-.135-.131-.213-.121-.316.009-.104.118-.176.169-.282.047.121.125.213.116.307C.154-.195.022-.068 0 0"
                  style="fill:#FFFFFF;fill-opacity:1;fill-rule:nonzero;stroke:none"
                  transform="matrix(3.44992 0 0 -3.44992 35.53 11.864)" />
                <path
                  d="M0 0c.069-.135.131-.213.121-.316C.111-.42.003-.492-.048-.598c-.047.121-.125.213-.116.307.01.096.14.223.164.291"
                  style="fill:#FFFFFF;fill-opacity:1;fill-rule:nonzero;stroke:none"
                  transform="matrix(3.44992 0 0 -3.44992 41.742 11.864)" />
                <path d="M0 0c.066 0 .122.055.122.121A.123.123 0 0 1 0 .244.122.122 0 0 1 0 0"
                  style="fill:#FFFFFF;fill-opacity:1;fill-rule:nonzero;stroke:none"
                  transform="matrix(3.44992 0 0 -3.44992 31.955 11.594)" />
                <path d="M0 0a.121.121 0 0 1-.243 0c0-.068.054-.123.121-.123S0-.068 0 0"
                  style="fill:#FFFFFF;fill-opacity:1;fill-rule:nonzero;stroke:none"
                  transform="matrix(3.44992 0 0 -3.44992 32.234 12.194)" />
                <path d="M0 0a.121.121 0 0 1-.243 0A.121.121 0 0 1 0 0"
                  style="fill:#FFFFFF;fill-opacity:1;fill-rule:nonzero;stroke:none"
                  transform="matrix(3.44992 0 0 -3.44992 32.44 13.211)" />
                <path d="M0 0a.121.121 0 1 1 0 .242A.12.12 0 1 1 0 0"
                  style="fill:#FFFFFF;fill-opacity:1;fill-rule:nonzero;stroke:none"
                  transform="matrix(3.44992 0 0 -3.44992 34.276 9.593)" />
                <path d="M0 0c.066 0 .122.055.122.123A.123.123 0 0 1 0 .244.122.122 0 0 1 0 0"
                  style="fill:#FFFFFF;fill-opacity:1;fill-rule:nonzero;stroke:none"
                  transform="matrix(3.44992 0 0 -3.44992 33.235 9.916)" />
                <path d="M0 0a.121.121 0 1 1 0 .242.122.122 0 0 1-.122-.121C-.122.053-.066 0 0 0"
                  style="fill:#FFFFFF;fill-opacity:1;fill-rule:nonzero;stroke:none"
                  transform="matrix(3.44992 0 0 -3.44992 32.413 10.63)" />
                <path d="M0 0c.066 0 .121.055.121.123A.123.123 0 0 1 0 .244.123.123 0 0 1-.122.123C-.122.055-.067 0 0 0"
                  style="fill:#FFFFFF;fill-opacity:1;fill-rule:nonzero;stroke:none"
                  transform="matrix(3.44992 0 0 -3.44992 35.374 9.694)" />
                <path d="M0 0a.122.122 0 0 1 0 .244A.122.122 0 0 1 0 0"
                  style="fill:#FFFFFF;fill-opacity:1;fill-rule:nonzero;stroke:none"
                  transform="matrix(3.44992 0 0 -3.44992 36.415 9.997)" />
                <path d="M0 0a.122.122 0 0 1 0 .244.123.123 0 0 1-.122-.121C-.122.055-.066 0 0 0"
                  style="fill:#FFFFFF;fill-opacity:1;fill-rule:nonzero;stroke:none"
                  transform="matrix(3.44992 0 0 -3.44992 37.392 10.456)" />
                <path d="M0 0a.121.121 0 0 1 .243 0 .122.122 0 0 1-.121.123A.123.123 0 0 1 0 0"
                  style="fill:#FFFFFF;fill-opacity:1;fill-rule:nonzero;stroke:none"
                  transform="matrix(3.44992 0 0 -3.44992 44.882 11.177)" />
                <path d="M0 0a.122.122 0 0 1-.122-.121c0-.068.056-.123.122-.123.067 0 .122.055.122.123A.121.121 0 0 1 0 0"
                  style="fill:#FFFFFF;fill-opacity:1;fill-rule:nonzero;stroke:none"
                  transform="matrix(3.44992 0 0 -3.44992 45.441 11.776)" />
                <path d="M0 0a.12.12 0 1 1 0-.242A.121.121 0 1 1 0 0"
                  style="fill:#FFFFFF;fill-opacity:1;fill-rule:nonzero;stroke:none"
                  transform="matrix(3.44992 0 0 -3.44992 45.236 12.794)" />
                <path d="M0 0a.121.121 0 1 1 0 .242.122.122 0 0 1-.122-.121C-.122.055-.066 0 0 0"
                  style="fill:#FFFFFF;fill-opacity:1;fill-rule:nonzero;stroke:none"
                  transform="matrix(3.44992 0 0 -3.44992 42.978 9.593)" />
                <path d="M0 0a.122.122 0 1 1-.122.123C-.122.055-.067 0 0 0"
                  style="fill:#FFFFFF;fill-opacity:1;fill-rule:nonzero;stroke:none"
                  transform="matrix(3.44992 0 0 -3.44992 44.023 9.916)" />
                <path d="M0 0c.066 0 .122.053.122.121a.122.122 0 0 1-.244 0C-.122.053-.067 0 0 0"
                  style="fill:#FFFFFF;fill-opacity:1;fill-rule:nonzero;stroke:none"
                  transform="matrix(3.44992 0 0 -3.44992 44.845 10.63)" />
                <path d="M0 0a.122.122 0 1 1 0 .244A.122.122 0 0 1 0 0"
                  style="fill:#FFFFFF;fill-opacity:1;fill-rule:nonzero;stroke:none"
                  transform="matrix(3.44992 0 0 -3.44992 41.883 9.694)" />
                <path d="M0 0a.122.122 0 1 1-.122.123C-.122.055-.066 0 0 0"
                  style="fill:#FFFFFF;fill-opacity:1;fill-rule:nonzero;stroke:none"
                  transform="matrix(3.44992 0 0 -3.44992 40.842 9.997)" />
                <path d="M0 0c0-.068.054-.123.121-.123a.122.122 0 0 1 0 .244A.121.121 0 0 1 0 0"
                  style="fill:#FFFFFF;fill-opacity:1;fill-rule:nonzero;stroke:none"
                  transform="matrix(3.44992 0 0 -3.44992 39.444 10.03)" />
                <path d="M0 0h.137v.521A.477.477 0 0 0 0 .564V0Z"
                  style="fill:#FFFFFF;fill-opacity:1;fill-rule:nonzero;stroke:none"
                  transform="matrix(3.44992 0 0 -3.44992 37.911 12.309)" />
                <path d="M0 0a.51.51 0 0 0-.137-.043v-.521H0V0Z"
                  style="fill:#FFFFFF;fill-opacity:1;fill-rule:nonzero;stroke:none"
                  transform="matrix(3.44992 0 0 -3.44992 39.346 10.361)" />
                <path d="M0 0v.311A.387.387 0 0 1-.299 0H0Z"
                  style="fill:#FFFFFF;fill-opacity:1;fill-rule:nonzero;stroke:none"
                  transform="matrix(3.44992 0 0 -3.44992 38.36 8.38)" />
                <path d="M0 0h.297A.388.388 0 0 1 0 .311V0Z"
                  style="fill:#FFFFFF;fill-opacity:1;fill-rule:nonzero;stroke:none"
                  transform="matrix(3.44992 0 0 -3.44992 38.905 8.38)" />
                <path d="M0 0a.383.383 0 0 1 .747 0H0Z" style="fill:#FFFFFF;fill-opacity:1;fill-rule:nonzero;stroke:none"
                  transform="matrix(3.44992 0 0 -3.44992 37.342 8.892)" />
                <path
                  d="M0 0a.424.424 0 0 0-.166.271A.487.487 0 0 0 .11.096v.418A.478.478 0 0 0-.166.338c.012.101.074.195.159.301h-.404c.085-.106.147-.2.158-.301a.476.476 0 0 0-.275.176V.096a.484.484 0 0 0 .275.175A.42.42 0 0 0-.419 0H0Z"
                  style="fill:#FFFFFF;fill-opacity:1;fill-rule:nonzero;stroke:none"
                  transform="matrix(3.44992 0 0 -3.44992 39.35 7.147)" />
                <path
                  d="M0 0c-.383.096-.839.26-1.266.453l.001.006a.325.325 0 0 1-.087.258.322.322 0 0 1-.241.119.362.362 0 0 1-.116-.023 2.085 2.085 0 0 0-.551.833 2.178 2.178 0 0 0-.111.434c-.021-.123-.16-.287-.4-.291.003.025.001.088-.02.094-.063-.069-.158-.145-.375-.069.034-.169.081-.335.141-.496A2.915 2.915 0 0 1-2.23.148L-2.233.1c0-.09.087-.233.212-.293a.295.295 0 0 1 .312.035c.185-.1.423-.192.678-.264.287-.078.564-.123.781-.123.187 0 .433.088.677.24a1.861 1.861 0 0 1 .282.221C.52-.111.233-.059 0 0m-1.402.576-.041.029c-.075.057-.136.057-.203-.001a.766.766 0 0 1-.088-.092l-.042-.047.028-.024c.079-.062.09-.13.067-.171a.062.062 0 0 0-.04-.032c-.038-.009-.093.004-.15.037l-.03.018-.018-.029C-1.923.256-1.928.25-1.934.242l-.02-.031A.307.307 0 0 1-2.003.07a.08.08 0 0 1 .004-.027c.011-.043.046-.064.076-.08l.019-.012a1.5 1.5 0 0 1 .122-.072.217.217 0 0 0-.209-.01c-.105.053-.172.172-.172.231a.65.65 0 0 0 .115.324l.012.017-.011.02a.743.743 0 0 0-.055.103.956.956 0 0 0 .119-.021l.02-.004.014.014c.045.051.207.213.356.213a.262.262 0 0 0 .189-.094.294.294 0 0 0 .07-.147c-.021.014-.045.034-.068.051m.247-.728a.164.164 0 1 0 .002.328.164.164 0 0 0-.002-.328m.717-.223a.15.15 0 0 0-.148.15.15.15 0 0 0 .148.151.15.15 0 1 0 0-.301"
                  style="fill:#FFFFFF;fill-opacity:1;fill-rule:nonzero;stroke:none"
                  transform="matrix(3.44992 0 0 -3.44992 40.896 35.98)" />
                <path
                  d="M0 0a.239.239 0 0 1-.077-.012v.459a3.12 3.12 0 0 0-.67.102v-.563a.262.262 0 0 1-.342-.248.49.49 0 0 1 .13-.295c.03.073.058.129.097.129.08 0 .044-.396.277-.406a.183.183 0 1 1 .342 0c.233.01.194.406.274.406.04 0 .065-.052.1-.129.06.071.13.18.13.295C.261-.135.161 0 0 0m-.414-1a.103.103 0 0 0-.102.102c0 .056.046.101.102.101a.1.1 0 0 0 .102-.101A.102.102 0 0 0-.414-1m.546.578c-.028.051-.068.08-.103.08-.156 0-.095-.412-.282-.412-.081 0-.125.053-.125.109 0 .059.041.077.041.124 0 .046-.036.064-.077.064-.04 0-.077-.018-.077-.064 0-.047.041-.065.041-.124 0-.056-.044-.109-.125-.109-.187 0-.125.412-.282.412-.034 0-.075-.029-.102-.08a.36.36 0 0 0-.049.16c0 .076.058.182.18.182.209 0 .16-.285.26-.285.045 0 .077.027.077.07 0 .082-.145.156-.145.274 0 .117.106.214.222.308.116-.094.222-.191.222-.308 0-.118-.145-.192-.145-.274 0-.043.032-.07.077-.07.1 0 .051.285.26.285.122 0 .18-.106.18-.182a.386.386 0 0 0-.048-.16"
                  style="fill:#FFFFFF;fill-opacity:1;fill-rule:nonzero;stroke:none"
                  transform="matrix(3.44992 0 0 -3.44992 40.07 39.881)" />
                <path
                  d="M0 0a.049.049 0 0 1-.06.029c-.537-.156-1.203.287-1.846.717-.542.361-1.054.703-1.492.703a.905.905 0 0 1-.431-.101.779.779 0 0 1-.341-.397 2.405 2.405 0 0 0-.214-.402c-.074-.117-.13-.201-.13-.309a.33.33 0 0 1 .113-.238c.062-.063.152-.123.281-.191a.707.707 0 0 1 .083-.041c.105-.053.172-.088.184-.149a3.625 3.625 0 0 0-.798-.225 6.654 6.654 0 0 0-1.145-.093c-.408 0-.794.031-1.145.093a3.557 3.557 0 0 0-.801.227c.009.088.075.125.191.18.028.013.055.025.084.041.106.056.207.111.275.174.076.066.111.136.111.222 0 .108-.054.192-.128.309-.062.099-.141.222-.214.402a.764.764 0 0 1-.342.395.903.903 0 0 1-.429.101c-.439 0-.952-.34-1.494-.701-.642-.43-1.308-.873-1.845-.717a.051.051 0 0 1-.061-.031.05.05 0 0 1 .028-.061c.163-.072.307-.185.446-.292.192-.151.376-.293.577-.293.19 0 .396.06.645.189.215.113.44.266.657.414.424.289.862.588 1.278.621a3.134 3.134 0 0 0-.126-.117C-8.212.35-8.318.254-8.318.063c0-.153.051-.26.124-.411.021-.043.045-.091.07-.148.046-.102.065-.186.093-.299.011-.049.026-.103.043-.168.026-.1.076-.285.381-.439.353-.18.961-.272 1.811-.272.847 0 1.457.092 1.81.272.304.154.354.339.381.439.017.065.031.119.042.168.028.113.047.197.093.299.034.076.068.137.097.191.062.119.114.213.114.35 0 .193-.112.293-.241.41-.041.037-.085.076-.13.123.417-.033.854-.332 1.278-.623.217-.146.442-.301.657-.412.25-.131.455-.191.645-.191.2 0 .384.142.577.294.14.106.284.219.446.291A.05.05 0 0 1 0 0"
                  style="fill:#FFFFFF;fill-opacity:1;fill-rule:nonzero;stroke:none"
                  transform="matrix(3.44992 0 0 -3.44992 58.635 41.781)" />
                <path
                  d="M0 0a.68.68 0 0 0-.206.24c-.065.131-.33.656-.372.725a.322.322 0 0 0-.052.156c0 .055.027.1.057.139.021.027.079.084.099.117a.352.352 0 0 0 .049.062 2.545 2.545 0 0 1-.324.438 2.642 2.642 0 0 1-.521.451c.103.065.206.162.206.322a.292.292 0 0 1-.107.227c.107.344.3.758.464.939l-.345.145a.53.53 0 0 0 .075-.387.433.433 0 0 0-.191.26 1.597 1.597 0 0 0-.127-.375c.1.047.179.068.28.027a.408.408 0 0 0-.433-.146c-.122.031-.244.096-.24.191.003.055.044.123.122.117.076-.009.08-.123.056-.173.099.056.2.343.047.386-.121.035-.232-.132-.272-.259-.023.154-.087.3-.209.293-.16-.012-.107-.305-.052-.379.01.103.065.158.113.154.042-.004.098-.033.089-.127-.011-.092-.144-.15-.296-.15-.145 0-.401.045-.426.326.095-.018.244-.088.307-.184-.02.17-.02.291 0 .469a.47.47 0 0 0-.302-.184c.027.121.13.248.251.323h-.626a.565.565 0 0 0 .25-.323.473.473 0 0 0-.297.184 1.84 1.84 0 0 0 0-.469.52.52 0 0 0 .301.184c-.024-.281-.28-.326-.426-.326-.151 0-.284.058-.295.15-.009.094.047.123.089.127.047.004.104-.051.113-.154.056.074.107.367-.051.379-.123.007-.187-.139-.209-.293-.04.127-.152.294-.274.259-.153-.043-.05-.33.047-.386-.022.05-.018.164.057.173.077.006.119-.062.122-.117.005-.095-.117-.16-.24-.191a.412.412 0 0 0-.432.144c.102.045.184.022.283-.025a1.694 1.694 0 0 0-.127.375.44.44 0 0 0-.195-.264.536.536 0 0 0 .075.391l-.344-.145c.164-.181.357-.597.463-.941a.3.3 0 0 1-.102-.225c0-.16.102-.257.205-.322a2.67 2.67 0 0 1-.521-.451 2.922 2.922 0 0 1-.549-.916c.047-.049.254-.275.301-.336.086-.109.138-.217.14-.301A.451.451 0 0 1-4.38.002a.587.587 0 0 0 .067-.231h1.711v-1.863a.264.264 0 0 1-.196-.094c.197-.08.386-.15.574-.209a.5.5 0 0 0 .106.272s-.249.025-.383.031v1.863h1.673a2.352 2.352 0 0 0-.136-.738 2.113 2.113 0 0 0-.375-.652 1.738 1.738 0 0 0-.557-.438c-.033-.017-.031-.041-.065-.056a.431.431 0 0 1-.082-.151.677.677 0 0 1-.039-.17c.079-.023.121-.037.196-.054.588-.147.733-.104.766-.078h.001c.132.101.256.218.37.347.235.266.421.578.55.924.134.357.201.738.201 1.129C.002-.094.005-.072 0 0m-2.602-.129h-1.713c.003.266.048.524.136.766.089.244.215.465.375.652.161.19.349.336.556.44.205.101.423.154.646.158V-.129zm.031 2.854c-.572 0-.965-.168-1.195-.321-.131.078-.188.155-.188.246 0 .323.917.352 1.382.352h.001c.465 0 1.383-.029 1.383-.352 0-.091-.058-.168-.191-.246-.229.153-.622.321-1.192.321m.07-2.854v2.014c.21-.01.414-.061.605-.156.209-.104.396-.25.557-.44.159-.187.287-.408.375-.652.088-.242.133-.5.137-.766h-1.674z"
                  style="fill:#FFFFFF;fill-opacity:1;fill-rule:nonzero;stroke:none"
                  transform="matrix(3.44992 0 0 -3.44992 47.513 26.964)" />
                <path
                  d="M0 0c.028-.018.02-.064-.019-.061a1.9 1.9 0 0 1-.321.85l.005.004a.11.11 0 0 1 .071.09.108.108 0 0 1-.107-.049 1.628 1.628 0 0 1-.4.387 1.326 1.326 0 0 1-.404.185c.002.033.045.037.063.008.004.055-.041.08-.069.07-.013-.005-.026-.017-.029-.041a.108.108 0 0 1-.076.039.121.121 0 0 1 .023-.08c-.021 0-.036-.009-.044-.021-.013-.026.004-.074.059-.078-.026.019-.016.06.018.058V.707A.11.11 0 0 1-1.34.68a.11.11 0 0 1 .11-.03v-.711c-.037-.002-.045.041-.017.061-.054 0-.076-.047-.065-.072.008-.018.025-.03.054-.026a.12.12 0 0 1-.027-.076c.032 0 .056.014.075.029-.004-.031.01-.044.025-.054.026-.012.074.01.074.064-.02-.027-.063-.019-.063.014h.494a.112.112 0 0 1 .029-.108.11.11 0 0 1 .029.108h.55c.003-.033-.041-.045-.061-.018.001-.052.051-.074.074-.06.018.008.029.023.026.054a.113.113 0 0 1 .075-.027.114.114 0 0 1-.03.074c.03-.002.046.01.053.028C.076-.045.054.002 0 0m-.474.867C-.488.854-.494.834-.49.82c.006-.015.019-.031.05-.033a.113.113 0 0 1-.039-.07A.13.13 0 0 1-.4.734C-.407.705-.397.688-.383.678c.012-.008.029-.008.044 0 .127-.205.215-.44.251-.68a.098.098 0 0 1-.061.018.104.104 0 0 1 .034-.079h-.418c.003.028-.011.051-.029.057-.016.006-.037.002-.056-.019a.115.115 0 0 1-.033.072.11.11 0 0 1-.033-.072c-.018.021-.04.025-.056.019-.018-.006-.031-.029-.029-.057h-.356A.116.116 0 0 1-1.1.01a.105.105 0 0 1-.072-.028v.581c.027-.004.053.007.058.027.006.015.004.035-.021.056a.1.1 0 0 1 .074.034.118.118 0 0 1-.074.031c.025.019.027.039.021.057-.005.017-.031.033-.058.027v.49a.117.117 0 0 1 .063-.025.13.13 0 0 1-.017.07c.11-.037.219-.09.321-.158A1.51 1.51 0 0 0-.474.867"
                  style="fill:#FFFFFF;fill-opacity:1;fill-rule:nonzero;stroke:none"
                  transform="matrix(3.44992 0 0 -3.44992 43.746 26.277)" />
                <path
                  d="M0 0c.021.01.038.025.046.041C.021.033.004.045-.001.047c.016.012.035 0 .016.031-.02.031-.033.031-.053.01C-.059.066-.191.092-.19.193A.092.092 0 0 1-.145.156.048.048 0 0 1-.129.148l.018-.003A.064.064 0 0 1-.073.139l.007-.002v.006c.027.005.048.021.051.05.005.055-.047.08-.104.129-.023.018-.039.035-.054.049C-.192.41-.18.445-.229.518a.421.421 0 0 1-.016.064.182.182 0 0 1 .03-.211C-.159.311-.04.25-.046.199-.047.188-.058.176-.075.172c-.006 0-.012 0-.018.002-.003 0-.006.002-.011.004l-.025.011C-.141.197-.154.205-.17.221c-.049.047-.094.113-.122.152-.056.07-.03.137-.022.195.039.055-.024.164-.06.19 0 0 .008.025-.002.058A.057.057 0 0 0-.41.813c-.011.019-.015.023-.028.025-.025.004-.024.017-.027.027C-.478.854-.482.84-.497.84c-.02-.002-.027 0-.035-.008C-.547.822-.553.816-.573.818c-.024 0-.023-.013-.021-.029.001-.01.002-.025.017-.031.002-.002.004-.004.007-.004l.017-.02.012.022c.01.008.038.012.044-.01C-.493.732-.49.729-.509.727-.528.723-.538.723-.557.721c-.012 0-.012-.016-.011-.026.001-.013.014-.019.041-.013.027.007.074.011.074-.012 0-.059-.068-.057-.083-.127a.122.122 0 0 0-.042.039.275.275 0 0 1-.051.063C-.643.658-.66.674-.68.686c-.022.013-.023.025-.023.05 0 .02.009.039.009.059A.13.13 0 0 1-.7.814c-.005.012-.023.022-.032.02A.038.038 0 0 0-.72.813C-.725.809-.729.803-.729.801c-.004-.004-.007-.012 0-.02l.001-.004-.001-.009c0-.004-.001-.004-.002 0-.005.013-.012.035-.027.037h-.009l.001.004c0 .015-.016.027-.036.007.004 0 .013-.002.015-.005A.07.07 0 0 1-.79.795C-.792.781-.78.773-.764.773c.003 0 .005-.002.005-.003l.002-.006C-.756.76-.758.76-.759.762-.786.773-.798.76-.799.748l.001-.01C-.808.732-.81.717-.792.705c0 .006 0 .014.006.018.002 0 .003 0 .004.002l.008-.008c.001-.002.006 0 .014.006.002.002.004.002.007 0l.009-.006c.002-.002.001-.002 0-.004C-.762.695-.759.68-.738.674c-.01-.018-.041-.012-.04.017-.023-.037.015-.062.047-.048C-.73.629-.73.602-.726.602c-.001.002.002.007.007.007.002 0 .003-.002.003-.004 0-.009.004-.019.017-.021-.002.006.001.008.004.01L-.68.568c.016-.027.046-.097.117-.129C-.599.42-.623.389-.646.361-.665.342-.694.32-.713.332c-.008.004-.01.012-.02.022a.08.08 0 0 1-.024.005C-.758.357-.764.357-.768.354-.78.359-.8.352-.806.342c.008.002.017.004.027-.004L-.78.326c-.001-.01.006-.017.043-.015.002 0 .006-.002.004-.006-.004-.002-.01-.008-.02-.004-.017.004-.023.017-.035.002a.035.035 0 0 0-.009-.01h-.004C-.814.289-.828.26-.812.248a.03.03 0 0 0 .011.023l.009-.009c.01-.016.021-.024.046.013.003.004.004 0 .003-.002C-.744.256-.762.232-.739.229c.001 0 .006 0 .01-.002V.223c.004-.02.033-.026.042-.02-.006.004-.018.008-.023.026h.012c.012.013-.003.029.004.041h.005c.004-.01.014-.026.035-.016a.032.032 0 0 1 .013.023c.026.01.048.02.066.014-.003.012.012.031.038.037.026.008.038 0 .047-.008.002.01.012.03.025.045C-.467.26-.326.262-.294.201c-.043.016-.089.028-.115.022C-.443.217-.504.186-.512.146-.517.113-.484.055-.45.033-.49.025-.506.037-.542.029h-.005C-.578.027-.582.082-.621.068L-.632.061c-.014 0-.034-.018-.031-.034A.045.045 0 0 0-.64.041V.033C-.641.027-.639.021-.625.021c.008 0 .01.004.015.004.002 0 .004-.002.004-.005 0-.014-.047.009-.039-.032 0-.002.004-.008.007-.011-.002-.012.008-.024.03-.018-.004.002-.012.008-.01.016a.03.03 0 0 0 .009-.002c.003 0 .005.002.005.006l.002.001.004-.001c0-.002-.003-.006-.003-.01 0 0 .002-.012.004-.014-.002-.014.02-.029.04-.014-.006 0-.018.004-.02.01l.01.004a.021.021 0 0 1 .004.014c0 .006.001.006.004.006h.01c.004.002.005 0 .007-.004.005-.008.016-.016.029-.012a.02.02 0 0 1 .013.01.059.059 0 0 0 .017-.01c-.004.016.006.027.04.006l.022.017s.031-.013.043.002c.021.018.01.018.01.036-.015.031-.022.027-.028.058-.01.051.061.08.104.072A.239.239 0 0 1-.16.004c.048-.016.067.037.084.029C-.073.031-.07.027-.068.02c-.003-.024.001-.045-.005-.057-.005-.012-.031-.002-.049-.002-.011.002-.019-.006-.019-.008-.014-.002-.032-.016-.032-.033.007.004.016.014.027.016l.001-.008c.003-.02.026-.028.04-.014.001.004.006 0 .003-.002-.011-.008-.034-.029-.014-.037l.01-.004c-.001-.014.007-.025.018-.027-.004.008-.005.011.002.025.005-.002.01-.002.011-.002.012 0 .007.026.021.033.001.002.003.002.002 0-.005-.015-.007-.033.006-.037l.012-.002C-.03-.15-.017-.16.003-.148c-.004.002-.016.005-.018.011l.01.012c.01.031-.018.033-.018.045 0 .016.032.006.032.037l-.001.004c.014.008.029.018.03.029A.093.093 0 0 0 0-.002V0Z"
                  style="fill:#FFFFFF;fill-opacity:1;fill-rule:nonzero;stroke:none"
                  transform="matrix(3.44992 0 0 -3.44992 42.736 25.65)" />
                <path
                  d="m0 0-.029.002.001.025c.005.102-.056.176-.164.176C-.288.203-.474.08-.735.08a.715.715 0 0 0-.325.102l-.032-.078v.007a.065.065 0 0 1-.064.065.064.064 0 0 1 0-.129.07.07 0 0 1 .051.023l-.033-.078c.011-.004.022-.01.034-.013-.038-.393.254-.897.769-1.049.076.019.154.007.154-.076 0-.051-.026-.073-.072-.073-.031 0-.05.018-.05.037 0 .036.06.014.066.039.008.032-.012.045-.047.045-.036 0-.091-.023-.091-.084 0-.07.057-.111.118-.111.057 0 .177.031.161.172.027 0 .058.004.065.029l.006.08-.028.004.022.904.02-.001c.033-.002.062.013.064.048C.056-.021.027-.004 0 0m-.932-.07.627-.903c-.336.131-.669.432-.627.903m.645-.817-.57.823c.018-.002.036-.002.052-.002.029 0 .059.002.088.005l.457-.656-.027-.17m.042.262-.402.576c.044.012.087.024.128.039l.303-.431a11.709 11.709 0 0 0-.029-.184m.098.635-.024.002c-.027.002-.061-.01-.064-.047-.002-.035.023-.057.056-.059h.017l-.003-.023-.036-.235-.256.366c.12.049.216.099.269.099.041 0 .049-.019.041-.103"
                  style="fill:#FFFFFF;fill-opacity:1;fill-rule:nonzero;stroke:none"
                  transform="matrix(3.44992 0 0 -3.44992 37.867 28.904)" />
                <path
                  d="M0 0c.122 0 .183.039.183.078 0 .135-.336.051-.336.133 0 .014.01.025.025.037h.004c.169.016.172.133.292.156C.023.424.003.311-.06.305c.034.015.046.054.043.07C-.047.336-.112.332-.148.287-.154.279-.156.27-.154.262-.176.248-.189.232-.189.213c0-.127.34-.039.34-.133C.151.047.092.025-.001.025c-.07 0-.121.049-.252.016.001.022.044.064.027.084.013.004.022.016.022.025-.007.008-.016.01-.025.012.004.006 0 .014-.006.018-.001.002-.004.015-.007.017a.099.099 0 0 1-.031.022c-.014.008-.024.008-.03.008C-.307.229-.32.225-.322.225c-.007 0-.016 0-.017-.008a.035.035 0 0 1-.024.01.053.053 0 0 1-.003-.038c-.012 0-.025-.031-.037-.027.005-.01.008-.014.012-.014C-.401.131-.406.109-.417.107l.009-.009A.336.336 0 0 1-.426.02a.148.148 0 0 1-.027.021c-.02.012-.019.022-.016.041.003.018.014.031.016.047a.143.143 0 0 1-.003.016c-.002.011-.017.019-.026.017.004-.004.009-.008.008-.017C-.478.143-.482.137-.483.137-.488.131-.491.125-.486.121l.001-.006-.002-.008c-.002-.002-.002 0-.003 0-.002.014-.006.03-.017.032h-.009v.004c.002.011-.011.021-.031.005.004 0 .011 0 .013-.003C-.537.141-.539.133-.54.131-.543.119-.533.113-.518.113c.003 0 .004-.002.004-.002l.001-.006C-.512.104-.514.104-.515.104c-.024.009-.035 0-.038-.01L-.554.086C-.563.08-.567.068-.552.059c0 .004.001.011.008.013 0 .002.002.002.003.002A.074.074 0 0 0-.536.068c.002-.002.007-.002.016.004.001.002.003.002.006 0C-.513.07-.511.07-.508.068V.064C-.527.051-.527.037-.505.031c.002 0 .002-.002.002-.004C-.509 0-.548.006-.542.033c-.027-.031.008-.054.04-.041.003.002.003.002.004 0 .001-.006.003-.01.008-.01 0 0 .003.006.008.006.003 0 .003-.002.003-.004-.001-.005 0-.015.01-.017-.001.006.002.012.006.012s.013-.024.031-.043a.404.404 0 0 0-.076-.022c-.006 0-.046.004-.059-.004-.02-.01-.067-.027-.081-.008-.004.006-.003.014-.009.024-.005.008-.011.011-.015.011h-.012c-.007.01-.025.012-.031.004.005 0 .012-.002.018-.011C-.7-.072-.702-.078-.702-.08c-.004-.006-.002-.016.028-.025.001-.002.004-.004.001-.006a.016.016 0 0 0-.016.002c-.012.009-.013.023-.028.015C-.718-.096-.722-.098-.726-.1l-.003.002c-.013 0-.034-.015-.025-.029.002.002.007.01.016.012a.044.044 0 0 0 .003-.008c.003-.018.01-.029.041-.008.005.004.005-.002.003-.002-.007-.013-.028-.025-.013-.037.002 0 .005-.002.008-.006l-.001-.002c-.004-.017.015-.029.026-.029a.026.026 0 0 0-.01.025l.009-.002c.015.006.008.026.016.032.002 0 .004 0 .004-.002.001-.008.006-.026.023-.024a.027.027 0 0 1 .025.026v.002c.006-.004.011-.012.009-.02a.03.03 0 0 1 .013.012.028.028 0 0 0-.007-.031c.007.003.025.011.029.031.003-.002.005-.006.006-.01l.001.002a.06.06 0 0 1 .037.002c.002 0 .002-.002.002-.002-.002-.01-.002-.016.002-.02 0 .002.005.008.007.008.005 0 0-.017.011-.027.003.045.028.027.056.047.004.002.004 0 .003-.002-.002-.006-.004-.012-.012-.016.011 0 .035.012.035.028 0 .002.009.007.018.013.01-.002.027.004.033.016.001-.004.007-.018-.001-.022.03-.002.061.032.072.036.064.013-.039.06.091.05.011 0 .03.008.039.016-.01-.022-.011-.061.009-.063.009-.002.027-.007.034-.015.001-.002.001-.002-.001-.002a.124.124 0 0 1-.028-.008c-.031-.021-.032.047-.065.033A.033.033 0 0 1-.219-.1c-.013 0-.031-.015-.028-.029.004.004.011.012.021.012v-.006c-.001-.006.001-.012.012-.012.007 0 .008.004.013.004.002 0 .003-.002.003-.004 0-.013-.04.008-.031-.027 0 0 .002-.008.005-.01-.002-.01.007-.021.025-.016-.003.004-.01.008-.009.012h.009c.001 0 .003.002.004.006l.001.002c.003 0 .005-.002.005-.004S-.193-.176-.193-.18l.004-.009c-.002-.012.016-.024.034-.012-.005 0-.016.002-.017.008.003 0 .007.004.008.004.003.001.004.005.004.011 0 .002.002.002.003.002.003.002.006.002.009.002l.006-.002a.021.021 0 0 1 .025-.012c.022.008.003.028.021.032.003.002.009.002.013 0 .017-.004.042-.004.047.004.004.007.002.039-.016.05-.011.006.001.02-.01.036a.16.16 0 0 1 .065-.016c.047 0 .002.006.023.018.022.015.049.007.056.005.006 0 .011-.004.01-.009C.087-.094.094-.096.089-.107c-.005-.01-.025-.002-.039 0-.008 0-.014-.006-.014-.008C.024-.117.01-.127.011-.141c.004.002.011.008.021.012v-.006c.002-.017.021-.023.031-.011.001.001.006 0 .004-.002C.057-.156.04-.172.054-.178a.05.05 0 0 0 .009-.004C.061-.193.069-.201.078-.203c-.003.004-.004.008.001.019h.008c.01-.002.006.02.018.026.001.002.002.002.001 0C.104-.17.1-.186.111-.188L.12-.189c.003-.01.014-.016.028-.008a.027.027 0 0 0-.013.008c.004.003.008.009.008.011.007.026-.014.026-.014.035 0 .014.025.006.025.032 0 .004-.003.011-.011.015H.142h.001c.006 0 .014-.002.017.01-.018-.002-.013.014-.015.023l.001.004c.006.004.011.014.008.028-.006-.008-.027-.02-.028 0-.001 0-.002.011-.021.01C.074-.025.059-.01 0-.004-.003-.002-.006 0 0 0m-.374.137h-.002.002m.089.021a.129.129 0 0 1 .04-.015C-.263.139-.259.131-.271.133c-.011 0-.017.013-.014.025M-.31.172C-.314.162-.327.154-.336.164c-.009.008.002.01-.009.027A.123.123 0 0 1-.31.172M-.348.09c.003.006.006.012.01.012.007 0 .011 0 .013.007.003.008-.004.012-.011.018.008.002.011.004.007.008-.005.004-.012-.004-.014 0-.001.004.005.006.007.01a.017.017 0 0 0 .01 0l.032-.016c.005-.002.007-.004.007-.008 0-.006.002-.01-.002-.012-.003-.002-.003.01-.009.012C-.303.121-.303.115-.3.107c-.008.004-.014.006-.018 0C-.322.102-.321.096-.316.092c.003-.004 0-.01-.002-.018C-.321.066-.33.057-.342.063c-.012.005-.01.019-.006.027"
                  style="fill:#FFFFFF;fill-opacity:1;fill-rule:nonzero;stroke:none"
                  transform="matrix(3.44992 0 0 -3.44992 37.49 22.631)" />
                <path
                  d="M0 0c0 .037-.041.063-.16.063S-.55.018-.55.084c0 .033.053.031.116.027C-.43.105-.422.1-.407.096c.153-.045.336.037.428.011-.11.082-.201-.003-.319.022.069 0 .092.019.096.039C-.256.133-.356.186-.42.146A.027.027 0 0 1-.43.137C-.515.141-.583.141-.583.084c0-.119.32-.049.421-.049.101 0 .122-.01.122-.031 0-.027-.1-.035-.155-.035-.089 0-.351.047-.511.013.014.026.042.061.027.081.014.005.025.017.026.029a.06.06 0 0 1-.031.013c.005.008-.001.014-.006.022-.002.002-.005.018-.008.019-.007.006-.018.016-.035.024-.019.008-.03.008-.038.012L-.792.178c-.008 0-.019 0-.02-.01-.007.008-.018.01-.028.014A.067.067 0 0 1-.844.137C-.857.137-.873.1-.887.105-.882.094-.877.09-.873.09-.885.068-.89.043-.903.041c.008-.01.014-.016.019-.016a2.71 2.71 0 0 0-.003-.046l-.025.009h-.007c-.004 0-.007.002-.01.004l.01-.002-.014.004c-.013.012-.03.033-.051.045-.025.014-.025.025-.023.049.001.023.011.041.011.06a.083.083 0 0 1-.005.018c-.002.014-.02.023-.03.022.006-.004.011-.01.011-.022l-.009-.01c-.006-.006-.008-.013 0-.021l.001-.006-.002-.008c-.001-.004-.002-.002-.004 0-.004.014-.01.037-.023.037-.001 0-.007.002-.009 0l.001.004c.001.014-.017.027-.036.008.004 0 .012-.002.014-.006a.062.062 0 0 1-.004-.016c-.002-.015.009-.021.027-.021l.004-.004.001-.006c.001-.004-.001-.002-.003-.002-.026.012-.038 0-.039-.011V.092c-.01-.008-.013-.022.003-.033 0 .005 0 .015.007.017.002 0 .003 0 .004.002l.007-.006c.003-.002.008-.002.017.004.001.002.003.002.006 0l.007-.004c.002-.002.002-.004 0-.006-.018-.017-.016-.035.007-.039.003 0 .004-.002.004-.006-.004-.033-.048-.027-.044.006-.026-.037.017-.068.049-.048h.005c.001-.008.004-.012.009-.014 0 .002.002.008.008.01.002 0 .002-.004.002-.006 0-.008.003-.02.015-.02-.002.006.001.012.006.012.006 0 .02-.025.048-.041.021-.01.038-.035.052-.02-.003-.023.018-.048.013-.048-.007 0-.068.003-.084-.004-.022-.012-.078-.032-.094-.01-.005.008-.003.016-.01.029a.035.035 0 0 1-.019.014h-.013c-.008.01-.029.012-.037.004.006-.002.014-.002.022-.014l-.007-.012c-.005-.005-.002-.019.033-.031.002 0 .005-.004.002-.004-.005-.004-.013-.004-.019.002-.014.01-.016.026-.033.016l-.011-.006c0 .002-.001.002-.002.002-.016.002-.04-.018-.03-.035a.028.028 0 0 0 .019.015l.005-.011c.003-.018.01-.032.048-.008.002.004.002 0 .002-.002-.009-.016-.034-.029-.015-.041l.01-.008-.002-.002c-.005-.021.018-.037.029-.037-.005.006-.013.018-.011.031a.04.04 0 0 0 .01-.002c.019.008.011.03.02.035.003.002.005 0 .005-.002.001-.009.005-.029.027-.027.019.002.028.018.027.029-.001.002 0 .004.001.002.007-.004.014-.011.01-.021a.025.025 0 0 1 .016.016c.004-.012.005-.024-.007-.038.006.004.027.014.032.036.004-.002.007-.008.009-.012 0 0 0 .002.002.002a.087.087 0 0 1 .041 0c.002.002.003 0 .003-.002-.002-.008-.002-.016.001-.02 0 .002.006.01.009.01.005 0-.001-.019.012-.033.004.055.033.033.066.055.004.002.004 0 .003-.002a.024.024 0 0 0-.013-.018c.037-.008.094.047.102.07l.035.004c.105-.01.033.094.202.063a.1.1 0 0 1 .041.019c-.013-.021-.014-.068.009-.072a.071.071 0 0 0 .04-.016c.002-.002 0-.002-.002-.004a.142.142 0 0 1-.032-.007c-.035-.024-.037.054-.075.037-.002 0-.008-.004-.01-.006-.014 0-.036-.018-.032-.035a.039.039 0 0 0 .024.015v-.007c-.001-.008.002-.014.014-.014.007 0 .009.004.016.004.003 0 .005 0 .005-.004 0-.014-.048.008-.039-.031 0-.002.003-.01.006-.012-.002-.012.008-.023.03-.018-.004.002-.012.008-.011.014h.01c.003 0 .005 0 .006.006l.001.002c.002 0 .003-.002.003-.004l-.002-.008c0-.002.002-.012.004-.012-.002-.015.019-.031.04-.015-.005 0-.019.002-.021.01l.011.003c.003.004.005.01.005.016 0 .002.001.002.002.002.003 0 .007 0 .01.002.005 0 .006-.002.007-.004.005-.008.017-.016.03-.012.026.008.004.032.024.037h.015c.02-.005.05-.005.055.004.006.01.003.045-.018.059-.013.006.001.021-.012.039.023-.008.046-.018.075-.018.057 0 .069.008.095.024.026.017.057.006.065.006.007-.002.013-.004.011-.014-.007-.029.002-.031-.004-.045-.005-.01-.028-.002-.045 0-.009 0-.016-.006-.017-.008-.013-.002-.029-.015-.028-.031a.048.048 0 0 0 .025.014l.001-.006c.002-.02.022-.025.036-.014.001.002.006 0 .004-.002-.013-.008-.032-.027-.016-.033.001-.002.006-.004.011-.006-.001-.011.008-.025.017-.027-.004.008-.005.012.001.025h.009c.014-.002.007.022.022.032.001.001.002 0 .001-.002-.004-.014-.006-.032.005-.036.001 0 .006 0 .01-.002.004-.011.018-.019.034-.009-.004.002-.012.006-.014.011a.115.115 0 0 1 .008.014c.009.029-.017.029-.017.041 0 .014.029.004.029.035a.02.02 0 0 1-.013.018v.002c.008 0 .017-.002.021.01-.021-.002-.016.015-.018.027-.001.002-.001.004.001.006.007.004.012.013.01.031-.007-.01-.031-.021-.034-.002-.001.002-.002.016-.022.012-.037-.004-.063.004-.131.01C-.116-.064 0-.043 0 0m-.936-.068c-.001.002-.001.002.001.002l-.001-.002m.19.172a.169.169 0 0 1 .048-.02C-.721.08-.715.072-.729.072c-.012 0-.019.018-.017.032m-.028.013C-.78.107-.793.098-.804.109c-.009.01.001.012-.01.034a.166.166 0 0 1 .04-.026M-.818.021c.004.008.006.014.011.014.008 0 .013.002.015.01.004.01-.005.014-.013.019.009.002.013.006.009.012-.006.004-.014-.004-.016 0-.001.004.005.006.007.01.004.002.007.002.012 0l.038-.018C-.75.064-.747.064-.747.059-.748.053-.746.047-.75.045s-.003.012-.01.014c-.006 0-.006-.006-.002-.016-.009.004-.017.008-.022 0C-.789.035-.787.031-.78.025c.003-.004 0-.011-.004-.021-.003-.008-.014-.02-.027-.012-.014.006-.011.022-.007.029m.097-.209.001.002-.001-.002"
                  style="fill:#FFFFFF;fill-opacity:1;fill-rule:nonzero;stroke:none"
                  transform="matrix(3.44992 0 0 -3.44992 38.073 24.208)" />
                <path
                  d="M0 0c0 .035-.038.057-.152.057-.115 0-.465-.041-.465.021 0 .041.119.026.206.024.003-.008.012-.014.024-.018.148-.041.301.057.406.021-.083.077-.19-.007-.301.016.065 0 .133.012.136.031-.05-.033-.193.022-.252-.015l-.01-.008c-.109 0-.241.016-.241-.051 0-.113.4-.047.495-.047.095 0 .116-.01.116-.027 0-.027-.095-.035-.15-.035-.087 0-.461.051-.609.006.009.023.044.062.027.082.015.007.024.017.025.029A.067.067 0 0 1-.773.1c.004.005-.001.013-.006.019-.003 0-.006.016-.008.02-.006.004-.018.013-.034.021-.017.008-.029.008-.034.01C-.859.172-.874.166-.876.168c-.007 0-.018 0-.02-.01-.005.008-.015.01-.025.012A.05.05 0 0 1-.925.129C-.938.129-.953.094-.965.1c.004-.012.008-.016.012-.016C-.964.064-.968.039-.981.037A.044.044 0 0 1-.97.025.221.221 0 0 1-.974-.01l-.011.004c-.008 0-.016 0-.018.002l-.019.002c-.018.002-.032.031-.061.049-.023.014-.024.023-.024.047 0 .021.009.039.007.056l-.004.018c-.004.014-.021.023-.03.02.005-.004.01-.008.012-.02-.004-.004-.009-.01-.009-.012-.005-.004-.007-.011.001-.019l.001-.004-.001-.01c-.001-.002-.003-.002-.003 0-.006.016-.013.035-.024.037h-.009v.002c0 .016-.017.027-.033.01.003-.002.01-.002.012-.006A.143.143 0 0 1-1.19.15c-.001-.015.01-.019.026-.021.003 0 .004 0 .005-.002a.014.014 0 0 0 .002-.006c.001-.004 0-.004-.002-.002-.027.012-.037-.002-.037-.012V.098c-.01-.008-.012-.022.005-.032 0 .004-.001.014.005.016.001 0 .002 0 .003.002.003-.004.008-.006.008-.008.002 0 .007 0 .015.006.003.002.004.002.007 0l.007-.004a.006.006 0 0 0 0-.006c-.017-.015-.014-.033.008-.037.004 0 .004-.002.004-.006-.002-.031-.043-.025-.043.008-.022-.037.02-.064.051-.047.001.002.002 0 .003-.002.002-.004.005-.009.011-.009 0 .001.001.005.007.005l.001-.004c0-.007.004-.019.017-.021-.003.008-.001.014.004.014s.027-.043.075-.069c.008.002.021.002.026.012 0-.002.004-.006.009-.01.002-.021.016-.047.012-.047-.007 0-.08.002-.096-.004-.02-.013-.072-.031-.089-.009-.004.008-.002.013-.009.025-.005.008-.012.014-.017.014h-.014c-.007.01-.026.011-.035.006.007-.002.014-.004.021-.016a.053.053 0 0 1-.006-.01c-.004-.006-.002-.017.031-.029.002 0 .005-.004.002-.004-.004-.004-.012-.004-.018 0-.013.01-.015.025-.031.018l-.01-.006h-.004c-.014.004-.037-.016-.027-.033a.026.026 0 0 0 .019.015l.003-.01c.003-.017.01-.031.045-.007.004.002.004 0 .003-.002-.008-.016-.033-.03-.014-.041.001 0 .005-.002.008-.006L-1.2-.244c-.003-.018.016-.033.029-.031-.006.004-.014.013-.012.029l.011-.004c.016.006.009.027.018.033.003.002.005 0 .005-.002.001-.008.004-.027.025-.025.019.002.027.017.025.029 0 0 0 .002.002 0 .007-.004.013-.01.011-.019.003 0 .01.005.014.013.003-.009.005-.023-.008-.035.007.002.028.012.032.033a.02.02 0 0 0 .007-.009l.001.002c.008-.004.02-.004.041 0 .001.001.002 0 .001-.002 0-.008 0-.016.003-.02 0 .002.006.01.008.01.006 0 0-.02.01-.031.005.05.065.025.097.044.004.004.004.002.003 0a.03.03 0 0 0-.015-.017c.012-.002.029.006.042.016l-.004-.004.052.023.003.016.017.004c0-.002-.001-.002-.002-.002.033-.002.03.025.043.021.185-.023.079.08.298.061.01 0 .014.004.025.011-.013-.021-.013-.056.01-.06A.091.091 0 0 0-.37-.176c.002-.002 0-.004-.002-.004-.012-.002-.026-.004-.03-.008-.035-.021-.036.051-.073.038l-.008-.008c-.015 0-.035-.016-.032-.031a.042.042 0 0 0 .024.013v-.008c-.001-.005.001-.011.012-.011.008 0 .009.004.016.004.002 0 .003-.002.003-.004 0-.014-.044.007-.036-.032 0 0 .004-.007.007-.009-.002-.012.007-.024.028-.018-.004.002-.012.008-.011.014.004-.002.009-.002.011-.002 0 0 .003.002.004.008l.002.002c.002-.002.003-.002.003-.004l-.002-.008c0-.002.002-.012.004-.014-.002-.012.017-.027.038-.013-.005.001-.019.003-.021.009a.05.05 0 0 0 .011.004c.003.002.004.008.004.014.001.004.002.004.004.004h.009c.004.002.006 0 .007-.002.002-.01.014-.016.028-.012.023.008.004.029.022.033.003.002.011.002.015 0 .019-.004.048-.002.053.006.005.01.002.043-.018.055-.014.008 0 .021-.012.039.022-.008.043-.018.072-.018.051 0 .066.008.089.022.025.015.054.008.063.008.006-.002.012-.006.01-.014-.006-.027.003-.029-.003-.043-.005-.01-.028-.002-.043 0-.009 0-.017-.006-.017-.008-.013-.002-.027-.014-.027-.029.005.002.014.012.023.012l.001-.004c.002-.02.023-.026.034-.014.002.002.006 0 .004-.002-.01-.008-.03-.025-.013-.033l.009-.004c-.001-.012.006-.023.017-.025-.004.005-.005.009.001.021h.009c.011 0 .006.023.018.031.002 0 .003 0 .003-.002-.004-.011-.006-.029.005-.033l.01-.002c.003-.01.016-.017.031-.008-.004 0-.011.004-.014.01.004.004.007.01.007.012.009.029-.014.029-.014.039 0 .016.028.006.028.035 0 .004-.004.012-.014.018v.002-.002c.008.002.017 0 .021.009-.021-.002-.015.016-.018.026 0 .004-.001.006.001.006a.03.03 0 0 1 .01.029c-.007-.01-.029-.02-.031 0-.001 0-.002.016-.024.012-.034-.006-.057.004-.123.009C-.119-.057 0-.043 0 0m-.833.092A.231.231 0 0 1-.788.074C-.81.07-.805.064-.818.064c-.013 0-.017.018-.015.028m-.028.015C-.867.098-.879.088-.89.098c-.008.009.001.011-.01.031A.146.146 0 0 1-.861.107M-.903.016c.004.007.007.013.01.013.01 0 .014.002.016.008.004.01-.005.014-.014.02.01.002.014.006.01.009-.006.004-.015-.002-.016 0-.001.004.004.008.006.01.004.004.008.002.013 0l.036-.015c.004-.004.007-.006.007-.012 0-.002.002-.01-.002-.012-.004 0-.003.012-.012.012C-.853.051-.853.045-.85.037-.858.039-.866.043-.87.035-.874.029-.873.023-.867.018-.865.016-.867.008-.87 0c-.003-.008-.013-.02-.026-.014-.013.008-.011.022-.007.03"
                  style="fill:#FFFFFF;fill-opacity:1;fill-rule:nonzero;stroke:none"
                  transform="matrix(3.44992 0 0 -3.44992 37.891 26.014)" />
                <path
                  d="M0 0c0 .002 0 .004.002.004a.036.036 0 0 1 .012.031C.006.025-.018.014-.018.033c0 .002-.001.016-.022.012-.034-.004-.066.004-.133.008-.004.002-.007.004 0 .006.067.005.186.015.186.056 0 .035-.038.057-.153.057-.114 0-.464-.041-.464.023 0 .041.118.024.206.022.003-.008.011-.012.024-.016.147-.043.314.069.403.041C-.086.283-.159.213-.27.236c.065 0 .134.014.137.032C-.184.234-.326.289-.386.252a.025.025 0 0 1-.01-.008c-.108.002-.24.014-.24-.049 0-.113.399-.047.494-.047.096 0 .118-.011.118-.029 0-.027-.096-.033-.15-.033-.09 0-.462.049-.611.004.009.025.045.062.028.082.014.006.025.017.025.029a.06.06 0 0 1-.029.014c.005.006-.001.014-.006.019-.002.002-.004.018-.008.02a.103.103 0 0 1-.034.023c-.016.008-.027.008-.034.008-.004.002-.019-.002-.02-.002-.008 0-.018 0-.019-.008a.043.043 0 0 1-.027.01C-.915.273-.917.264-.912.244c-.014 0-.027-.033-.041-.029.005-.01.009-.014.014-.016C-.951.18-.956.154-.969.154A.065.065 0 0 1-.95.137L-.953.104l-.02.007h-.018l-.018.004c-.017.002-.032.031-.062.049-.023.012-.023.024-.023.047 0 .019.009.037.008.055a.115.115 0 0 1-.006.017c-.004.014-.021.024-.03.02.005-.004.01-.008.012-.02l-.01-.01c-.003-.005-.005-.013.001-.019l.002-.004c0-.002 0-.006-.002-.01-.001-.004-.002-.002-.002 0-.004.014-.012.035-.024.035l-.01.002.001.002c0 .014-.016.026-.033.008.004 0 .011-.002.014-.006a.08.08 0 0 1-.004-.013c-.001-.016.009-.022.026-.022.004 0 .005-.002.005-.004l.001-.006c.001-.002-.001-.002-.001-.002-.026.012-.038 0-.038-.011v-.01c-.008-.006-.011-.02.006-.031-.001.006-.001.015.006.017h.003l.007-.006c.002-.002.006 0 .016.006h.005l.008-.006V.189C-1.15.172-1.147.154-1.125.15c.003 0 .004-.002.004-.004-.002-.033-.044-.025-.043.006-.023-.037.018-.064.05-.047.002.002.003.002.004 0 .002-.005.005-.011.01-.011-.001 0 .002.008.007.008.002 0 .002-.004.002-.006.001-.008.004-.018.016-.02-.002.008 0 .012.004.012.007 0 .026-.047.073-.072-.001.004.019.011.028.017A.03.03 0 0 1-.954.012l.007.006c-.003-.024.023-.045.019-.045-.007 0-.051.006-.066-.002-.021-.012-.073-.032-.089-.01-.005.008-.004.016-.011.027a.027.027 0 0 1-.016.014h-.013c-.009.008-.027.01-.035.004a.027.027 0 0 0 .019-.014.043.043 0 0 0-.005-.01c-.003-.007-.002-.019.031-.031.002 0 .006-.002.003-.004-.005-.002-.012-.004-.019.002-.013.01-.015.024-.031.016l-.01-.004h-.003c-.015.002-.037-.018-.027-.035.001.006.008.015.018.017l.003-.011c.003-.018.01-.03.045-.008.004.002.004 0 .002-.002-.007-.014-.031-.027-.013-.039 0-.002.005-.004.008-.006l-.001-.004c-.003-.019.017-.035.03-.033a.033.033 0 0 0-.013.029c.005-.002.009-.004.011-.002.016.006.009.028.019.033.002.002.003 0 .004-.002.001-.009.005-.027.025-.025.019 0 .028.018.025.027 0 .002.001.002.003.002.006-.004.012-.011.01-.021.003.002.01.008.014.015a.036.036 0 0 0-.008-.037c.008.004.027.014.032.036.004-.004.007-.008.007-.012l.002.002a.08.08 0 0 1 .039 0c.003.002.003 0 .003-.002-.002-.006-.002-.016.002-.02 0 .002.005.01.008.01.006 0 0-.018.011-.031.005.051.032.031.064.051.004.003.004.002.003-.002a.027.027 0 0 0-.014-.016c.011-.01.058.02.058.039 0 .004.017.006.033.008.032-.002.028.025.041.023.187-.025.08.08.299.059.01 0 .015.012.024.021-.011-.021-.012-.064.011-.07.009 0 .03-.008.038-.014a.002.002 0 0 0-.001-.004C-.372-.064-.386-.068-.39-.072c-.034-.022-.035.052-.071.039l-.01-.008c-.015 0-.034-.018-.031-.033.005.006.012.013.023.013v-.007c0-.006.002-.012.014-.012.007 0 .009.004.013.004.003 0 .005-.002.005-.004 0-.014-.045.008-.036-.029l.006-.012c-.002-.012.008-.024.028-.016-.004.002-.011.008-.009.014.003-.002.007-.002.008-.002.002 0 .004.002.005.006 0 .002.001.002.003.002.003 0 .004-.002.004-.004S-.441-.125-.44-.129l.002-.012c-.001-.013.018-.029.039-.013-.007 0-.019.002-.021.009a.05.05 0 0 0 .01.004c.003.002.004.008.004.014 0 .004.002.004.003.004h.01c.005 0 .005-.002.007-.004.004-.008.014-.016.029-.01.023.008.003.03.022.033.004 0 .01.002.015 0 .019-.003.047-.003.052.006.005.008.002.043-.018.055-.012.006 0 .022-.011.037a.195.195 0 0 1 .071-.015c.053 0 .069.005.094.019.028.018.055.008.065.008.005-.002.01-.004.007-.014-.007-.027 0-.029-.005-.041-.007-.01-.029-.002-.045-.002-.008.002-.015-.006-.016-.006-.013-.004-.029-.015-.03-.029.006.002.014.01.025.012V-.08c0-.018.02-.024.033-.012.001.002.006 0 .003-.004-.01-.008-.032-.025-.016-.031l.008-.006c-.001-.01.006-.023.015-.025-.002.008-.003.012.003.023h.009c.013 0 .009.024.022.031.002 0 .003 0 .002-.001-.005-.014-.009-.03.003-.034l.008-.002c.003-.011.016-.017.032-.009-.004.002-.012.005-.012.009l.008.014c.011.027-.012.029-.011.039.001.014.027.006.029.033a.017.017 0 0 1-.01.018l-.001.002c.008 0 .016-.002.023.008C-.006-.029.002-.012 0 0m-.821.213A.26.26 0 0 1-.776.195C-.797.191-.793.182-.805.182c-.014.002-.019.019-.016.031m-.028.014C-.854.217-.867.209-.877.217c-.01.012.001.013-.011.031l.039-.021M-.892.135c.005.008.008.015.013.015.007-.002.011 0 .014.008.003.008-.005.012-.013.018.008.002.013.006.008.012-.005.003-.013-.006-.014 0-.002.003.004.005.006.009.004.002.007.002.012 0L-.83.18c.004-.004.007-.006.007-.01S-.821.158-.825.158c-.004-.002-.004.01-.01.012-.006 0-.006-.004-.002-.014-.009.004-.017.008-.02 0C-.862.148-.861.145-.854.137c.001-.002 0-.01-.003-.018C-.861.111-.871.102-.883.107c-.013.006-.012.02-.009.028m-.029.053h-.002.002zm.009.039h-.003.003m.17-.266c.001 0 0 0 0 0"
                  style="fill:#FFFFFF;fill-opacity:1;fill-rule:nonzero;stroke:none"
                  transform="matrix(3.44992 0 0 -3.44992 43.484 29.046)" />
                <path
                  d="M0 0c.003-.006.012-.014.026-.018.14-.041.299.067.384.041C.299.063.23-.004.124.018c.063 0 .128.011.131.029C.207.016.071.066.015.031L.005.025c-.076.002-.139.002-.139-.048 0-.108.29-.045.381-.045.091 0 .081-.008.081-.028 0-.023-.104-.031-.156-.031-.077 0-.316.041-.46.012.012.023.037.054.023.07.013.008.022.018.023.029a.072.072 0 0 1-.027.012c.004.008-.001.014-.005.02-.002 0-.005.015-.009.017a.082.082 0 0 1-.031.022c-.017.008-.027.008-.034.009L-.367.063c-.008 0-.017 0-.018-.008-.007.006-.014.008-.025.009A.05.05 0 0 1-.414.025c-.013 0-.025-.033-.038-.029.004-.01.009-.014.013-.014-.012-.019-.016-.043-.028-.045l.011-.011a.153.153 0 0 1-.007-.041l-.013.006h-.005c-.018.002-.028 0-.057.015-.022.012-.022.024-.022.045 0 .02.009.035.008.055l-.005.015c-.005.012-.021.022-.03.018.005-.002.011-.008.012-.018C-.579.018-.583.014-.583.012c-.004-.006-.007-.014 0-.02l.002-.004-.001-.008c-.001-.003-.003-.001-.003 0-.005.014-.011.034-.023.034-.001 0-.006.002-.009 0v.002c0 .015-.015.025-.03.009.002-.002.009-.002.012-.005A.05.05 0 0 1-.639.006c-.001-.016.01-.022.026-.022.003 0 .003 0 .004-.002l.002-.005c.001-.002-.001-.002-.003-.002-.025.009-.035 0-.036-.01l.001-.012c-.008-.006-.01-.019.005-.027 0 .004-.001.011.005.013l.004.002c.002-.004.006-.005.006-.005.002-.002.006-.002.015.003.002.002.004.002.006 0 .001-.002.004-.002.007-.003.002-.002.001-.004 0-.004-.015-.018-.013-.034.008-.036.003-.001.003-.003.003-.005-.001-.032-.042-.026-.04.005-.021-.035.018-.062.048-.044.001.002.002 0 .003 0 .002-.006.005-.012.011-.012 0 .002.001.006.005.006.002 0 .002 0 .002-.002.001-.008.004-.02.015-.022-.002.006 0 .014.004.014.006 0 .005.014.042-.008.003-.006.008-.012.015-.014l.026.004c-.003-.019.003-.052-.001-.052-.007 0-.048.005-.063-.002-.02-.012-.07-.03-.084-.008-.005.006-.003.014-.009.023a.047.047 0 0 1-.017.014h-.013c-.007.01-.026.01-.034.004.006 0 .014-.002.019-.014l-.005-.01c-.004-.005-.001-.015.03-.027.001-.002.004-.004.002-.006a.017.017 0 0 0-.017.002c-.013.012-.015.026-.029.016a.082.082 0 0 1-.011-.004c-.001 0-.001.002-.003.002-.014 0-.035-.018-.025-.033.001.004.006.011.017.013a.023.023 0 0 0 .003-.009c.003-.018.01-.03.044-.006.003.002.003-.002.002-.002-.009-.016-.03-.03-.013-.039 0 0 .003-.004.008-.006L-.657-.33c-.002-.018.017-.031.028-.031a.03.03 0 0 0-.01.027l.01-.002c.017.008.008.025.018.031.002.002.004 0 .004-.002.001-.006.004-.023.023-.023.019.002.027.017.025.027-.001 0 0 .002.002 0 .006-.002.011-.01.009-.019.003.002.01.008.013.013.005-.007.006-.019-.007-.033.007.002.027.012.03.033l.008-.009h.001a.063.063 0 0 1 .038.002c.002 0 .002-.002.002-.002-.002-.008-.002-.016.002-.022 0 .004.005.012.008.012.005 0 0-.02.012-.029.003.046.043.035.072.054.003.002.003.002.003-.002A.029.029 0 0 0-.38-.32c.032-.02.067.025.076.049.004.001.007.005.009.009.002-.006.003-.009-.006-.013.032-.002.029.021.04.019.095-.006.024.08.175.055.01-.002.029.008.037.015-.01-.019-.011-.06.01-.064a.099.099 0 0 0 .036-.016c.002-.002 0-.002-.001-.004a.097.097 0 0 1-.03-.005c-.031-.022-.032.046-.067.035L-.11-.248c-.014.002-.033-.016-.03-.029a.045.045 0 0 0 .023.011l-.001-.007c-.001-.004.001-.01.014-.01.006 0 .007.004.012.004.002 0 .004-.002.004-.006 0-.012-.042.008-.035-.028l.007-.011c-.001-.01.009-.022.026-.016-.003.002-.01.008-.009.014h.009c.001-.002.003 0 .004.004 0 .002.001.002.002.002l.004-.002-.002-.008s.001-.012.003-.012c-.002-.013.017-.027.036-.013-.005 0-.017.001-.019.009.004.002.009.002.01.004.002.002.003.006.003.014 0 .002.003.002.004.002h.009c.004.002.006 0 .007-.002.004-.01.013-.016.026-.012.024.01.003.029.023.033.002 0 .008.002.013 0 .019-.004.045-.004.05.004.005.008.003.041-.018.053-.01.006.002.02-.009.037A.141.141 0 0 1 .123-.23c.05 0 .073.007.099.021.028.016.054.008.061.006.006 0 .01-.004.006-.014C.277-.24.284-.244.276-.256c-.007-.01-.027-.002-.042 0-.007 0-.016-.006-.016-.006C.204-.266.188-.277.186-.291a.034.034 0 0 0 .024.012.035.035 0 0 0-.001-.006C.206-.303.225-.309.238-.297c.002.002.007 0 .003-.002C.229-.307.206-.322.22-.33a.023.023 0 0 0 .009-.004c-.004-.012 0-.023.008-.023-.001.005-.001.009.008.019h.008c.012 0 .013.024.026.029.002.002.003 0 .002 0C.273-.322.268-.338.277-.342c.001 0 .005 0 .008-.002.001-.01.012-.015.029-.008-.002.002-.01.006-.01.01l.01.012c.015.027-.007.027-.004.037.003.016.026.006.033.031.002.006.002.016-.007.018l-.001.002h.001c.007 0 .015-.002.021.01-.02-.002-.008.013-.008.023l.001.006a.034.034 0 0 1 .015.027c-.008-.008-.032-.017-.03 0 0 0 .002.014-.018.01-.034-.004-.081.004-.143.01-.004 0-.007.002 0 .004.062.004.189.013.189.054 0 .034-.006.053-.114.053s-.353-.039-.353.022c0 .031.047.027.104.023m-.353.008C-.359-.002-.371-.01-.381 0-.389.01-.38.012-.39.029A.184.184 0 0 1-.353.008m.022-.067c-.004 0-.004.012-.01.012-.006.002-.005-.004-.002-.012-.008.002-.014.008-.019 0-.004-.007-.002-.011.003-.017.003-.004 0-.01-.002-.018-.003-.008-.014-.017-.026-.011-.011.005-.009.019-.007.027.004.008.007.012.011.012.007 0 .012.002.014.007.003.01-.005.014-.012.018.008.004.012.008.008.01-.006.006-.013-.002-.015.002-.001.004.004.006.007.008.003.003.006.003.011 0l.034-.016c.004-.002.007-.004.007-.01 0-.002.002-.01-.002-.012m.018.026c-.012 0-.017.017-.014.029.004-.006.029-.014.042-.017-.02-.004-.015-.012-.028-.012"
                  style="fill:#FFFFFF;fill-opacity:1;fill-rule:nonzero;stroke:none"
                  transform="matrix(3.44992 0 0 -3.44992 41.718 30.037)" />
                <path
                  d="M0 0c.003-.008.011-.014.026-.02.139-.039.299.067.384.041C.3.061.229-.006.124.016c.062 0 .128.013.131.029C.207.014.071.068.014.031a.035.035 0 0 1-.011-.01c-.043-.009-.08-.033-.08-.064 0-.092.358-.02.358-.051 0-.023-.07-.047-.164-.047-.072 0-.195.047-.349.008v.002c.011.026.043.065.029.082.013.006.021.016.022.026-.008.009-.017.011-.025.013.003.006-.001.012-.007.018-.001 0-.004.013-.007.017a.094.094 0 0 1-.03.02c-.015.008-.025.008-.031.01C-.285.057-.298.051-.3.051-.306.053-.316.053-.317.045a.07.07 0 0 1-.023.01.047.047 0 0 1-.004-.037C-.356.016-.368-.014-.38-.01c.004-.011.008-.013.012-.013-.01-.02-.015-.041-.028-.043a.1.1 0 0 1 .014-.012.265.265 0 0 1-.006-.088c-.021.023-.054.076-.077.088-.02.012-.02.021-.02.043 0 .017.007.033.006.049a.068.068 0 0 1-.004.017c-.003.012-.018.02-.027.018.004-.004.01-.008.011-.018l-.008-.01C-.511.016-.513.01-.507.004L-.505 0a.024.024 0 0 0-.002-.008c0-.004-.001-.002-.002 0-.004.012-.012.029-.022.031h-.008v.004c0 .012-.014.022-.03.008.003-.002.01-.002.012-.006L-.561.014c-.001-.012.01-.018.025-.018.002 0 .004 0 .004-.002l.002-.006c0-.002-.001-.002-.002-.002-.024.01-.034 0-.035-.009l.001-.01c-.008-.006-.011-.018.004-.03 0 .006-.001.014.006.016l.004.002.006-.006c.001-.002.005 0 .014.004.001.002.002.002.004 0 .003 0 .005-.002.007-.004v-.004c-.015-.015-.012-.029.008-.033.003-.002.004-.002.004-.006-.002-.029-.04-.023-.038.006-.022-.033.016-.058.044-.041.002 0 .003 0 .003-.002.002-.004.004-.01.01-.01-.001.002.001.006.006.006.002 0 .003 0 .003-.002 0-.009.002-.019.013-.019-.002.006 0 .01.003.01.006 0 0-.043.042-.067.007-.025.027-.039.049-.037.007-.018.018-.033.015-.033-.006 0-.056.006-.069-.002a.13.13 0 0 0-.046-.016l-.003-.004.003.004c-.014-.002-.027 0-.034.008-.005.008-.004.014-.01.023a.028.028 0 0 1-.015.014h-.012c-.007.008-.024.008-.032.004.006-.002.013-.004.018-.012l-.004-.011c-.004-.006-.001-.016.028-.026.002 0 .005-.004.002-.004-.005-.002-.011-.004-.017.002-.013.008-.013.022-.028.014 0 0-.005-.004-.009-.004H-.59c-.014.002-.034-.016-.024-.031a.022.022 0 0 0 .016.013.08.08 0 0 1 .004-.009c.001-.014.008-.028.039-.006.004.002.004 0 .003-.002-.007-.014-.029-.026-.012-.037l.007-.004-.001-.004c-.004-.018.016-.031.026-.029a.031.031 0 0 0-.01.027.05.05 0 0 1 .01-.004c.014.006.007.025.016.031.003.002.003 0 .003-.004.002-.005.005-.023.023-.021.017.002.025.016.024.025l.001.002c.006-.004.012-.011.009-.019.003 0 .01.006.013.011.004-.007.005-.019-.007-.029.007.002.025.01.029.029.003-.001.006-.005.006-.009l.002.002c.006-.004.017-.004.036 0 .001.002.002 0 .002-.002-.002-.006-.002-.014.002-.018 0 .002.005.01.007.01.005 0 0-.018.011-.029.003.045.028.027.057.046.003 0 .004 0 .003-.001-.003-.006-.006-.012-.013-.016.011 0 .043.014.043.031 0 .006.021.026.027.078h.01c.039.002.056.03.095.032-.01-.01-.013-.038-.013-.053.001-.022.028-.045.035-.051.002-.002.001-.002-.001-.004A.073.073 0 0 1-.14-.344c-.031-.021-.031.045-.064.033l-.009-.007c-.014.002-.031-.014-.027-.028.004.004.01.01.02.012v-.008c0-.004.001-.01.012-.01.007 0 .008.004.013.004.002 0 .004-.002.004-.006 0-.011-.041.008-.033-.025l.005-.01C-.22-.4-.211-.41-.193-.404c-.004.002-.01.006-.009.011h.008c.002 0 .004 0 .005.006l.001.002c.001-.002.004-.002.004-.004s-.004-.004-.004-.007c0-.002.002-.01.005-.01-.003-.012.016-.026.034-.014-.005.002-.016.002-.018.01.004 0 .009.002.009.004.003 0 .004.006.004.01 0 .003.002.003.003.003h.008c.004.002.006 0 .007-.002a.02.02 0 0 1 .025-.009c.022.006.004.027.021.031h.013c.016-.004.031-.008.036 0 .004.008.002.041-.017.051-.011.006.016.074-.036.105.024-.006.103-.017.115.002.025-.006.053-.021.056-.027.003-.004.005-.01-.002-.014C.054-.27.057-.275.045-.279L.043-.281C.037-.273.03-.262.021-.26c-.006.006-.014.002-.015 0-.011.004-.028 0-.033-.013a.058.058 0 0 0 .024.002.014.014 0 0 1-.002-.006c-.001-.004.001-.008.005-.01l.002-.002C.003-.291.003-.293 0-.293c-.012.004-.035.004-.029-.01l.002-.01c-.008-.005-.011-.019-.005-.025.002.006.004.008.014.012l.006-.006c.007-.008.019.012.032.006l.001-.002C.009-.332-.003-.342.002-.352l.004-.007C.002-.367.005-.381.02-.385c-.001.002-.004.01-.002.016l.013.002c.024.012.009.027.017.035.009.008.02-.016.039.002.002.002.006.01.003.017l.001.002C.096-.316.1-.322.109-.316c-.014.011.002.017.007.027.001.002.003.002.004.002.007-.002.017 0 .026.012C.135-.277.107-.26.125-.254c.022.008.028.022.018.033-.019.026-.058.028-.059.055h.035c.121 0 .198.033.195.072C.31-.012-.05-.102-.05-.041c0 .018.022.031.05.041m-.262-.012c.004-.006.028-.013.04-.017-.018-.004-.014-.01-.026-.01-.011 0-.016.016-.014.027M-.286 0c-.006-.008-.017-.018-.027-.008-.008.008 0 .012-.009.028A.148.148 0 0 1-.286 0m-.039-.082c.004.006.007.012.01.012.007 0 .011.002.013.007.003.01-.004.012-.011.018.008.002.011.004.008.008-.006.004-.013-.002-.014 0-.002.004.004.008.006.01.002.004.007.002.011 0l.031-.016c.005-.002.007-.004.007-.008s.002-.012-.002-.012-.004.01-.008.012c-.006 0-.006-.004-.002-.012-.008.002-.016.006-.019-.001-.004-.006-.003-.01.003-.016.002-.004 0-.01-.003-.016-.003-.008-.012-.019-.023-.013a.02.02 0 0 0-.007.027"
                  style="fill:#FFFFFF;fill-opacity:1;fill-rule:nonzero;stroke:none"
                  transform="matrix(3.44992 0 0 -3.44992 41.324 31.768)" />
                <path d="M0 0a.087.087 0 1 1-.175 0c0-.047.039-.086.087-.086C-.039-.086 0-.047 0 0"
                  style="fill:#FFFFFF;fill-opacity:1;fill-rule:nonzero;stroke:none"
                  transform="matrix(3.44992 0 0 -3.44992 21.15 10.065)" />
                <path d="M0 0a.089.089 0 0 1-.088.088A.089.089 0 0 1-.175 0 .087.087 0 1 1 0 0"
                  style="fill:#FFFFFF;fill-opacity:1;fill-rule:nonzero;stroke:none"
                  transform="matrix(3.44992 0 0 -3.44992 21.046 9.256)" />
                <path d="M0 0a.087.087 0 1 1 0 .174A.087.087 0 1 1 0 0"
                  style="fill:#FFFFFF;fill-opacity:1;fill-rule:nonzero;stroke:none"
                  transform="matrix(3.44992 0 0 -3.44992 21.218 8.899)" />
                <path d="M0 0c.05 0 .089.039.089.088A.088.088 0 0 1 0 .176.087.087 0 0 1-.087.088C-.087.039-.048 0 0 0"
                  style="fill:#FFFFFF;fill-opacity:1;fill-rule:nonzero;stroke:none"
                  transform="matrix(3.44992 0 0 -3.44992 22.02 8.852)" />
                <path d="M0 0a.088.088 0 0 1 .124.002.087.087 0 0 1 0 .123.09.09 0 0 1-.124 0A.091.091 0 0 1 0 0"
                  style="fill:#FFFFFF;fill-opacity:1;fill-rule:nonzero;stroke:none"
                  transform="matrix(3.44992 0 0 -3.44992 25.449 8.292)" />
                <path d="M0 0a.089.089 0 0 1 0 .123.086.086 0 0 1-.124 0 .087.087 0 0 1 0-.123A.086.086 0 0 1 0 0"
                  style="fill:#FFFFFF;fill-opacity:1;fill-rule:nonzero;stroke:none"
                  transform="matrix(3.44992 0 0 -3.44992 25.385 7.646)" />
                <path d="M0 0a.09.09 0 0 1 0 .125.09.09 0 0 1-.124 0 .09.09 0 0 1 0-.125A.09.09 0 0 1 0 0"
                  style="fill:#FFFFFF;fill-opacity:1;fill-rule:nonzero;stroke:none"
                  transform="matrix(3.44992 0 0 -3.44992 24.583 7.518)" />
                <path d="M0 0a.087.087 0 0 1 0 .123.086.086 0 0 1-.124 0 .09.09 0 0 1 0-.125A.088.088 0 0 1 0 0"
                  style="fill:#FFFFFF;fill-opacity:1;fill-rule:nonzero;stroke:none"
                  transform="matrix(3.44992 0 0 -3.44992 23.9 8.023)" />
                <path
                  d="m0 0 .069-.154.09.107a.021.021 0 0 1 .01-.004A1.53 1.53 0 0 0 .18-.242c0-.061.049-.112.112-.112.061 0 .11.051.11.112 0 .043-.023.08-.058.099a.916.916 0 0 0-.123.116c.002.004.004.007.005.013l.149-.013-.06.158-.11-.096-.007.004L.19.201.038.143.14.023A.023.023 0 0 1 .134.01L0 0Z"
                  style="fill:#FFFFFF;fill-opacity:1;fill-rule:nonzero;stroke:none"
                  transform="matrix(3.44992 0 0 -3.44992 21.976 7.605)" />
                <path
                  d="M0 0c.034-.053.046-.078.049-.121a.259.259 0 0 0-.091.084l.019-.203c.023.035.044.06.072.072-.007-.133-.061-.187-.106-.197a.088.088 0 0 0-.104.068c-.011.059.04.096.093.043.008.123-.089.121-.133.068.052.12.03.198-.074.262-.066-.111-.038-.183.046-.267-.082.041-.155-.028-.083-.12.016.079.084.063.1-.002.014-.052-.038-.123-.125-.148-.126-.037-.166.043-.196.109.026.02.092.014.163-.033l-.061.199a.207.207 0 0 0-.12-.121c-.004.059.038.176.038.176l-.24-.099s.111-.053.149-.098a.196.196 0 0 0-.169.004l.095-.186c.02.082.062.133.093.139.025-.07.053-.156-.063-.217-.081-.041-.165-.029-.194.02-.033.054.004.117.07.07-.011.115-.112.115-.141.029.001.117-.029.188-.153.223-.032-.119.008-.19.128-.238-.068.005-.14-.061-.047-.143 0 .076.061.084.096.035a.085.085 0 0 0-.028-.121c-.039-.025-.114-.023-.213.067.029.011.062.005.104-.002l-.129.158a.226.226 0 0 0-.008-.123c-.027.031-.036.058-.049.121l-.099-.088c.093-.059.202-.147.332-.326a4.082 4.082 0 0 0 1.101.449C.09-.238.105-.1.133.006L0 0Z"
                  style="fill:#FFFFFF;fill-opacity:1;fill-rule:nonzero;stroke:none"
                  transform="matrix(3.44992 0 0 -3.44992 25.47 8.548)" />
                <path
                  d="M0 0c.034.094-.139.199-.157.334-.021.135-.004.262-.157.441-.152.176-.675.737-.833.914.04.004.132.026.23-.066.057-.053.168-.158.272-.262a2.822 2.822 0 0 0 .652.996c-.09-.027-.23-.048-.311-.103-.006.154.006.279-.098.377.04.215.005.474-.478.795.246-.059.393-.281.581-.112-.17.006-.174.375-.784.682.233.004.416-.373.686-.158-.255.029-.339.482-.798.621.159-.018.323-.094.46.092-.16-.039-.253.107-.424.121.063.199.048.322-.021.469a.588.588 0 0 1-.331-.118c-.012.11-.128.116-.228.108.006-.047.027-.115-.025-.125a4.714 4.714 0 0 1-.565-.17 3.012 3.012 0 0 1-.522-.281c-.043-.03-.08.041-.104.072-.075-.064-.148-.145-.094-.229a.65.65 0 0 1-.356-.127c0-.136.113-.269.282-.341-.284-.284-.028-.543-.277-.789.35-.014.29.476.466.543-.017-.342-.21-.405-.21-.776 0-.197.119-.412.012-.543.294.082.218.731.401.926a.544.544 0 0 0-.026-.33c-.102-.303.013-.717-.147-.852.299.03.335.51.581.686-.211-.432-.43-1.354-.745-1.815C-3.579.291-3.88-.551-4.349-.551c-.207 0-.362.127-.362.389 0 .783 1.345 1.322 1.345 2.156a.5.5 0 0 1-.493.516.7.7 0 0 1-.412-.17.466.466 0 0 1-.159.033c-.474 0-.347-.853-.761-.846.163-.091.447.088.613.327-.069-.553-.866-.407-.806-1.071.113.522 1.381.444 1.381 1.235a.298.298 0 0 1-.108.22.473.473 0 0 0 .268.084c.153 0 .29-.113.29-.336 0-.699-1.335-1.289-1.335-2.148 0-.145.042-.266.112-.359-.094-.042-.192-.024-.273.072-.007-.223.31-.362.509-.25a.458.458 0 0 1 .138-.028c-.061-.166-.264-.214-.371-.207.328-.257.898.08.867.373.26.209.425.569.612.805A2.348 2.348 0 0 1-3.323.08c-.192-.348-.371-.66-.421-1.119-.042-.385-.236-.729-.505-.729-.061 0-.157.077-.203.038-.084-.073-.004-.149-.004-.219 0-.11-.211-.219-.211-.555 0-.152.089-.334.055-.435.086.044.201.189.248.375.093-.446-.191-.426.012-.821.027.131.157.186.237.131.08-.055.043-.094-.018-.152-.058-.059-.112-.356.157-.338-.05.033-.053.111.08.14.185.038.24-.048.439-.048.121 0 .155.16.253.16.096 0 .096-.074.061-.131.158.043.187.127.187.215s-.072.142-.018.178c.055.033.237-.004.164-.153.093.018.144.084.144.199 0 .114-.131.18-.253.161-.02.07-.127.107-.224.107-.218 0-.184-.172-.335-.172-.24 0-.473.313-.473.84 0 .281.304.353.518.445.215.094.592.326.818.703.177.297.181.621.159 1.006.303-.174.339-.422.339-.603 0-.237-.122-.332-.219-.375-.081-.037-.108-.024-.117-.071-.012-.06.029-.095.064-.115.111-.055.087-.16.118-.271a.866.866 0 0 1 .301-.424c.019.07.014.182.003.328.234-.113.046-.582.498-.582-.083.049-.06.172-.012.187.047.018.108-.029.196-.152.087-.121.063-.111.277-.111.213 0 .117.074.231.074s.104-.131.044-.227c.191.057.249.202.183.352.168.092.258-.039.282-.131.166.166 0 .367-.129.379.003.063-.053.127-.124.131-.069.006-.136.01-.212.006-.079-.006-.122-.117-.214-.117-.283 0-.844.511-.844.734 0 .223.536.357.536.701 0 .451-.442.604-.814.895.131.148.519.183.74.076.023.125.104.094.135.31.078-.191-.003-.355.077-.435.062.092.222.078.213.314.049-.148-.063-.373.049-.47.019.121.091.142.137.142.046 0 .085-.033.085-.103 0-.182-.221-.098-.221-.299 0-.086.108-.115.108-.172 0-.055-.089-.141-.196-.066.036-.081.106-.149.2-.149.097 0 .203.078.244.18.051-.129.012-.272-.081-.291.098-.049.331-.002.304.295.13-.022.2-.112.122-.27.107.028.206.08.206.195C.053-.141-.044-.115 0 0m-2.539 4.059c-.122-.01-.119.105-.335.158.151.031.347.107.516.172.032-.141-.027-.317-.181-.33m.867-.92c-.156-.069-.279.07-.309.164-.032.095-.056.174-.019.209.067.066.09.119.049.203-.048.098-.151.051-.262.023.052.094.057.16-.014.151-.084-.01-.085-.145-.131-.129-.046.015-.021.094-.021.136.001.057.037.079.096.102l.456.174c.058.021.099.033.139-.008.031-.029.103-.068.081-.111-.023-.045-.118.052-.184 0-.058-.043-.008-.086.094-.117-.099-.059-.203-.096-.17-.2.028-.088.08-.111.176-.111.05 0 .087-.074.13-.164.044-.088.057-.25-.111-.322m.027 1.271c-.122-.096-.284-.008-.358.117.168.071.363.147.494.229-.121-.186-.038-.27-.136-.346"
                  style="fill:#FFFFFF;fill-opacity:1;fill-rule:nonzero;stroke:none"
                  transform="matrix(3.44992 0 0 -3.44992 32.096 27.759)" />
                <path d="M0 0a.377.377 0 1 1 .755.001A.377.377 0 0 1 0 0m.096 0a.28.28 0 1 0 .56 0 .28.28 0 0 0-.56 0"
                  style="fill:#FFFFFF;fill-opacity:1;fill-rule:nonzero;stroke:none"
                  transform="matrix(3.44992 0 0 -3.44992 61.63 35.205)" />
                <path
                  d="M0 0a.223.223 0 0 1-.094-.141.226.226 0 0 1 .059-.189.337.337 0 0 1 .188-.102.33.33 0 0 1 .214.03.215.215 0 0 1 .119.158C.511-.113.399.016.24.045A.321.321 0 0 1 0 0m.171-.336c-.108.02-.185.1-.169.178a.12.12 0 0 0 .053.078.232.232 0 0 0 .168.031c.096-.017.171-.088.171-.16l-.002-.02C.378-.307.277-.355.171-.336"
                  style="fill:#FFFFFF;fill-opacity:1;fill-rule:nonzero;stroke:none"
                  transform="matrix(3.44992 0 0 -3.44992 56.768 36.404)" />
                <path
                  d="M0 0c-.118-.09-.152-.244-.077-.342.076-.096.232-.099.35-.01.064.049.106.12.115.192a.2.2 0 0 1-.038.15.207.207 0 0 1-.135.074A.298.298 0 0 1 0 0m-.021-.221c0 .049.03.106.081.145a.203.203 0 0 0 .143.045.11.11 0 0 0 .07-.037.111.111 0 0 0 .019-.08.2.2 0 0 0-.079-.127C.141-.332.042-.336-.001-.283a.107.107 0 0 0-.02.062"
                  style="fill:#FFFFFF;fill-opacity:1;fill-rule:nonzero;stroke:none"
                  transform="matrix(3.44992 0 0 -3.44992 49.592 18.13)" />
                <path
                  d="M0 0a.327.327 0 0 1-.092-.227v-.007a.31.31 0 0 1 .084-.221A.212.212 0 0 1 .3-.461a.34.34 0 0 1 .029.432.224.224 0 0 1-.174.093A.22.22 0 0 1 0 0m.146-.43a.127.127 0 0 0-.084.041.217.217 0 0 0-.057.16.221.221 0 0 0 .062.159c.019.017.047.039.087.037.079 0 .144-.092.142-.201a.236.236 0 0 0-.064-.159.123.123 0 0 0-.086-.037M.144-.525Z"
                  style="fill:#FFFFFF;fill-opacity:1;fill-rule:nonzero;stroke:none"
                  transform="matrix(3.44992 0 0 -3.44992 55.238 34.241)" />
                <path
                  d="M0 0a.223.223 0 0 1-.127-.109c-.058-.121.015-.278.16-.346a.318.318 0 0 1 .244-.02c.059.02.104.059.127.11a.212.212 0 0 1 .006.168.318.318 0 0 1-.168.177A.317.317 0 0 1 0 0m.075-.369c-.098.047-.149.144-.114.217a.113.113 0 0 0 .07.06.217.217 0 0 0 .17-.015.227.227 0 0 0 .118-.123.118.118 0 0 0-.002-.094C.301-.359.269-.375.245-.385a.233.233 0 0 0-.17.016"
                  style="fill:#FFFFFF;fill-opacity:1;fill-rule:nonzero;stroke:none"
                  transform="matrix(3.44992 0 0 -3.44992 48.864 23.716)" />
                <path
                  d="M0 0c.123-.338.367-.459.554-.373-.417.049-.079.762-.616.762a.397.397 0 0 1-.086-.01.437.437 0 0 1-.349.137.665.665 0 0 1-.618-.672c0-.973 1.131-1.059 1.131-1.92a.395.395 0 0 0-.402-.408c-.191 0-.344.213-.504.546-.076.161-.241.377-.415.606a.311.311 0 0 1 .168-.061.215.215 0 0 1 .224.211v.01a.332.332 0 0 1-.092.219.327.327 0 0 1-.222.105.213.213 0 0 1-.223-.211v-.009c0-.032.006-.067.018-.098-.244.318-.47.629-.47.801 0 .15.104.283.233.443a.84.84 0 0 1 .044-.025l.034.037c.045.051.14.154.335.363l.012.014-.001-.002.047.051-.121.097c.032.073.06.153.081.239.038-.157.118-.256.229-.225-.074.162.075.379-.023.775.093-.154.226-.234.322-.205-.251.221.075.532-.252 1.012.107-.037.177-.016.225.037-.298.043-.162.422-.685.559.13.023.206.099.187.166-.138-.098-.259.187-.712.179-.028.17-.185.348-.363.434a.58.58 0 0 0-.032-.348l-1.475 1.45c-.043.041-.067.048-.079.035-.012-.016-.011-.041.017-.073l1.267-1.589c-.096-.032-.189-.073-.288-.108a.173.173 0 0 1-.11-.164 2.687 2.687 0 0 1-.544-.355c-.078-.071-.14-.088-.071-.248.026-.061-.055-.211.128-.1.121.072.394.221.434.127.022-.049-.113-.113-.206-.148-.093-.036-.193-.108-.178-.143.014-.035.088.002.092-.035.006-.043.035-.08.072-.08.037 0 .084.078.114.05.03-.025-.015-.197-.044-.242a.287.287 0 0 1 .239.262c.004.105.033.133.055.146.022.016.048-.113.019-.191.076.016.154.117.144.301.038.031.077.053.106.053.048 0 .144-.133.28-.133.251 0 .39.203.405.299.012.078.006.152-.036.209a.35.35 0 0 0 .119-.27c0-.355-.628-.523-.886-.769a.227.227 0 0 1-.028-.026l-.295.115-.02-.066a1.525 1.525 0 0 0-.017-.055c-.031-.101-.095-.312-.134-.433a.932.932 0 0 1-.016-.049l.026-.016c-.175-.232-.315-.492-.347-.76a2.47 2.47 0 0 1-.215.196.457.457 0 0 1 .016.082.294.294 0 0 1-.068.209.201.201 0 0 1-.136.068.194.194 0 0 1-.144-.055.196.196 0 0 1-.025-.025l-.031.024c-.097.074-.218.164-.291.244-.031.035-.062.052-.128.052-.026 0-.088.004-.132.004-.043 0-.068-.035-.118-.078A4.01 4.01 0 0 0-5.039.82c.037-.037.072-.076.107-.115.019-.021.038-.043.056-.066l.052.039a.16.16 0 0 0 .109.033c.038 0 .091-.029.128-.086.027-.039.265-.354.463-.57a2.127 2.127 0 0 1-.063-.024c-.084-.035-.275-.027-.359-.021-.086.008-.102.029-.159-.063-.023-.033-.05-.074-.079-.109-.028-.035-.05-.074.01-.174.087-.148.303-.535.375-.711.071-.174.156-.203.294-.258.138-.058.372-.193.4-.224l.009.134a.774.774 0 0 1-.222.108c-.049.017-.063.041-.003.041.059 0 .225-.059.341-.108-.035.133-.16.276-.235.358-.099.027-.2.027-.241-.004.006-.027-.015-.063-.056-.063-.038 0-.064.034-.053.069.013.041.072.053.06.129-.013.074-.106.086-.166.094-.084.121-.182.3-.225.371-.044.072-.018.113.012.138.072.059.222-.031.522-.051l.372-.019c.039-.348.179-.68.664-.801.237-.058.481-.232.565-.459-.969.016-1.121-.361-1.121-.717 0-.404.341-.382.341-.685 0-.266-.814-.375-1.06-.412-.208-.03-.327-.076-.427-.176l-.384-.379s.078-.018.155-.014l.138.178c.041.061.069.109.096.106.027-.006.009-.051-.024-.114l-.113-.191c.478-.033.51.144.51.219 0 .072-.119.121-.05.168.068.045.127.013.182-.051.054-.063.072-.117.204-.069 0 0 1.042.432 1.174.493.118.052.084.105.014.164-.078.064-.091.168-.091.277 0 .315.189.412.528.406a1.398 1.398 0 0 1-.01-.152c0-.492.743-.973.945-.973.089 0 .21.067.218-.23.005-.217.049-.371.01-.623s-.112-.291-.263-.397c-.151-.107-.294-.439-.358-.509.067-.045.14-.051.196.111.046.135.099.23.158.262-.059-.147-.102-.364-.13-.43.19-.033.498.141.498.275 0 .133-.106.123-.106.213 0 .039.048.082.106.082.076 0 .134-.06.14-.088.084.045.137.129.134.325l-.008.238a.336.336 0 0 1 .016-.033.222.222 0 0 1 .172-.096.326.326 0 0 1 .208.057c.074.05.127.121.142.199a.21.21 0 0 1 .005.049.202.202 0 0 1-.034.115.218.218 0 0 1-.14.092.316.316 0 0 1-.239-.051.319.319 0 0 1-.138-.182c-.016.268-.035.52-.028.621.011.151.017.217-.034.241-.05.021-.105-.063-.178-.063s-.291.203-.291.414c0 .213.229.486.218.777-.004.092.053.139.089.057.044-.1.11-.234.208-.344-.061-.365.342-.722.673-.459-.164-.023-.276.121-.349.268.029-.004.058-.008.089-.008l.05.002c.116-.144.485-.131.581.225a.38.38 0 0 0-.294-.119.592.592 0 0 1 .211.474c0 .928-1.126 1.037-1.126 1.881 0 .314.275.516.465.516A.278.278 0 0 0-.308.291a.421.421 0 0 1-.106-.322C-.384-.699.706-.664.72-.986.842-.502.03-.652 0 0m-2.9 2.559c.053.101 0 .254.184.254.091 0 .172-.09.281-.125a1.135 1.135 0 0 1-.465-.129M-3.896.514a.191.191 0 0 0-.058-.133.106.106 0 0 0-.072-.029c-.063.003-.112.078-.112.162v.013a.19.19 0 0 0 .057.133.107.107 0 0 0 .074.028.1.1 0 0 0 .069-.036.186.186 0 0 0 .042-.138m3.219-4.686a.231.231 0 0 0 .1.139.222.222 0 0 0 .167.037.117.117 0 0 0 .079-.051.121.121 0 0 0 .016-.092.234.234 0 0 0-.101-.138c-.092-.059-.202-.053-.246.013a.123.123 0 0 0-.015.092m-.677 3.109a.119.119 0 0 0 .036.086.121.121 0 0 0 .089.032.23.23 0 0 0 .153-.076.225.225 0 0 0 .066-.157.122.122 0 0 0-.036-.086.124.124 0 0 0-.088-.031.225.225 0 0 0-.154.074.237.237 0 0 0-.066.158m-1.848 2.098c.053.164.152.49.152.49l.171-.068a.587.587 0 0 1-.164-.115.174.174 0 0 1 .156.01l-.069-.172c-.016.027-.065.09-.112.101-.035-.138.051-.191.115-.222.104-.055.172-.063.201-.014.033.059-.035.141-.123.105-.01.09.041.137.1.137.047 0 .085-.043.098-.101-.006.146.06.259.194.302.05-.142.009-.238-.098-.342.056.024.121.02.147-.019.032-.049.021-.117-.059-.16-.018.094-.127.101-.158.041-.031-.061.016-.117.112-.172.112-.061.201-.025.261.072-.037.014-.101.006-.16-.031l.114.213a.222.222 0 0 1 .072-.125c.017.047.042.131.007.207l.246-.143c-.083-.008-.143-.07-.176-.109.06-.02.115-.01.145 0l-.128-.205c.002.07-.022.129-.052.154-.054-.099-.042-.195.068-.262.095-.056.168-.068.204-.011.037.058-.024.148-.114.117-.003.09.05.133.109.131.047-.004.082-.057.091-.117.035.144.098.226.245.253.031-.136-.034-.25-.164-.318.058.018.114.008.137-.033.03-.053.014-.119-.069-.156-.012.095-.118.113-.153.054-.027-.05.015-.103.113-.168.06-.039.148-.088.251.012-.034.037-.113.047-.144.047l.115.145a.177.177 0 0 1 .068-.139.578.578 0 0 1 .019.199l.144-.115S-1.522.26-1.638.133l-1.564.902zm1.526-3.846c-.062-.087-.168-.119-.237-.07-.068.049-.074.158-.012.246.061.088.166.119.236.071.069-.049.074-.159.013-.247m.444.702c-.061-.086-.167-.118-.236-.069-.068.049-.073.158-.012.246.063.088.168.118.237.071.068-.049.073-.16.011-.248"
                  style="fill:#FFFFFF;fill-opacity:1;fill-rule:nonzero;stroke:none"
                  transform="matrix(3.44992 0 0 -3.44992 62.553 22.375)" />
                <g>
                  <path
                    d="M-49.652 32.897c-.247-1.702-1.625-2.598-3.294-2.598-2.466 0-3.788 1.893-3.788 4.211 0 2.332 1.21 4.17 3.698 4.17 2.016 0 3.26-1.21 3.462-3.205h-1.065c-.1 1.323-.907 2.307-2.307 2.307-1.916 0-2.724-1.524-2.724-3.349 0-1.67.808-3.238 2.711-3.238 1.11 0 2.018.572 2.242 1.702z"
                    style="fill:#FFFFFF;fill-opacity:1;fill-rule:nonzero;stroke:none"
                    transform="matrix(2.75994 0 0 2.75994 169.949 -24.698)" />
                  <path style="fill:#FFFFFF;fill-opacity:1;fill-rule:nonzero;stroke:none"
                    d="M-14.983 4.504h-.763v-.932h.763zm0-1.765h-.763v-4.635h.763z"
                    transform="matrix(3.44992 0 0 -3.44992 90.905 75.517)" />
                  <path d="M-43.358 38.68h-1.022l-2.157-5.808h1.067l1.63 4.842h.022l1.584-4.842h1l-2.124 5.808z"
                    style="fill:#FFFFFF;fill-opacity:1;fill-rule:nonzero;stroke:none"
                    transform="matrix(2.75994 0 0 2.75994 169.949 -24.698)" />
                  <path style="fill:#FFFFFF;fill-opacity:1;fill-rule:nonzero;stroke:none"
                    d="M-14.983 4.504h-.763v-.932h.763zm0-1.765h-.763v-4.635h.763z"
                    transform="matrix(3.44992 0 0 -3.44992 112.485 75.517)" />
                  <path d="M-38.332 38.68h.953v-8h-.953z"
                    style="fill:#FFFFFF;fill-opacity:1;fill-rule:nonzero;stroke:none"
                    transform="matrix(2.75994 0 0 2.75994 169.949 -24.698)" />
                  <g>
                    <path style="fill:#FFFFFF;fill-opacity:1;fill-rule:nonzero;stroke:none"
                      d="M-11.843 39.074h-1.022l-2.157-5.809h1.067l1.63 4.842h.022l1.584-4.842h1l-2.124 5.81z"
                      transform="matrix(2.75994 0 0 2.75994 165.459 -25.785)" />
                    <g style="fill:#FFFFFF;fill-opacity:1">
                      <path style="fill:#FFFFFF;fill-opacity:1;fill-rule:nonzero;stroke:none"
                        d="M0 0c-.194.972-.867 1.54-1.914 1.54-1.839 0-2.407-1.45-2.407-3.02 0-1.421.643-2.826 2.258-2.826 1.226 0 1.958.717 2.123 1.884h1.301c-.284-1.884-1.466-3.006-3.41-3.006-2.362 0-3.618 1.645-3.618 3.948 0 2.317 1.196 4.141 3.648 4.141 1.75 0 3.155-.822 3.335-2.661H0Z"
                        transform="matrix(2.05397 0 0 -2.05397 157.414 70.909)" />
                    </g>
                    <path
                      d="M-26.86 33.225c-.122-1.143-.884-1.635-1.983-1.635-.896 0-1.792.324-1.792 1.366 0 .986 1.277 1.132 2.566 1.423 1.277.292 2.554.74 2.554 2.308 0 1.704-1.669 2.387-3.126 2.387-1.793 0-3.305-.874-3.305-2.824h1.008c0 1.345 1.12 1.928 2.33 1.928.964 0 2.029-.303 2.029-1.457 0-1.098-1.277-1.288-2.555-1.569-1.277-.28-2.566-.65-2.566-2.117 0-1.625 1.446-2.343 2.902-2.343 1.636 0 2.88.774 2.948 2.533h-1.01z"
                      style="fill:#FFFFFF;fill-opacity:1;fill-rule:nonzero;stroke:none"
                      transform="matrix(2.75994 0 0 2.75994 165.459 -25.785)" />
                    <path
                      d="M-20.766-2.238c-.135-.602-.574-.905-1.202-.905-1.013 0-1.47.717-1.444 1.524h3.47c.045 1.12-.457 2.652-2.098 2.652-1.263 0-2.178-1.02-2.178-2.412.045-1.416.744-2.438 2.222-2.438 1.04 0 1.776.557 1.983 1.58zm-2.646 1.291c.055.71.53 1.308 1.327 1.308.753 0 1.3-.582 1.335-1.308z"
                      style="fill:#FFFFFF;fill-opacity:1;fill-rule:nonzero;stroke:none"
                      transform="matrix(3.44992 0 0 -3.44992 181.094 68.89)" />
                    <path
                      d="M38.858 8.714h.762v2.063c0 1.174.448 1.873 1.676 1.873v.807c-.825.027-1.336-.34-1.703-1.084h-.018v.976h-.717z"
                      style="fill:#FFFFFF;fill-opacity:1;fill-rule:nonzero;stroke:none"
                      transform="matrix(3.44992 0 0 -3.44992 -19.364 112.12)" />
                    <path d="M-14.983 4.504h-.763v-.932h.763zm0-1.765h-.763v-4.635h.763z"
                      style="fill:#FFFFFF;fill-opacity:1;fill-rule:nonzero;stroke:none"
                      transform="matrix(3.44992 0 0 -3.44992 195.187 75.517)" />
                    <path
                      d="M-20.766-2.238c-.135-.602-.574-.905-1.202-.905-1.013 0-1.47.717-1.444 1.524h3.47c.045 1.12-.457 2.652-2.098 2.652-1.263 0-2.178-1.02-2.178-2.412.045-1.416.744-2.438 2.222-2.438 1.04 0 1.776.557 1.983 1.58zm-2.646 1.291c.055.71.53 1.308 1.327 1.308.753 0 1.3-.582 1.335-1.308z"
                      style="fill:#FFFFFF;fill-opacity:1;fill-rule:nonzero;stroke:none"
                      transform="matrix(3.44992 0 0 -3.44992 245.49 68.89)" />
                  </g>
                </g>
              </svg>
