<svg width="36" height="36" viewBox="0 0 36 36" fill="none" xmlns="http://www.w3.org/2000/svg">
<path d="M7.5 4.5C6.70435 4.5 5.94129 4.81607 5.37868 5.37868C4.81607 5.94129 4.5 6.70435 4.5 7.5" stroke="#0B8478" stroke-width="3" stroke-linecap="round" stroke-linejoin="round"/>
<path d="M28.5 4.5C29.2956 4.5 30.0587 4.81607 30.6213 5.37868C31.1839 5.94129 31.5 6.70435 31.5 7.5" stroke="#0B8478" stroke-width="3" stroke-linecap="round" stroke-linejoin="round"/>
<path d="M18 18L24 33L26.55 26.55L33 24L18 18Z" stroke="#0B8478" stroke-width="3" stroke-linecap="round" stroke-linejoin="round"/>
<path d="M7.5 31.5C6.70435 31.5 5.94129 31.1839 5.37868 30.6213C4.81607 30.0587 4.5 29.2956 4.5 28.5" stroke="#0B8478" stroke-width="3" stroke-linecap="round" stroke-linejoin="round"/>
<path d="M13.5 4.5H15" stroke="#0B8478" stroke-width="3" stroke-linecap="round" stroke-linejoin="round"/>
<path d="M13.5 31.5H16.5" stroke="#0B8478" stroke-width="3" stroke-linecap="round" stroke-linejoin="round"/>
<path d="M21 4.5H22.5" stroke="#0B8478" stroke-width="3" stroke-linecap="round" stroke-linejoin="round"/>
<path d="M4.5 13.5V15" stroke="#0B8478" stroke-width="3" stroke-linecap="round" stroke-linejoin="round"/>
<path d="M31.5 13.5V16.5" stroke="#0B8478" stroke-width="3" stroke-linecap="round" stroke-linejoin="round"/>
<path d="M4.5 21V22.5" stroke="#0B8478" stroke-width="3" stroke-linecap="round" stroke-linejoin="round"/>
</svg>
