<svg width="36" height="36" viewBox="0 0 36 36" fill="none" xmlns="http://www.w3.org/2000/svg">
<path d="M18 25.5H18.015" stroke="#0B8478" stroke-width="3" stroke-linecap="round" stroke-linejoin="round"/>
<path d="M13.6504 13.5003C14.0104 12.5082 14.7076 11.6742 15.6201 11.1441C16.5326 10.614 17.6025 10.4214 18.6426 10.6002C19.6827 10.7789 20.6269 11.3175 21.3101 12.1218C21.9934 12.9261 22.3722 13.9449 22.3804 15.0003C22.3804 18.0003 17.8804 19.5003 17.8804 19.5003" stroke="#0B8478" stroke-width="3" stroke-linecap="round" stroke-linejoin="round"/>
<path d="M28.5 4.5H7.5C5.84315 4.5 4.5 5.84315 4.5 7.5V28.5C4.5 30.1569 5.84315 31.5 7.5 31.5H28.5C30.1569 31.5 31.5 30.1569 31.5 28.5V7.5C31.5 5.84315 30.1569 4.5 28.5 4.5Z" stroke="#0B8478" stroke-width="3" stroke-linecap="round" stroke-linejoin="round"/>
</svg>
