<?xml version="1.0" standalone="no"?>
<!DOCTYPE svg PUBLIC "-//W3C//DTD SVG 20010904//EN"
 "http://www.w3.org/TR/2001/REC-SVG-20010904/DTD/svg10.dtd">
<svg version="1.0" xmlns="http://www.w3.org/2000/svg"
 width="16" height="17" viewBox="0 0 1280.000000 1360.000000"
 preserveAspectRatio="xMidYMid meet">
<g transform="translate(0.000000,1360.000000) scale(0.100000,-0.100000)"
fill="#000000" stroke="none">
<path d="M0 9270 l0 -4120 1585 0 1585 0 0 635 0 635 299 0 299 0 734 -1002
735 -1003 129 -96 c538 -402 988 -880 1357 -1441 196 -298 248 -387 362 -613
165 -327 265 -596 350 -940 73 -297 125 -655 125 -864 l0 -89 96 -78 c119 -98
169 -132 270 -182 174 -87 322 -117 541 -109 281 9 423 68 609 252 110 110
171 195 246 345 148 300 243 716 288 1265 18 216 24 706 11 840 -50 520 -220
1019 -490 1440 -60 94 -172 247 -233 317 l-49 58 493 1 c271 1 903 5 1403 8
l910 7 100 27 c386 104 687 343 857 682 67 132 142 383 173 575 22 139 20 399
-4 542 -49 285 -166 554 -331 763 l-50 64 57 83 c147 216 220 446 230 723 8
249 -33 439 -143 657 -103 206 -208 330 -437 518 -4 3 15 51 43 105 53 105
109 265 131 380 21 107 18 428 -4 533 -86 392 -313 707 -663 918 -16 10 -16
16 10 105 74 259 53 539 -59 776 -192 406 -615 705 -1080 762 -66 8 -695 8
-2355 0 l-2265 -12 -777 -303 -778 -304 -570 0 -570 0 0 630 0 630 -1585 0
-1585 0 0 -4120z m2530 0 l0 -3480 -945 0 -945 0 0 3480 0 3480 945 0 945 0 0
-3480z m7894 2835 c104 -18 198 -52 279 -102 76 -46 193 -156 242 -228 91
-132 99 -339 20 -500 -14 -27 -109 -157 -211 -289 -102 -131 -183 -240 -181
-243 3 -2 128 -31 279 -63 150 -33 303 -71 340 -85 94 -37 182 -96 258 -175
204 -211 262 -502 157 -781 -56 -149 -113 -216 -380 -452 -153 -134 -224 -203
-215 -208 7 -4 141 -59 296 -123 316 -129 368 -157 471 -252 117 -108 195
-233 242 -384 28 -91 30 -237 5 -345 -23 -96 -93 -237 -157 -317 -32 -41 -138
-139 -264 -244 -115 -97 -210 -181 -210 -187 0 -5 88 -65 195 -132 275 -173
378 -280 480 -497 59 -127 81 -222 87 -378 6 -159 -8 -254 -63 -412 -95 -275
-251 -457 -449 -525 -46 -16 -163 -18 -1465 -24 -1559 -6 -1535 -5 -1733 -69
-106 -34 -174 -77 -240 -150 -75 -84 -91 -138 -91 -310 0 -138 1 -149 31 -226
37 -99 80 -166 168 -264 410 -458 642 -1016 671 -1615 7 -147 -9 -531 -31
-756 -37 -369 -113 -687 -210 -879 -45 -90 -117 -184 -163 -215 -85 -56 -220
-55 -337 2 -49 24 -55 31 -55 58 -1 50 -37 311 -65 460 -114 615 -356 1234
-691 1772 -410 657 -783 1108 -1284 1549 -114 101 -370 305 -452 362 -34 23
-213 266 -818 1106 l-775 1075 -467 1 -468 0 0 2213 0 2214 428 6 c235 4 528
7 652 7 l225 1 785 308 785 309 2146 1 c1868 1 2158 -1 2233 -14z" fill="#9C0000"/>
</g>
</svg>