<svg width="81" height="81" viewBox="0 0 81 81" fill="none" xmlns="http://www.w3.org/2000/svg">
<circle cx="40.0225" cy="40.9551" r="40" fill="#710C0C"/>
<path d="M40.0244 37.1084V65.2612" stroke="white" stroke-width="4.12036" stroke-linecap="round" stroke-linejoin="round"/>
<path d="M52.0441 49.6207L40.0232 37.1084L28.0024 49.6207" stroke="white" stroke-width="4.12036" stroke-linecap="round" stroke-linejoin="round"/>
<path d="M58.9936 40.1086C60.3604 39.1583 61.3973 37.7756 61.9512 36.1648C62.5051 34.5539 62.5465 32.8004 62.0694 31.1632C61.5923 29.5259 60.622 28.0918 59.3017 27.0727C57.9815 26.0536 56.3813 25.5035 54.7376 25.5037H51.6903C51.173 23.7002 50.2682 22.0429 49.0444 20.6574C47.8206 19.2718 46.3099 18.1943 44.6267 17.5064C42.9436 16.8186 41.1321 16.5385 39.3296 16.6873C37.527 16.8361 35.7806 17.4099 34.2227 18.3653C32.6647 19.3207 31.3361 20.6326 30.3374 22.2017C29.3387 23.7707 28.6962 25.5557 28.4584 27.4216C28.3315 28.4175 28.3217 29.4225 28.4271 30.4148" stroke="white" stroke-width="2.5" stroke-linecap="round" stroke-linejoin="round"/>
<path d="M28.355 25.5039H25.3077C23.664 25.5037 22.0639 26.0538 20.7436 27.0729C19.4233 28.092 18.453 29.5261 17.9759 31.1633C17.4988 32.8006 17.5402 34.5541 18.0941 36.1649C18.648 37.7758 19.6849 39.1584 21.0517 40.1087" stroke="white" stroke-width="2.5" stroke-linecap="round" stroke-linejoin="round"/>
</svg>
