<svg width="18" height="13" viewBox="0 0 18 13" fill="none" xmlns="http://www.w3.org/2000/svg">
<path d="M1 6.71429C1 6.71429 3.90857 1 9 1C14.0903 1 17 6.71429 17 6.71429C17 6.71429 14.0903 12.4286 9 12.4286C3.90857 12.4286 1 6.71429 1 6.71429Z" stroke="#6B7280" stroke-linecap="round" stroke-linejoin="round"/>
<path d="M9.00003 7.85713C9.30314 7.85713 9.59383 7.73672 9.80816 7.52239C10.0225 7.30806 10.1429 7.01737 10.1429 6.71427C10.1429 6.41116 10.0225 6.12047 9.80816 5.90615C9.59383 5.69182 9.30314 5.57141 9.00003 5.57141C8.69693 5.57141 8.40624 5.69182 8.19191 5.90615C7.97759 6.12047 7.85718 6.41116 7.85718 6.71427C7.85718 7.01737 7.97759 7.30806 8.19191 7.52239C8.40624 7.73672 8.69693 7.85713 9.00003 7.85713Z" stroke="#6B7280" stroke-linecap="round" stroke-linejoin="round"/>
</svg>
