<svg width="205" height="203" viewBox="0 0 205 203" fill="none" xmlns="http://www.w3.org/2000/svg">
<g clip-path="url(#clip0_809_1264)">
<path d="M25.0846 149.909L8.16797 18.1888L25.0846 -4.83147e-05L143.59 8.14468L47.7879 18.1888L47.7879 149.909H25.0846Z" fill="url(#paint0_linear_809_1264)"/>
<path d="M52.3418 24.1591L184.062 7.24243L202.251 24.1591L194.106 142.665L184.062 46.8624L52.3418 46.8624V24.1591Z" fill="url(#paint1_linear_809_1264)"/>
<path d="M179.402 52.126L196.318 183.846L179.402 202.035L60.8959 193.89L156.698 183.846V52.126H179.402Z" fill="url(#paint2_linear_809_1264)"/>
<path d="M152.158 177.875L20.4383 194.792L2.24946 177.875L10.3942 59.3691L20.4383 155.172L152.158 155.172V177.875Z" fill="url(#paint3_linear_809_1264)"/>
</g>
<defs>
<linearGradient id="paint0_linear_809_1264" x1="143.59" y1="45.6637" x2="111.584" y2="-45.4661" gradientUnits="userSpaceOnUse">
<stop stop-color="#710C0C"/>
<stop offset="1" stop-color="#451818"/>
</linearGradient>
<linearGradient id="paint1_linear_809_1264" x1="156.587" y1="142.665" x2="247.717" y2="110.658" gradientUnits="userSpaceOnUse">
<stop stop-color="#710C0C"/>
<stop offset="1" stop-color="#451818"/>
</linearGradient>
<linearGradient id="paint2_linear_809_1264" x1="60.8959" y1="156.371" x2="92.9026" y2="247.501" gradientUnits="userSpaceOnUse">
<stop stop-color="#710C0C"/>
<stop offset="1" stop-color="#451818"/>
</linearGradient>
<linearGradient id="paint3_linear_809_1264" x1="47.9132" y1="59.369" x2="-43.2166" y2="91.3757" gradientUnits="userSpaceOnUse">
<stop stop-color="#710C0C"/>
<stop offset="1" stop-color="#451818"/>
</linearGradient>
<clipPath id="clip0_809_1264">
<rect width="204.499" height="202.035" fill="white"/>
</clipPath>
</defs>
</svg>
