<svg width="40" height="40" viewBox="0 0 40 40" fill="none" xmlns="http://www.w3.org/2000/svg">
<path d="M19.7578 39.5156C30.6698 39.5156 39.5156 30.6698 39.5156 19.7578C39.5156 8.84587 30.6698 0 19.7578 0C8.84587 0 0 8.84587 0 19.7578C0 30.6698 8.84587 39.5156 19.7578 39.5156Z" fill="#9C0000"/>
<path d="M16.8936 28.3195C16.8892 28.3195 16.8848 28.3195 16.8809 28.3195C16.3101 28.3156 15.7687 28.0653 15.3964 27.6333L9.47872 20.7606C8.76656 19.9339 8.85964 18.6861 9.68683 17.9739C10.514 17.2622 11.7614 17.3553 12.4736 18.182L16.9134 23.3384L27.0583 11.8635C27.7806 11.0459 29.0293 10.9691 29.8473 11.6918C30.6648 12.4145 30.7416 13.6632 30.0189 14.4807L18.3746 27.6526C17.9987 28.0767 17.4596 28.3195 16.8936 28.3195Z" fill="white"/>
</svg>
