<svg width="18" height="18" viewBox="0 0 18 18" fill="none" xmlns="http://www.w3.org/2000/svg">
<path d="M7.875 10.125H10.125V4.5H7.875V10.125ZM10.125 12.375C10.125 11.7529 9.62212 11.25 9 11.25C8.37788 11.25 7.875 11.7529 7.875 12.375C7.875 12.9971 8.37788 13.5 9 13.5C9.62212 13.5 10.125 12.9971 10.125 12.375ZM18 9C18 4.02863 13.9714 0 9 0C4.02863 0 0 4.02863 0 9C0 13.9714 4.02863 18 9 18C13.9714 18 18 13.9714 18 9ZM15.75 9C15.75 10.8034 15.0469 12.4976 13.7745 13.7745C12.4976 15.0469 10.8034 15.75 9 15.75C7.19662 15.75 5.50238 15.0469 4.2255 13.7745C2.95312 12.4976 2.25 10.8034 2.25 9C2.25 7.19662 2.95312 5.50238 4.2255 4.2255C5.50238 2.95312 7.19662 2.25 9 2.25C10.8034 2.25 12.4976 2.95312 13.7745 4.2255C15.0469 5.50238 15.75 7.19662 15.75 9Z" fill="#E86E31"/>
</svg>
