<svg width="18" height="18" viewBox="0 0 18 18" fill="none" xmlns="http://www.w3.org/2000/svg">
<path d="M9 0C4.02863 0 0 4.02863 0 9C0 13.9714 4.02863 18 9 18C13.9714 18 18 13.9714 18 9C18 4.02863 13.9714 0 9 0ZM13.7745 13.7745C12.4976 15.0469 10.8034 15.75 9 15.75C7.19662 15.75 5.50238 15.0469 4.2255 13.7745C2.95312 12.4976 2.25 10.8034 2.25 9C2.25 7.19662 2.95312 5.50238 4.2255 4.2255C5.50238 2.95312 7.19662 2.25 9 2.25C10.8034 2.25 12.4976 2.95312 13.7745 4.2255C15.0469 5.50238 15.75 7.19662 15.75 9C15.75 10.8034 15.0469 12.4976 13.7745 13.7745ZM12.132 5.5305L7.893 10.2409L5.91975 8.2935L4.338 9.89325L7.9875 13.5L13.8026 7.03462L12.132 5.5305Z" fill="#07A65C"/>
</svg>
