<?xml version="1.0" encoding="UTF-8" standalone="no"?>
<!-- Generator: Adobe Illustrator 18.0.0, SVG Export Plug-In . SVG Version: 6.00 Build 0)  -->

<svg
   version="1.1"
   height="46"
   id="Layer_1"
   x="0px"
   y="0px"
   viewBox="3.7 128.1 542.7 205.5"
   enable-background="new 3.7 128.1 542.7 205.5"
   xml:space="preserve"
   sodipodi:docname="Cabinet_Office_logo_White.svg"
   inkscape:version="1.2.2 (b0a8486, 2022-12-01)"
   xmlns:inkscape="http://www.inkscape.org/namespaces/inkscape"
   xmlns:sodipodi="http://sodipodi.sourceforge.net/DTD/sodipodi-0.dtd"
   xmlns="http://www.w3.org/2000/svg"
   xmlns:svg="http://www.w3.org/2000/svg"><defs
   id="defs149" /><sodipodi:namedview
   id="namedview147"
   pagecolor="#505050"
   bordercolor="#eeeeee"
   borderopacity="1"
   inkscape:showpageshadow="0"
   inkscape:pageopacity="0"
   inkscape:pagecheckerboard="0"
   inkscape:deskcolor="#505050"
   showgrid="false"
   inkscape:zoom="1.1484185"
   inkscape:cx="210.72458"
   inkscape:cy="102.75"
   inkscape:window-width="1309"
   inkscape:window-height="456"
   inkscape:window-x="0"
   inkscape:window-y="25"
   inkscape:window-maximized="0"
   inkscape:current-layer="Layer_1" />
<rect
   x="3.7"
   y="128.1"
   fill="#2D68B2"
   width="6.9"
   height="204"
   id="rect2"
   style="fill:#ffffff" />
<g
   enable-background="new    "
   id="g30"
   style="fill:#ffffff">
	<path
   d="M80.2,282.1c-3-2.1-6.5-3.1-10.6-3.1c-3.5,0-6.5,0.7-9,2c-2.5,1.3-4.5,3.1-6.1,5.3c-1.6,2.2-2.8,4.7-3.6,7.6   c-0.8,2.8-1.1,5.8-1.1,8.8c0,3.3,0.4,6.5,1.1,9.4c0.8,3,1.9,5.6,3.6,7.8c1.6,2.2,3.7,4,6.2,5.3c2.5,1.3,5.5,2,9,2   c2.6,0,4.8-0.4,6.8-1.3c2-0.8,3.7-2,5.2-3.5c1.4-1.5,2.6-3.3,3.4-5.4s1.3-4.3,1.5-6.7h7.8c-0.8,7.4-3.3,13.1-7.6,17.2   c-4.3,4.1-10.2,6.1-17.7,6.1c-4.5,0-8.5-0.8-11.9-2.3c-3.4-1.6-6.2-3.7-8.4-6.4c-2.2-2.7-3.9-5.9-5-9.7c-1.1-3.7-1.7-7.7-1.7-11.9   s0.6-8.2,1.8-12c1.2-3.7,3-7,5.3-9.8c2.3-2.8,5.2-5,8.7-6.6c3.5-1.6,7.4-2.4,11.9-2.4c3.1,0,5.9,0.4,8.7,1.2c2.7,0.8,5.2,2,7.3,3.6   c2.1,1.6,3.9,3.6,5.3,5.9c1.4,2.4,2.3,5.1,2.8,8.2h-7.8C85.1,287.3,83.1,284.2,80.2,282.1z"
   id="path4"
   style="fill:#ffffff" />
	<path
   d="M139.3,332.1c-1.2,0.7-2.9,1.1-5,1.1c-1.8,0-3.2-0.5-4.3-1.5c-1.1-1-1.6-2.7-1.6-4.9c-1.9,2.3-4.1,3.9-6.7,4.9   c-2.5,1-5.3,1.5-8.2,1.5c-1.9,0-3.7-0.2-5.4-0.7s-3.2-1.1-4.5-2c-1.3-0.9-2.2-2.1-3-3.6c-0.7-1.5-1.1-3.3-1.1-5.4   c0-2.4,0.4-4.4,1.2-5.9c0.8-1.5,1.9-2.8,3.2-3.7c1.3-1,2.9-1.7,4.6-2.2c1.7-0.5,3.5-0.9,5.3-1.2c1.9-0.4,3.7-0.7,5.4-0.9   c1.7-0.2,3.2-0.5,4.5-0.8c1.3-0.4,2.3-0.9,3.1-1.6c0.8-0.7,1.1-1.7,1.1-3c0-1.5-0.3-2.8-0.9-3.7c-0.6-0.9-1.3-1.6-2.2-2.1   c-0.9-0.5-1.9-0.8-3-1c-1.1-0.2-2.2-0.2-3.3-0.2c-2.9,0-5.4,0.6-7.4,1.7c-2,1.1-3,3.2-3.2,6.3h-7c0.1-2.6,0.7-4.8,1.6-6.6   c1-1.8,2.3-3.3,3.9-4.4c1.6-1.1,3.5-1.9,5.6-2.4c2.1-0.5,4.3-0.7,6.7-0.7c1.9,0,3.8,0.1,5.7,0.4c1.9,0.3,3.6,0.8,5.1,1.7   c1.5,0.8,2.8,2,3.7,3.6c0.9,1.5,1.4,3.5,1.4,6v21.7c0,1.6,0.1,2.8,0.3,3.6c0.2,0.8,0.8,1.1,1.9,1.1c0.6,0,1.3-0.1,2.1-0.3V332.1z    M128,310.4c-0.9,0.7-2,1.1-3.4,1.4c-1.4,0.3-2.9,0.5-4.5,0.7c-1.6,0.2-3.1,0.4-4.7,0.7c-1.6,0.2-3,0.6-4.3,1.2   c-1.3,0.5-2.3,1.3-3.1,2.3c-0.8,1-1.2,2.4-1.2,4.1c0,1.1,0.2,2.1,0.7,2.9c0.5,0.8,1.1,1.4,1.8,1.9c0.7,0.5,1.6,0.8,2.6,1.1   c1,0.2,2,0.3,3.1,0.3c2.3,0,4.3-0.3,5.9-0.9s3-1.4,4-2.4c1-0.9,1.8-2,2.3-3.1c0.5-1.1,0.7-2.2,0.7-3.1V310.4z"
   id="path6"
   style="fill:#ffffff" />
	<path
   d="M151.9,273.9v21.8h0.2c1.1-2.3,2.9-4,5.4-5.1c2.5-1.1,5.2-1.6,8.1-1.6c3.3,0,6.1,0.6,8.5,1.8c2.4,1.2,4.4,2.8,6.1,4.9   c1.6,2,2.8,4.4,3.6,7.1c0.8,2.7,1.2,5.5,1.2,8.5c0,3-0.4,5.8-1.2,8.5c-0.8,2.7-2,5-3.6,7c-1.6,2-3.6,3.6-6.1,4.7   c-2.4,1.1-5.2,1.7-8.5,1.7c-1,0-2.2-0.1-3.5-0.3c-1.3-0.2-2.5-0.6-3.8-1.1c-1.3-0.5-2.4-1.2-3.6-2c-1.1-0.8-2.1-1.9-2.8-3.1h-0.2   v5.6h-7v-58.4H151.9z M176.9,305c-0.5-1.9-1.3-3.6-2.4-5c-1.1-1.5-2.4-2.6-4.1-3.5c-1.7-0.9-3.6-1.3-5.8-1.3c-2.3,0-4.3,0.5-6,1.4   c-1.6,0.9-3,2.1-4,3.6c-1,1.5-1.8,3.2-2.2,5.1c-0.5,1.9-0.7,3.8-0.7,5.8c0,2.1,0.2,4.1,0.7,6c0.5,1.9,1.3,3.6,2.3,5.1   c1.1,1.5,2.4,2.7,4.1,3.6c1.7,0.9,3.7,1.3,6.1,1.3c2.4,0,4.4-0.5,6-1.4c1.6-0.9,2.9-2.2,3.9-3.7c1-1.5,1.7-3.3,2.1-5.2   c0.4-2,0.7-4,0.7-6.1C177.7,308.8,177.4,306.9,176.9,305z"
   id="path8"
   style="fill:#ffffff" />
	<path
   d="M192.7,282.4v-8.5h7v8.5H192.7z M199.6,290v42.3h-7V290H199.6z"
   id="path10"
   style="fill:#ffffff" />
	<path
   d="M216,290v6.7h0.2c2.9-5.1,7.5-7.7,13.7-7.7c2.8,0,5.1,0.4,7,1.1c1.9,0.8,3.4,1.8,4.5,3.2c1.1,1.4,1.9,3,2.4,4.9   c0.5,1.9,0.7,4,0.7,6.3v27.8h-7v-28.6c0-2.6-0.8-4.7-2.3-6.2c-1.5-1.5-3.6-2.3-6.3-2.3c-2.1,0-4,0.3-5.5,1   c-1.6,0.7-2.8,1.6-3.9,2.8c-1,1.2-1.8,2.6-2.3,4.2c-0.5,1.6-0.8,3.4-0.8,5.3v23.9h-7V290H216z"
   id="path12"
   style="fill:#ffffff" />
	<path
   d="M283.9,329.6c-3.2,2.4-7.1,3.6-11.9,3.6c-3.4,0-6.3-0.5-8.8-1.6c-2.5-1.1-4.6-2.6-6.3-4.6c-1.7-2-3-4.3-3.8-7   c-0.8-2.7-1.3-5.7-1.4-8.9c0-3.2,0.5-6.2,1.5-8.8c1-2.7,2.4-5,4.1-7c1.8-2,3.9-3.5,6.3-4.6c2.4-1.1,5.1-1.6,8-1.6   c3.8,0,6.9,0.8,9.4,2.3c2.5,1.6,4.5,3.5,6,5.9c1.5,2.4,2.5,5,3.1,7.9s0.8,5.5,0.7,8.1H259c-0.1,1.9,0.2,3.6,0.7,5.3   c0.5,1.7,1.3,3.1,2.4,4.4c1.1,1.3,2.5,2.3,4.2,3.1c1.7,0.8,3.7,1.1,6,1.1c2.9,0,5.4-0.7,7.2-2c1.9-1.4,3.1-3.4,3.7-6.2h6.9   C289.1,323.6,287,327.2,283.9,329.6z M282.2,302.4c-0.6-1.5-1.5-2.7-2.5-3.8c-1.1-1.1-2.3-1.9-3.8-2.5c-1.4-0.6-3-0.9-4.8-0.9   c-1.8,0-3.4,0.3-4.9,0.9c-1.4,0.6-2.7,1.5-3.7,2.6c-1,1.1-1.9,2.4-2.5,3.8c-0.6,1.4-1,3-1.1,4.6h24.3   C283.2,305.5,282.8,303.9,282.2,302.4z"
   id="path14"
   style="fill:#ffffff" />
	<path
   d="M314.9,290v6.1h-8.4v26.3c0,0.8,0.1,1.5,0.2,2c0.1,0.5,0.4,0.9,0.8,1.1c0.4,0.3,0.9,0.4,1.6,0.5c0.7,0.1,1.6,0.1,2.7,0.1   h3.2v6.1h-5.3c-1.8,0-3.3-0.1-4.6-0.4s-2.3-0.7-3.1-1.3c-0.8-0.7-1.4-1.6-1.8-2.8c-0.4-1.2-0.6-2.8-0.6-4.7v-26.9h-7.2V290h7.2   v-12.7h7V290H314.9z"
   id="path16"
   style="fill:#ffffff" />
	<path
   d="M343,291.6c1.2-3.7,2.9-6.9,5.3-9.8c2.3-2.8,5.3-5.1,8.8-6.8c3.5-1.7,7.6-2.5,12.2-2.5c4.6,0,8.7,0.8,12.2,2.5   c3.5,1.7,6.4,4,8.8,6.8c2.3,2.8,4.1,6.1,5.3,9.8c1.2,3.7,1.8,7.5,1.8,11.5c0,4-0.6,7.8-1.8,11.5c-1.2,3.7-2.9,6.9-5.3,9.8   c-2.3,2.8-5.3,5.1-8.8,6.7c-3.5,1.7-7.6,2.5-12.2,2.5c-4.6,0-8.7-0.8-12.2-2.5c-3.5-1.7-6.4-3.9-8.8-6.7c-2.3-2.8-4.1-6.1-5.3-9.8   c-1.2-3.7-1.8-7.5-1.8-11.5C341.3,299.1,341.9,295.3,343,291.6z M350.2,311.8c0.8,2.9,2,5.4,3.6,7.7s3.7,4.1,6.3,5.5   c2.6,1.4,5.6,2.1,9.2,2.1c3.5,0,6.6-0.7,9.2-2.1c2.6-1.4,4.7-3.2,6.3-5.5s2.8-4.9,3.6-7.7c0.8-2.9,1.1-5.8,1.1-8.7   s-0.4-5.8-1.1-8.7c-0.8-2.9-2-5.4-3.6-7.7s-3.7-4.1-6.3-5.5c-2.6-1.4-5.6-2.1-9.2-2.1c-3.5,0-6.6,0.7-9.2,2.1   c-2.6,1.4-4.7,3.2-6.3,5.5s-2.8,4.9-3.6,7.7c-0.8,2.9-1.1,5.8-1.1,8.7S349.4,308.9,350.2,311.8z"
   id="path18"
   style="fill:#ffffff" />
	<path
   d="M400.3,296.1V290h7.1v-6.3c0-3.4,1-6,3-7.8c2-1.8,4.9-2.7,8.7-2.7c0.7,0,1.4,0.1,2.2,0.2c0.8,0.1,1.6,0.3,2.2,0.5v6.1   c-0.6-0.2-1.3-0.4-2-0.4c-0.7-0.1-1.4-0.1-2-0.1c-1.7,0-3,0.3-3.9,1c-0.9,0.7-1.4,1.9-1.4,3.8v5.9h8.2v6.1h-8.2v36.2h-7v-36.2   H400.3z"
   id="path20"
   style="fill:#ffffff" />
	<path
   d="M422.1,296.1V290h7.1v-6.3c0-3.4,1-6,3-7.8c2-1.8,4.9-2.7,8.7-2.7c0.7,0,1.4,0.1,2.2,0.2c0.8,0.1,1.6,0.3,2.2,0.5v6.1   c-0.6-0.2-1.3-0.4-2-0.4c-0.7-0.1-1.4-0.1-2-0.1c-1.7,0-3,0.3-3.9,1c-0.9,0.7-1.4,1.9-1.4,3.8v5.9h8.2v6.1h-8.2v36.2h-7v-36.2   H422.1z"
   id="path22"
   style="fill:#ffffff" />
	<path
   d="M450,282.4v-8.5h7v8.5H450z M456.9,290v42.3h-7V290H456.9z"
   id="path24"
   style="fill:#ffffff" />
	<path
   d="M492,297.4c-1.7-1.5-4.1-2.2-7-2.2c-2.5,0-4.6,0.5-6.3,1.4c-1.7,0.9-3,2.2-4,3.7c-1,1.5-1.7,3.3-2.2,5.3   c-0.4,2-0.7,4-0.7,6.2c0,2,0.2,3.9,0.7,5.7c0.5,1.9,1.2,3.5,2.2,4.9c1,1.4,2.3,2.6,3.8,3.5c1.6,0.9,3.5,1.3,5.6,1.3   c3.4,0,6.1-0.9,8.1-2.7c1.9-1.8,3.1-4.3,3.6-7.6h7.1c-0.8,5.2-2.7,9.3-5.8,12.1c-3.1,2.8-7.4,4.3-12.8,4.3c-3.2,0-6.1-0.5-8.5-1.6   c-2.5-1-4.6-2.5-6.2-4.4c-1.7-1.9-2.9-4.2-3.8-6.8c-0.8-2.6-1.3-5.5-1.3-8.7c0-3.2,0.4-6.1,1.2-8.9c0.8-2.8,2.1-5.2,3.7-7.2   c1.7-2,3.7-3.7,6.3-4.8c2.5-1.2,5.4-1.8,8.8-1.8c2.4,0,4.6,0.3,6.7,0.9c2.1,0.6,4,1.5,5.6,2.7c1.6,1.2,2.9,2.7,4,4.5   c1,1.8,1.7,4,2,6.5h-7.2C494.9,300.9,493.7,298.8,492,297.4z"
   id="path26"
   style="fill:#ffffff" />
	<path
   d="M539.6,329.6c-3.2,2.4-7.1,3.6-11.9,3.6c-3.4,0-6.3-0.5-8.8-1.6c-2.5-1.1-4.6-2.6-6.3-4.6c-1.7-2-3-4.3-3.8-7   c-0.8-2.7-1.3-5.7-1.4-8.9c0-3.2,0.5-6.2,1.5-8.8c1-2.7,2.4-5,4.1-7c1.8-2,3.9-3.5,6.3-4.6c2.4-1.1,5.1-1.6,8-1.6   c3.8,0,6.9,0.8,9.4,2.3c2.5,1.6,4.5,3.5,6,5.9c1.5,2.4,2.5,5,3.1,7.9c0.6,2.8,0.8,5.5,0.7,8.1h-31.7c-0.1,1.9,0.2,3.6,0.7,5.3   c0.5,1.7,1.3,3.1,2.4,4.4s2.5,2.3,4.2,3.1c1.7,0.8,3.7,1.1,6,1.1c2.9,0,5.4-0.7,7.2-2c1.9-1.4,3.1-3.4,3.7-6.2h6.9   C544.8,323.6,542.8,327.2,539.6,329.6z M537.9,302.4c-0.6-1.5-1.5-2.7-2.5-3.8c-1.1-1.1-2.3-1.9-3.8-2.5c-1.4-0.6-3-0.9-4.8-0.9   c-1.8,0-3.4,0.3-4.9,0.9c-1.4,0.6-2.7,1.5-3.7,2.6c-1,1.1-1.9,2.4-2.5,3.8c-0.6,1.4-1,3-1.1,4.6H539   C538.9,305.5,538.5,303.9,537.9,302.4z"
   id="path28"
   style="fill:#ffffff" />
</g>
<g
   id="g3093"
   transform="matrix(1.2700026,0,0,-1.2700026,-350.48962,427.55068)"
   style="fill:#ffffff">
	<g
   id="g3551"
   transform="matrix(1.0089141,0,0,1.0089141,362.11571,-731.87265)"
   style="fill:#ffffff">
		<g
   id="g3111"
   transform="translate(76.2633,810.1241)"
   style="fill:#ffffff">
			<path
   id="path3113"
   d="M-84.3,133.7c-0.5-1-1-1.6-0.9-2.3c0.1-0.8,0.9-1.3,1.2-2.1c0.3,0.9,0.9,1.6,0.8,2.3     C-83.1,132.3-84.1,133.2-84.3,133.7"
   style="fill:#ffffff" />
		</g>
		<g
   id="g3115"
   transform="translate(80.777,810.1241)"
   style="fill:#ffffff">
			<path
   id="path3117"
   d="M-75.6,133.7c0.5-1,1-1.6,0.9-2.3c-0.1-0.8-0.9-1.3-1.2-2.1c-0.3,0.9-0.9,1.6-0.8,2.3     C-76.7,132.3-75.8,133.2-75.6,133.7"
   style="fill:#ffffff" />
		</g>
		<g
   id="g3119"
   transform="translate(73.6659,810.3188)"
   style="fill:#ffffff">
			<path
   id="path3121"
   d="M-89.3,134.1c0.5,0,0.9,0.4,0.9,0.9s-0.4,0.9-0.9,0.9s-0.9-0.4-0.9-0.9C-90.2,134.5-89.8,134.1-89.3,134.1     "
   style="fill:#ffffff" />
		</g>
		<g
   id="g3123"
   transform="translate(73.8695,809.8832)"
   style="fill:#ffffff">
			<path
   id="path3125"
   d="M-88.9,133.2c0,0.5-0.4,0.9-0.9,0.9s-0.9-0.4-0.9-0.9s0.4-0.9,0.9-0.9C-89.3,132.4-88.9,132.7-88.9,133.2"
   style="fill:#ffffff" />
		</g>
		<g
   id="g3127"
   transform="translate(74.0184,809.1441)"
   style="fill:#ffffff">
			<path
   id="path3129"
   d="M-88.6,131.8c0,0.5-0.4,0.9-0.9,0.9s-0.9-0.4-0.9-0.9s0.4-0.9,0.9-0.9C-89,130.9-88.6,131.3-88.6,131.8"
   style="fill:#ffffff" />
		</g>
		<g
   id="g3131"
   transform="translate(75.3542,811.7728)"
   style="fill:#ffffff">
			<path
   id="path3133"
   d="M-86,136.9c0.5,0,0.9,0.4,0.9,0.9s-0.4,0.9-0.9,0.9s-0.9-0.4-0.9-0.9C-86.9,137.3-86.5,136.9-86,136.9"
   style="fill:#ffffff" />
		</g>
		<g
   id="g3135"
   transform="translate(74.5958,811.539)"
   style="fill:#ffffff">
			<path
   id="path3137"
   d="M-87.5,136.4c0.5,0,0.9,0.4,0.9,0.9s-0.4,0.9-0.9,0.9s-0.9-0.4-0.9-0.9C-88.4,136.8-88,136.4-87.5,136.4"
   style="fill:#ffffff" />
		</g>
		<g
   id="g3139"
   transform="translate(73.9997,811.0167)"
   style="fill:#ffffff">
			<path
   id="path3141"
   d="M-88.6,135.4c0.5,0,0.9,0.4,0.9,0.9s-0.4,0.9-0.9,0.9s-0.9-0.4-0.9-0.9C-89.5,135.8-89.1,135.4-88.6,135.4     "
   style="fill:#ffffff" />
		</g>
		<g
   id="g3143"
   transform="translate(76.1498,811.6996)"
   style="fill:#ffffff">
			<path
   id="path3145"
   d="M-84.5,136.7c0.5,0,0.9,0.4,0.9,0.9s-0.4,0.9-0.9,0.9c-0.5,0-0.9-0.4-0.9-0.9     C-85.4,137.1-85,136.7-84.5,136.7"
   style="fill:#ffffff" />
		</g>
		<g
   id="g3147"
   transform="translate(76.9063,811.4808)"
   style="fill:#ffffff">
			<path
   id="path3149"
   d="M-83,136.3c0.5,0,0.9,0.4,0.9,0.9s-0.4,0.9-0.9,0.9s-0.9-0.4-0.9-0.9S-83.5,136.3-83,136.3"
   style="fill:#ffffff" />
		</g>
		<g
   id="g3151"
   transform="translate(77.618,811.1467)"
   style="fill:#ffffff">
			<path
   id="path3153"
   d="M-81.7,135.7c0.5,0,0.9,0.4,0.9,0.9s-0.4,0.9-0.9,0.9s-0.9-0.4-0.9-0.9C-82.6,136.1-82.2,135.7-81.7,135.7     "
   style="fill:#ffffff" />
		</g>
		<g
   id="g3155"
   transform="translate(83.0592,810.624)"
   style="fill:#ffffff">
			<path
   id="path3157"
   d="M-71.2,134.7c0-0.5,0.4-0.9,0.9-0.9s0.9,0.4,0.9,0.9s-0.4,0.9-0.9,0.9C-70.8,135.6-71.2,135.2-71.2,134.7"
   style="fill:#ffffff" />
		</g>
		<g
   id="g3159"
   transform="translate(83.4658,810.1884)"
   style="fill:#ffffff">
			<path
   id="path3161"
   d="M-70.4,133.8c-0.5,0-0.9-0.4-0.9-0.9s0.4-0.9,0.9-0.9s0.9,0.4,0.9,0.9C-69.5,133.4-69.9,133.8-70.4,133.8"
   style="fill:#ffffff" />
		</g>
		<g
   id="g3163"
   transform="translate(83.3168,809.4493)"
   style="fill:#ffffff">
			<path
   id="path3165"
   d="M-70.7,132.4c-0.5,0-0.9-0.4-0.9-0.9s0.4-0.9,0.9-0.9s0.9,0.4,0.9,0.9C-69.8,132-70.2,132.4-70.7,132.4"
   style="fill:#ffffff" />
		</g>
		<g
   id="g3167"
   transform="translate(81.6768,811.7728)"
   style="fill:#ffffff">
			<path
   id="path3169"
   d="M-73.8,136.9c0.5,0,0.9,0.4,0.9,0.9s-0.4,0.9-0.9,0.9s-0.9-0.4-0.9-0.9C-74.7,137.3-74.3,136.9-73.8,136.9     "
   style="fill:#ffffff" />
		</g>
		<g
   id="g3171"
   transform="translate(82.4348,811.539)"
   style="fill:#ffffff">
			<path
   id="path3173"
   d="M-72.4,136.4c0.5,0,0.9,0.4,0.9,0.9s-0.4,0.9-0.9,0.9s-0.9-0.4-0.9-0.9C-73.3,136.8-72.9,136.4-72.4,136.4     "
   style="fill:#ffffff" />
		</g>
		<g
   id="g3175"
   transform="translate(83.031,811.0167)"
   style="fill:#ffffff">
			<path
   id="path3177"
   d="M-71.2,135.4c0.5,0,0.9,0.4,0.9,0.9s-0.4,0.9-0.9,0.9s-0.9-0.4-0.9-0.9C-72.1,135.8-71.7,135.4-71.2,135.4     "
   style="fill:#ffffff" />
		</g>
		<g
   id="g3179"
   transform="translate(80.8801,811.6996)"
   style="fill:#ffffff">
			<path
   id="path3181"
   d="M-75.4,136.7c0.5,0,0.9,0.4,0.9,0.9s-0.4,0.9-0.9,0.9s-0.9-0.4-0.9-0.9C-76.3,137.1-75.9,136.7-75.4,136.7     "
   style="fill:#ffffff" />
		</g>
		<g
   id="g3183"
   transform="translate(80.1244,811.4808)"
   style="fill:#ffffff">
			<path
   id="path3185"
   d="M-76.8,136.3c0.5,0,0.9,0.4,0.9,0.9s-0.4,0.9-0.9,0.9s-0.9-0.4-0.9-0.9C-77.7,136.7-77.3,136.3-76.8,136.3     "
   style="fill:#ffffff" />
		</g>
		<g
   id="g3187"
   transform="translate(79.1082,811.4523)"
   style="fill:#ffffff">
			<path
   id="path3189"
   d="M-78.8,136.3c0-0.5,0.4-0.9,0.9-0.9s0.9,0.4,0.9,0.9s-0.4,0.9-0.9,0.9S-78.8,136.8-78.8,136.3"
   style="fill:#ffffff" />
		</g>
		<g
   id="g3191"
   transform="translate(77.9948,809.8021)"
   style="fill:#ffffff">
			<path
   id="path3193"
   d="M-80.9,133.1h1v3.8c-0.4,0.1-0.7,0.2-1,0.3V133.1z"
   style="fill:#ffffff" />
		</g>
		<g
   id="g3195"
   transform="translate(79.0367,811.2139)"
   style="fill:#ffffff">
			<path
   id="path3197"
   d="M-78.9,135.8c-0.3-0.1-0.6-0.3-1-0.3v-3.8h1V135.8z"
   style="fill:#ffffff" />
		</g>
		<g
   id="g3199"
   transform="translate(78.3197,812.6555)"
   style="fill:#ffffff">
			<path
   id="path3201"
   d="M-80.3,138.6v2.3c-1.1-0.2-2-1.1-2.2-2.3H-80.3z"
   style="fill:#ffffff" />
		</g>
		<g
   id="g3203"
   transform="translate(78.7158,812.6555)"
   style="fill:#ffffff">
			<path
   id="path3205"
   d="M-79.6,138.6h2.2c-0.2,1.1-1.1,2-2.2,2.3V138.6z"
   style="fill:#ffffff" />
		</g>
		<g
   id="g3207"
   transform="translate(77.5795,812.2815)"
   style="fill:#ffffff">
			<path
   id="path3209"
   d="M-81.7,137.9c0.3-1.3,1.4-2.2,2.7-2.2c1.3,0,2.5,0.9,2.7,2.2H-81.7z"
   style="fill:#ffffff" />
		</g>
		<g
   id="g3211"
   transform="translate(79.0405,813.5522)"
   style="fill:#ffffff">
			<path
   id="path3213"
   d="M-78.9,140.3c-0.6,0.5-1.1,1.2-1.2,2c0.7-0.1,1.5-0.7,2-1.3v3.1c-0.5-0.6-1.3-1.2-2-1.3     c0.1,0.7,0.5,1.4,1.2,2.2h-3c0.6-0.8,1.1-1.5,1.2-2.2c-0.7,0.1-1.5,0.7-2,1.3V141c0.5,0.6,1.3,1.2,2,1.3c-0.1-0.8-0.6-1.5-1.2-2     H-78.9z"
   style="fill:#ffffff" />
		</g>
		<g
   id="g3215"
   transform="translate(80.1627,792.6023)"
   style="fill:#ffffff">
			<path
   id="path3217"
   d="M-76.8,99.9c-2.8,0.7-6.2,1.9-9.3,3.3l0,0c0.1,0.6-0.1,1.3-0.6,1.9s-1.1,0.9-1.8,0.9     c-0.3,0-0.6-0.1-0.9-0.2c-0.5,0.4-0.9,0.8-1.3,1.3c-1.2,1.4-2.1,3-2.8,4.8c-0.4,1-0.6,2.1-0.8,3.2c-0.1-0.9-1.2-2.1-2.9-2.1     c0,0.2,0,0.6-0.2,0.7c-0.5-0.5-1.2-1.1-2.7-0.5c0.2-1.2,0.6-2.5,1-3.6c0.9-2.5,2.3-4.8,4-6.8c0.6-0.6,1.2-1.2,1.8-1.8     c0-0.1,0-0.2,0-0.4c0-0.7,0.6-1.7,1.5-2.2c0.7-0.4,1.6-0.3,2.3,0.3c1.4-0.7,3.1-1.4,5-1.9c2.1-0.6,4.1-0.9,5.7-0.9     c1.4,0,3.2,0.6,5,1.8c0.7,0.5,1.4,1,1.9,1.4c0.1,0.1,0.1,0.1,0.2,0.2C-73,99.1-75,99.5-76.8,99.9 M-87.1,104.2l-0.3,0.2     c-0.5,0.4-1,0.4-1.5,0c-0.2-0.2-0.4-0.4-0.6-0.7l-0.3-0.3l0.2-0.2c0.6-0.5,0.7-1,0.5-1.3c-0.1-0.1-0.2-0.2-0.3-0.2     c-0.3-0.1-0.7,0-1.1,0.3l-0.2,0.1l-0.1-0.2c0-0.1-0.1-0.1-0.1-0.2s-0.1-0.1-0.2-0.2c-0.2-0.4-0.4-0.8-0.4-1c0-0.1,0-0.1,0-0.2     c0.1-0.3,0.3-0.5,0.6-0.6l0.1-0.1c0.3-0.2,0.6-0.4,0.9-0.5c-0.5-0.3-1-0.3-1.5-0.1c-0.8,0.4-1.3,1.3-1.3,1.7     c0,0.7,0.3,1.5,0.8,2.4l0.1,0.1l-0.1,0.1c-0.2,0.3-0.3,0.5-0.4,0.8c0.3,0,0.6-0.1,0.9-0.2h0.1l0.1,0.1c0.3,0.4,1.5,1.6,2.6,1.6     c0.5,0,1-0.3,1.4-0.7c0.3-0.3,0.5-0.7,0.5-1.1C-86.7,103.9-86.9,104-87.1,104.2 M-85.2,98.8c-0.7,0-1.2,0.5-1.2,1.2     s0.5,1.2,1.2,1.2s1.2-0.5,1.2-1.2S-84.6,98.8-85.2,98.8 M-80,97.2c-0.6,0-1.1,0.5-1.1,1.1s0.5,1.1,1.1,1.1s1.1-0.5,1.1-1.1     S-79.4,97.2-80,97.2"
   style="fill:#ffffff" />
		</g>
		<g
   id="g3219"
   transform="translate(79.5636,789.7679)"
   style="fill:#ffffff">
			<path
   id="path3221"
   d="M-77.9,94.5c-0.2,0-0.4,0-0.6-0.1v3.4c-1.5,0-3.2,0.3-4.9,0.7v-4.1c-0.2,0.1-0.4,0.1-0.6,0.1     c-1.2,0-1.9-1-1.9-1.9s0.5-1.7,1-2.2c0.2,0.5,0.4,0.9,0.7,0.9c0.6,0,0.3-2.9,2-3c-0.1-0.1-0.1-0.3-0.1-0.5c0-0.7,0.6-1.3,1.3-1.3     s1.3,0.6,1.3,1.3c0,0.2,0,0.3-0.1,0.5c1.7,0.1,1.4,3,2,3c0.3,0,0.5-0.4,0.7-0.9c0.4,0.5,0.9,1.3,0.9,2.2     C-76,93.5-76.7,94.5-77.9,94.5 M-81,87.1c-0.4,0-0.7,0.3-0.7,0.7c0,0.4,0.3,0.7,0.7,0.7s0.7-0.3,0.7-0.7     C-80.2,87.5-80.5,87.1-81,87.1 M-77,91.4c-0.2,0.4-0.5,0.6-0.8,0.6c-1.2,0-0.7-3-2.1-3c-0.6,0-0.9,0.4-0.9,0.8s0.3,0.6,0.3,0.9     s-0.3,0.5-0.6,0.5c-0.3,0-0.6-0.1-0.6-0.5c0-0.3,0.3-0.5,0.3-0.9s-0.3-0.8-0.9-0.8c-1.4,0-0.9,3-2.1,3c-0.3,0-0.6-0.2-0.8-0.6     c-0.2,0.4-0.4,0.9-0.4,1.2c0,0.6,0.4,1.3,1.3,1.3c1.5,0,1.2-2.1,1.9-2.1c0.3,0,0.6,0.2,0.6,0.5c0,0.6-1.1,1.2-1.1,2     s0.8,1.6,1.6,2.3c0.9-0.7,1.6-1.4,1.6-2.3s-1.1-1.4-1.1-2c0-0.3,0.2-0.5,0.6-0.5c0.7,0,0.4,2.1,1.9,2.1c0.9,0,1.3-0.8,1.3-1.3     C-76.6,92.3-76.7,91.8-77,91.4"
   style="fill:#ffffff" />
		</g>
		<g
   id="g3223"
   transform="translate(93.0506,788.3863)"
   style="fill:#ffffff">
			<path
   id="path3225"
   d="M-51.9,91.8c-0.1,0.2-0.3,0.3-0.4,0.2c-3.9-1.1-8.8,2.1-13.5,5.3c-4,2.6-7.7,5.1-10.9,5.1     c-1.2,0-2.2-0.3-3.2-0.7c-1.1-0.6-2-1.6-2.5-2.9s-1.1-2.2-1.6-2.9c-0.5-0.9-0.9-1.5-0.9-2.3c0-0.6,0.3-1.2,0.8-1.8     c0.5-0.5,1.1-0.9,2.1-1.4c0.2-0.1,0.4-0.2,0.6-0.3c0.8-0.4,1.3-0.6,1.4-1.1c-1.6-0.7-3.6-1.3-5.9-1.7c-2.6-0.5-5.4-0.7-8.4-0.7     s-5.8,0.2-8.4,0.7c-2.3,0.4-4.3,1-5.9,1.7c0.1,0.7,0.5,0.9,1.4,1.3c0.2,0.1,0.4,0.2,0.6,0.3c0.8,0.4,1.5,0.8,2,1.3     c0.6,0.5,0.8,1,0.8,1.7c0,0.8-0.4,1.4-0.9,2.3c-0.5,0.7-1,1.6-1.6,2.9c-0.5,1.3-1.4,2.3-2.5,2.9c-0.9,0.5-2,0.7-3.1,0.7     c-3.2,0-7-2.5-11-5.2c-4.7-3.1-9.6-6.4-13.5-5.3c-0.2,0.1-0.4,0-0.4-0.2c-0.1-0.2,0-0.4,0.2-0.5c1.2-0.5,2.3-1.4,3.3-2.1     c1.4-1.1,2.8-2.2,4.2-2.2c1.4,0,2.9,0.4,4.7,1.4c1.6,0.8,3.2,1.9,4.8,3c3.1,2.1,6.3,4.3,9.4,4.6c-0.3-0.3-0.6-0.6-0.9-0.9     c-0.9-0.8-1.7-1.5-1.7-2.9c0-1.1,0.4-1.9,0.9-3c0.2-0.3,0.3-0.7,0.5-1.1c0.3-0.8,0.5-1.4,0.7-2.2c0.1-0.4,0.2-0.8,0.3-1.2     c0.2-0.7,0.6-2.1,2.8-3.2c2.6-1.3,7.1-2,13.3-2c6.2,0,10.7,0.7,13.3,2c2.2,1.1,2.6,2.5,2.8,3.2c0.1,0.5,0.2,0.9,0.3,1.2     c0.2,0.8,0.3,1.4,0.7,2.2c0.2,0.6,0.5,1,0.7,1.4c0.5,0.9,0.8,1.6,0.8,2.6c0,1.4-0.8,2.1-1.8,3c-0.3,0.3-0.6,0.6-1,0.9     c3.1-0.2,6.3-2.4,9.4-4.6c1.6-1.1,3.2-2.2,4.8-3c1.8-1,3.3-1.4,4.7-1.4c1.5,0,2.8,1,4.2,2.2c1,0.8,2.1,1.6,3.3,2.1     C-52,91.4-51.9,91.6-51.9,91.8"
   style="fill:#ffffff" />
		</g>
		<g
   id="g3227"
   transform="translate(84.9701,799.1515)"
   style="fill:#ffffff">
			<path
   id="path3229"
   d="M-67.5,112.6c-0.4,0.3-1.1,1-1.5,1.8c-0.5,1-2.4,4.8-2.7,5.3c-0.3,0.4-0.4,0.8-0.4,1.1     c0,0.4,0.2,0.7,0.4,1c0.2,0.2,0.6,0.6,0.7,0.9c0.1,0.2,0.2,0.3,0.3,0.5c-0.7,1.2-1.4,2.2-2.4,3.2c-1.1,1.3-2.4,2.4-3.8,3.3     c0.7,0.5,1.5,1.2,1.5,2.4c0,0.7-0.3,1.2-0.8,1.7c0.8,2.5,2.2,5.6,3.4,6.9l-2.5,1.1c0.7-1,0.7-2.2,0.6-2.9     c-0.7,0.5-1.2,1.1-1.4,1.9c-0.1-0.8-0.5-2-0.9-2.7c0.7,0.3,1.3,0.5,2.1,0.2c-0.4-0.6-1.5-1.5-3.2-1.1c-0.9,0.2-1.8,0.7-1.8,1.4     c0,0.4,0.3,0.9,0.9,0.9c0.6-0.1,0.6-0.9,0.4-1.3c0.7,0.4,1.5,2.5,0.3,2.8c-0.9,0.2-1.7-1-2-1.9c-0.2,1.1-0.6,2.2-1.5,2.2     c-1.2-0.1-0.8-2.2-0.4-2.8c0.1,0.8,0.5,1.2,0.8,1.1c0.3,0,0.7-0.2,0.6-0.9s-1-1.1-2.2-1.1c-1.1,0-2.9,0.3-3.1,2.4     c0.7-0.1,1.8-0.7,2.2-1.3c-0.1,1.2-0.1,2.1,0,3.4c-0.6-0.8-1.5-1.2-2.2-1.3c0.2,0.9,1,1.8,1.8,2.4h-4.6c0.9-0.6,1.6-1.5,1.8-2.4     c-0.7,0.1-1.6,0.5-2.2,1.3c0.1-1.3,0.1-2.2,0-3.4c0.5,0.7,1.5,1.2,2.2,1.3c-0.2-2.1-2.1-2.4-3.1-2.4c-1.1,0-2.1,0.4-2.2,1.1     c-0.1,0.7,0.3,0.9,0.7,0.9c0.3,0,0.8-0.4,0.8-1.1c0.4,0.5,0.8,2.7-0.4,2.8c-0.9,0.1-1.4-1-1.5-2.2c-0.3,0.9-1.1,2.2-2,1.9     c-1.1-0.3-0.4-2.4,0.3-2.8c-0.2,0.4-0.1,1.2,0.4,1.3c0.6,0.1,0.9-0.4,0.9-0.9c0-0.7-0.9-1.2-1.8-1.4c-1.7-0.4-2.7,0.5-3.2,1.1     c0.8,0.3,1.3,0.2,2.1-0.2c-0.4,0.7-0.8,2-0.9,2.7c-0.2-0.8-0.8-1.5-1.4-1.9c-0.1,0.7-0.1,1.9,0.6,2.9l-2.5-1.1     c1.2-1.3,2.6-4.4,3.4-6.9c-0.5-0.4-0.8-1-0.8-1.6c0-1.2,0.8-1.9,1.5-2.4c-1.4-0.9-2.7-2-3.8-3.3c-1.7-1.9-3.1-4.2-4-6.7     c0.4-0.4,1.9-2,2.2-2.5c0.6-0.8,1-1.6,1-2.2c0-1.1,0.3-1.6,0.9-2.4c0.2-0.2,0.5-1.1,0.5-1.7h12.6V97.2c-0.5,0-1-0.2-1.4-0.7     c1.5-0.6,2.8-1.1,4.2-1.5c0.1,0.9,0.3,1.4,0.8,2c0,0-1.8,0.2-2.8,0.2v13.7h12.3c0-1.9-0.4-3.7-1-5.4c-0.6-1.8-1.6-3.4-2.8-4.8     c-1.2-1.4-2.5-2.5-4.1-3.2c-0.2-0.1-0.2-0.3-0.5-0.4c-0.2-0.2-0.4-0.6-0.6-1.1c-0.2-0.4-0.2-0.7-0.3-1.2c0.6-0.2,0.9-0.3,1.4-0.4     c4.3-1.1,5.4-0.8,5.6-0.6l0,0c1,0.7,1.9,1.6,2.7,2.5c1.7,2,3.1,4.2,4,6.8c1,2.6,1.5,5.4,1.5,8.3C-67.5,111.9-67.5,112-67.5,112.6      M-86.6,111.6h-12.6c0,1.9,0.4,3.8,1,5.6c0.6,1.8,1.6,3.4,2.8,4.8c1.2,1.4,2.6,2.5,4.1,3.2c1.5,0.7,3.1,1.1,4.7,1.2     C-86.6,126.4-86.6,111.6-86.6,111.6z M-86.4,132.6c-4.2,0-7.1-1.2-8.8-2.4c-1,0.6-1.4,1.1-1.4,1.8c0,2.4,6.7,2.6,10.1,2.6l0,0     l0,0c3.4,0,10.1-0.2,10.1-2.6c0-0.7-0.4-1.2-1.4-1.8C-79.3,131.3-82.2,132.6-86.4,132.6 M-85.8,111.6v14.8c1.5-0.1,3-0.4,4.4-1.1     c1.5-0.8,2.9-1.8,4.1-3.2c1.2-1.4,2.1-3,2.8-4.8c0.6-1.8,1-3.7,1-5.6C-73.6,111.6-85.8,111.6-85.8,111.6z"
   style="fill:#ffffff" />
		</g>
		<g
   id="g3231"
   transform="translate(82.2329,799.6543)"
   style="fill:#ffffff">
			<path
   id="path3233"
   d="M-72.8,113.5c0.2-0.1,0.1-0.5-0.1-0.4c-0.3,2.2-1.1,4.4-2.4,6.2l0,0c0.2,0.1,0.5,0.3,0.5,0.6     c-0.4,0-0.6-0.1-0.8-0.3c-0.1,0.1-0.2,0.2-0.3,0.3c-0.8,1-1.7,1.8-2.7,2.5c-0.9,0.6-1.9,1.1-3,1.4c0,0.2,0.3,0.3,0.5,0.1     c0,0.4-0.3,0.6-0.5,0.5c-0.1,0-0.2-0.1-0.2-0.3c-0.1,0.1-0.3,0.3-0.6,0.3c0-0.3,0.1-0.4,0.2-0.6c-0.2,0-0.3-0.1-0.3-0.2     c-0.1-0.2,0-0.5,0.4-0.6c-0.2,0.2-0.1,0.5,0.1,0.4v-4.8c-0.2,0.1-0.5,0-0.8-0.2c0.3-0.3,0.6-0.3,0.8-0.2V113     c-0.3,0-0.3,0.3-0.1,0.4c-0.4,0-0.6-0.4-0.5-0.5s0.2-0.2,0.4-0.2c-0.1-0.1-0.2-0.3-0.2-0.6c0.2,0,0.4,0.1,0.5,0.2     c0-0.2,0.1-0.3,0.2-0.4c0.2-0.1,0.5,0.1,0.5,0.5c-0.1-0.2-0.5-0.1-0.5,0.1h3.6c-0.1-0.2,0-0.5,0.2-0.8c0.2,0.3,0.3,0.6,0.2,0.8h4     c0-0.3-0.3-0.3-0.4-0.1c0-0.4,0.4-0.5,0.5-0.5c0.1,0.1,0.2,0.2,0.2,0.4c0.1-0.1,0.3-0.2,0.6-0.2c0,0.2-0.1,0.4-0.2,0.5     c0.2,0,0.3,0.1,0.4,0.2C-72.2,113.2-72.4,113.5-72.8,113.5 M-76.2,119.9c-0.1-0.1-0.2-0.2-0.1-0.3c0-0.1,0.1-0.2,0.4-0.2     c-0.1-0.1-0.2-0.3-0.3-0.5c0.2,0,0.4,0,0.6,0.1c0-0.2,0-0.3,0.1-0.4s0.2-0.1,0.3,0c0.9-1.5,1.6-3.2,1.8-5     c-0.1,0.1-0.3,0.1-0.5,0.1c0-0.3,0.1-0.4,0.2-0.6h-3.1c0,0.2-0.1,0.4-0.2,0.4s-0.3,0-0.4-0.1c0,0.2-0.1,0.4-0.2,0.5     c-0.2-0.2-0.2-0.4-0.2-0.5c-0.1,0.2-0.3,0.2-0.4,0.1c-0.1,0-0.2-0.2-0.2-0.4H-81c0.1,0.1,0.2,0.3,0.2,0.5c-0.2,0-0.4-0.1-0.5-0.2     v4.2c0.2,0,0.4,0.1,0.4,0.2s0,0.3-0.1,0.4c0.2,0,0.4,0.1,0.5,0.2c-0.2,0.2-0.4,0.2-0.5,0.2c0.2,0.1,0.2,0.3,0.1,0.4     c0,0.1-0.2,0.2-0.4,0.2v3.6c0.1-0.1,0.3-0.2,0.5-0.2c0,0.2,0,0.4-0.1,0.5c0.8-0.3,1.6-0.7,2.4-1.2     C-77.8,121.5-77,120.8-76.2,119.9"
   style="fill:#ffffff" />
		</g>
		<g
   id="g3235"
   transform="translate(81.4982,800.1064)"
   style="fill:#ffffff">
			<path
   id="path3237"
   d="M-74.2,114.4c0.2,0.1,0.3,0.2,0.3,0.3c-0.2-0.1-0.3,0-0.3,0c0.1,0.1,0.3,0,0.1,0.2     c-0.1,0.2-0.2,0.2-0.4,0.1c-0.1-0.2-1.1,0-1.1,0.8c0.1-0.1,0.2-0.2,0.3-0.3c0,0,0.1,0,0.1-0.1h0.1c0.1,0,0.2,0,0.3,0     c0,0,0,0,0.1,0l0,0c0.2,0,0.4,0.2,0.4,0.4c0,0.4-0.3,0.6-0.8,0.9c-0.2,0.1-0.3,0.3-0.4,0.4c-0.1,0.3,0,0.6-0.4,1.1     c0,0.1,0,0.3-0.1,0.5c-0.2-0.3-0.3-1,0.2-1.5c0.4-0.5,1.3-0.9,1.2-1.3c0-0.1-0.1-0.2-0.2-0.2h-0.1c0,0,0,0-0.1,0s-0.1,0-0.2,0.1     s-0.2,0.1-0.3,0.2c-0.4,0.3-0.7,0.8-0.9,1.1c-0.4,0.5-0.2,1-0.2,1.4c0.3,0.4-0.2,1.2-0.4,1.4c0,0,0.1,0.2,0,0.4     c-0.1,0-0.2,0-0.2,0c-0.1,0.1-0.1,0.2-0.2,0.2c-0.2,0-0.2,0.1-0.2,0.2c-0.1-0.1-0.1-0.2-0.2-0.2s-0.2,0-0.3,0     c-0.1-0.1-0.1-0.1-0.3-0.1c-0.2,0-0.2-0.1-0.1-0.2c0-0.1,0-0.2,0.1-0.2l0,0l0.1-0.2l0.1,0.2c0.1,0.1,0.3,0.1,0.3-0.1     c0-0.1,0-0.1-0.1-0.2c-0.1,0-0.2,0-0.4,0c-0.1,0-0.1-0.1-0.1-0.2s0.1-0.1,0.3-0.1c0.2,0,0.5,0.1,0.5-0.1c0-0.4-0.5-0.4-0.6-0.9     c-0.1,0.1-0.2,0.2-0.3,0.3c-0.1,0.1-0.2,0.3-0.4,0.5c-0.1,0.1-0.2,0.2-0.4,0.3c-0.2,0.1-0.2,0.2-0.2,0.4c0,0.2,0.1,0.3,0.1,0.4     v0.1c0,0.1-0.2,0.2-0.2,0.1c0,0,0.1-0.1,0.1-0.2l-0.1-0.1v-0.1l0,0c0,0,0,0,0-0.1l0,0c0,0.1-0.1,0.3-0.2,0.3c0,0,0,0-0.1,0l0,0     c0,0.1-0.1,0.2-0.3,0.1h0.1v-0.1c0-0.1,0.1-0.2,0.2-0.2l0,0l0,0l0,0c-0.2,0.1-0.3,0-0.3-0.1v-0.1c-0.1,0-0.1-0.2,0-0.2v0.1l0,0     c0,0,0,0,0.1-0.1c0,0,0,0,0.1,0l0,0c0,0,0,0,0.1,0l0,0c-0.1-0.1-0.1-0.2,0-0.3c-0.1-0.1-0.3-0.1-0.3,0.1     c-0.2-0.3,0.1-0.5,0.3-0.4c0-0.1,0-0.3,0-0.3s0,0.1,0.1,0.1l0,0c0-0.1,0-0.1,0.1-0.2v0.1c0-0.1,0.1-0.1,0.1-0.2     c0.1-0.2,0.3-0.7,0.9-0.9c-0.3-0.2-0.4-0.4-0.6-0.6c-0.1-0.1-0.4-0.3-0.5-0.2c-0.1,0-0.1,0.1-0.2,0.2c-0.1,0-0.1,0.1-0.2,0h-0.1     c-0.1,0-0.2,0-0.3-0.1c0.1,0,0.1,0,0.2,0v-0.1c0-0.1,0-0.1,0.3-0.1l0,0c0,0-0.1-0.1-0.1,0c-0.1,0-0.2,0.1-0.3,0c0,0,0,0-0.1-0.1     l0,0c-0.1,0-0.2-0.2-0.1-0.3c0,0,0,0.1,0.1,0.2c0,0,0-0.1,0.1-0.1c0.1-0.1,0.2-0.2,0.3,0.1l0,0c0-0.1-0.1-0.3,0-0.3     c0,0,0,0,0.1,0l0,0c0-0.1,0.2-0.2,0.3-0.1c-0.1,0-0.1,0.1-0.2,0.2h0.1c0.1,0.1,0,0.2,0,0.3l0,0c0-0.1,0.1-0.2,0.3-0.1     c0.1,0,0.1,0.1,0.1,0.2c0.2,0.1,0.3,0.1,0.5,0.1c0,0.1,0.1,0.2,0.3,0.3c0.2,0.1,0.3,0,0.3-0.1c0,0.1,0.1,0.2,0.2,0.3     c0-0.8,1-0.7,1.3-1.2c-0.3,0.1-0.7,0.2-0.8,0.2c-0.3,0-0.7-0.3-0.7-0.6c0-0.2,0.2-0.7,0.4-0.8c-0.3-0.1-0.4,0-0.7,0l0,0     c-0.2,0-0.3,0.4-0.5,0.3c0,0-0.1,0-0.1-0.1l0,0c-0.1,0-0.3-0.1-0.2-0.2c0,0,0.1,0.1,0.2,0.1V115c0,0,0-0.1,0.1-0.1s0.1,0,0.1,0     l0,0c0-0.1-0.3,0.1-0.3-0.2c0,0,0-0.1,0.1-0.1c0-0.1,0.1-0.2,0.2-0.1l-0.1,0.1h0.1l0,0l0,0l0,0c0,0,0,0,0-0.1v-0.1     c0-0.1,0.1-0.2,0.3-0.1c0,0-0.1,0-0.1,0.1h0.1v0.1l0,0h0.1l0,0c0-0.1,0.1-0.1,0.2-0.1s0.1,0.1,0.1,0.1s0.1,0,0.1-0.1     c0,0.1,0,0.2,0.3,0l0.2,0.1c0,0,0.2-0.1,0.3,0c0.1,0.1,0.1,0.1,0.1,0.3c-0.1,0.2-0.2,0.2-0.2,0.4c-0.1,0.4,0.5,0.6,0.8,0.5     c0.1-0.2,0.4-0.9,1-1.1c0.4-0.1,0.5,0.3,0.6,0.2c0,0,0,0,0.1-0.1c0-0.2,0-0.3,0-0.4s-0.2,0-0.4,0c-0.1,0-0.1,0-0.1-0.1     c-0.1,0-0.2-0.1-0.2-0.2c0,0,0.1,0.1,0.2,0.1c0,0,0,0,0-0.1s0.2-0.2,0.3-0.1c0,0,0.1,0,0,0c-0.1-0.1-0.2-0.2-0.1-0.3     c0,0,0,0,0.1,0c0-0.1,0.1-0.2,0.1-0.2s0,0.1,0,0.2h0.1c0.1,0,0.1,0.2,0.2,0.2l0,0c0-0.1-0.1-0.2,0-0.3c0,0,0,0,0.1,0     c0-0.1,0.1-0.1,0.3-0.1c0,0-0.1,0-0.1,0.1l0.1,0.1c0.1,0.2-0.1,0.2-0.1,0.3c0,0.1,0.2,0,0.2,0.3l0,0     C-74.4,114.3-74.3,114.3-74.2,114.4C-74,114.3-74.2,114.4-74.2,114.4L-74.2,114.4z"
   style="fill:#ffffff" />
		</g>
		<g
   id="g3239"
   transform="translate(77.9625,797.7405)"
   style="fill:#ffffff">
			<path
   id="path3241"
   d="M-81,109.8h-0.2v0.2c0,0.7-0.4,1.3-1.2,1.3c-0.7,0-2.1-0.9-4-0.9c-0.8,0-1.8,0.4-2.4,0.7l-0.2-0.6     c0,0,0,0,0,0.1c0,0.3-0.2,0.5-0.5,0.5c-0.3,0-0.5-0.2-0.5-0.5s0.2-0.5,0.5-0.5c0.1,0,0.3,0.1,0.4,0.2l-0.2-0.6     c0.1,0,0.2-0.1,0.2-0.1c-0.3-2.9,1.9-6.6,5.6-7.7c0.6,0.1,1.1,0.1,1.1-0.5c0-0.4-0.2-0.5-0.5-0.5c-0.2,0-0.4,0.1-0.4,0.3     c0,0.3,0.4,0.1,0.5,0.3c0.1,0.2-0.1,0.3-0.4,0.3s-0.7-0.2-0.7-0.6c0-0.5,0.4-0.8,0.9-0.8c0.4,0,1.3,0.2,1.2,1.3     c0.2,0,0.4,0,0.5,0.2v0.6h-0.2l0.2,6.6h0.1c0.2,0,0.5,0.1,0.5,0.4C-80.6,109.7-80.8,109.8-81,109.8 M-87.8,109.3l4.6-6.6     C-85.7,103.7-88.1,105.9-87.8,109.3 M-83.1,103.4l-4.2,6c0.1,0,0.3,0,0.4,0c0.2,0,0.4,0,0.6,0l3.4-4.8     C-83,104.1-83.1,103.7-83.1,103.4 M-82.8,105.3l-3,4.2c0.3,0.1,0.6,0.2,0.9,0.3l2.2-3.2C-82.7,106.2-82.7,105.7-82.8,105.3      M-82.1,109.9h-0.2c-0.2,0-0.4-0.1-0.5-0.3c0-0.3,0.2-0.4,0.4-0.4h0.1c0-0.1,0-0.1,0-0.2c-0.1-0.4-0.2-1-0.3-1.7l-1.9,2.7     c0.9,0.3,1.6,0.7,2,0.7S-82,110.5-82.1,109.9"
   style="fill:#ffffff" />
		</g>
		<g
   id="g3243"
   transform="translate(77.6883,802.3008)"
   style="fill:#ffffff">
			<path
   id="path3245"
   d="M-81.5,118.6c0.9,0,1.3,0.3,1.3,0.6c0,1-2.5,0.4-2.5,1c0,0.1,0.1,0.2,0.2,0.3l0,0c1.2,0.1,1.3,1,2.1,1.1     c-1.1,0.2-1.2-0.7-1.7-0.7c0.2,0.1,0.3,0.4,0.3,0.5c-0.2-0.3-0.7-0.3-1-0.6c0-0.1-0.1-0.1,0-0.2c-0.2-0.1-0.3-0.2-0.3-0.4     c0-0.9,2.5-0.3,2.5-1c0-0.2-0.4-0.4-1.1-0.4c-0.5,0-0.9,0.4-1.8,0.1c0,0.2,0.3,0.5,0.2,0.6c0.1,0,0.2,0.1,0.2,0.2     c-0.1,0.1-0.1,0.1-0.2,0.1v0.1c0,0,0,0.1-0.1,0.1c0,0-0.1,0.1-0.2,0.1c-0.1,0.1-0.2,0.1-0.2,0.1h-0.1c-0.1,0-0.1,0-0.1-0.1     c0,0-0.1,0.1-0.2,0.1c0-0.1-0.1-0.1,0-0.3c-0.1,0-0.2-0.2-0.3-0.2c0-0.1,0.1-0.1,0.1-0.1c-0.1-0.1-0.1-0.3-0.2-0.3     c0,0,0-0.1,0.1-0.1c-0.1-0.2-0.1-0.4-0.1-0.6l0,0c-0.1,0.1-0.1,0.1-0.2,0.2s-0.1,0.2-0.1,0.3c0,0.1,0.1,0.2,0.1,0.3v0.1     c0,0.1-0.1,0.1-0.2,0.1l0.1-0.1l-0.1-0.1c0,0-0.1-0.1,0-0.1l0,0c0,0,0,0,0-0.1l0,0c0,0.1,0,0.2-0.1,0.2h-0.1l0,0     c0,0.1-0.1,0.2-0.2,0.1h0.1v-0.1c0-0.1,0-0.1,0.2-0.1l0,0l0,0l0,0c-0.2,0.1-0.3,0-0.3-0.1c0,0,0,0,0-0.1c-0.1,0-0.1-0.1,0-0.2     c0,0,0,0.1,0.1,0.1l0,0l0,0c0,0,0,0,0.1,0l0,0l0,0l0,0c-0.1-0.1-0.1-0.2,0-0.2l0,0c0-0.2-0.3-0.2-0.3,0c-0.2-0.2,0.1-0.4,0.3-0.3     l0,0c0,0,0-0.1,0.1-0.1c0,0,0,0,0.1,0l0,0c0,0,0-0.1,0.1-0.1v0.1c0,0,0.1-0.2,0.2-0.3c-0.2-0.1-0.5-0.2-0.6-0.2c0,0-0.3,0-0.4,0     c-0.1-0.1-0.5-0.2-0.6-0.1c0,0,0,0.1-0.1,0.2l-0.1,0.1h-0.1c-0.1,0.1-0.2,0.1-0.2,0c0,0,0.1,0,0.1-0.1v-0.1c0,0,0-0.1,0.2-0.2     l0,0h-0.1c-0.1,0.1-0.1,0.2-0.2,0.1c0,0,0,0-0.1,0l0,0c-0.1,0-0.2-0.1-0.2-0.2c0,0,0,0.1,0.1,0.1v-0.1c0-0.1,0.1-0.2,0.3,0l0,0     c-0.1-0.1-0.2-0.2-0.1-0.3c0,0,0,0,0.1,0l0,0c0-0.1,0.1-0.2,0.2-0.2c0,0-0.1,0.1-0.1,0.2h0.1c0.1,0,0.1,0.2,0.1,0.2l0,0     c0-0.1,0-0.2,0.2-0.2c0.1,0,0.2,0.1,0.2,0.2l0,0l0.1-0.1c0,0,0.1,0,0.1,0.1c0-0.1,0-0.1,0-0.2c0,0,0.2,0.1,0.2,0.2c0,0,0,0,0-0.1     l0,0c0.1,0,0.1,0,0.3,0l0,0c0-0.1,0-0.1,0-0.1v0.1c0,0,0-0.1,0.1-0.2c0,0.3,0.2,0.2,0.4,0.3l0,0c0,0,0-0.1-0.1-0.1     c0.1,0,0.3,0.1,0.3,0.2l0.1,0.1c0.1,0,0.2,0,0.2,0.1c0,0,0-0.1,0-0.2c0.2,0,0.4,0.2,0.5,0.3c0.5,0.1-0.3,0.4,0.7,0.4     c0.1,0,0.2,0,0.3,0.1c-0.1-0.1-0.1-0.4,0.1-0.5c0.1,0,0.2-0.1,0.2-0.1l0,0c-0.1,0-0.2,0-0.2-0.1c-0.2-0.1-0.2,0.3-0.5,0.2     c0,0,0,0-0.1,0s-0.2-0.1-0.2-0.2c0,0,0.1,0.1,0.2,0.1l0,0c0,0,0-0.1,0.1-0.1h0.1l0,0c0-0.1-0.3,0-0.2-0.2v-0.1     c0-0.1,0.1-0.2,0.2-0.1c0,0-0.1,0-0.1,0.1c0,0,0,0,0.1,0l0,0l0,0l0,0c0,0,0,0,0-0.1v-0.1c0-0.1,0.1-0.2,0.3-0.1     c0,0-0.1,0-0.1,0.1h0.1c0,0,0,0,0,0.1l0,0c0,0,0,0,0.1,0l0,0c0-0.1,0.1-0.1,0.2-0.1c0.2,0.1,0,0.2,0.2,0.2h0.1c0.1,0,0.3,0,0.3,0     c0,0.1,0,0.3-0.1,0.4c-0.1,0,0,0.1-0.1,0.3c0.1-0.1,0.3-0.1,0.5-0.1c0.3,0,0,0.1,0.2,0.1c0.2,0.1,0.4,0.1,0.4,0     c0,0,0.1,0,0.1-0.1c0-0.2,0-0.2,0-0.3c0-0.1-0.2,0-0.3,0c-0.1,0-0.1,0-0.1,0c-0.1,0-0.2-0.1-0.2-0.2c0,0,0.1,0.1,0.2,0.1l0,0     c0-0.1,0.1-0.2,0.2-0.1l0,0c-0.1-0.1-0.2-0.2-0.1-0.2c0,0,0,0,0.1,0c0-0.1,0-0.2,0.1-0.2v0.1h0.1c0.1,0,0,0.1,0.1,0.2l0,0     c0-0.1,0-0.2,0-0.2s0,0,0.1,0c0-0.1,0.1-0.1,0.2-0.1c0,0-0.1,0-0.1,0.1l0.1,0.1c0,0.2-0.1,0.2-0.1,0.3c0,0.1,0.2,0,0.2,0.2     c0,0,0,0.1-0.1,0.1l0,0l0,0c0,0,0.1,0,0.1,0.1c-0.1,0-0.1,0.1-0.1,0.2l0,0c0,0,0.1,0.1,0.1,0.2c0-0.1-0.2-0.1-0.2,0     c0,0,0,0.1-0.1,0.1C-81,118.4-81.1,118.6-81.5,118.6C-81.6,118.6-81.6,118.6-81.5,118.6 M-84.3,119.6L-84.3,119.6L-84.3,119.6      M-83.6,119.8c0,0,0.2-0.1,0.3-0.1c-0.1,0-0.1-0.1-0.2-0.1C-83.6,119.6-83.6,119.7-83.6,119.8 M-83.8,119.9     c0-0.1-0.1-0.1-0.2-0.1c-0.1,0.1,0,0.1-0.1,0.2C-84,120-83.8,119.9-83.8,119.9 M-84.1,119.3C-84.1,119.3-84,119.4-84.1,119.3     c0.1,0.1,0.1,0.1,0.2,0.2c0,0.1,0,0.1-0.1,0.1c0.1,0,0.1,0,0.1,0.1H-84c0,0,0,0,0.1,0.1c0,0,0,0,0.1,0l0.2-0.1c0,0,0,0,0-0.1     v-0.1c0,0,0,0.1-0.1,0.1c0,0,0,0,0-0.1c-0.1,0-0.1,0-0.1,0v-0.1v-0.1C-83.8,119.2-83.9,119.2-84.1,119.3     C-84.1,119.1-84.1,119.2-84.1,119.3"
   style="fill:#ffffff" />
		</g>
		<g
   id="g3247"
   transform="translate(78.1122,801.1567)"
   style="fill:#ffffff">
			<path
   id="path3249"
   d="M-80.7,116.4c0,0.3-0.3,0.4-1.2,0.4c-0.9,0-2.9-0.3-2.9,0.2c0,0.2,0.4,0.2,0.8,0.2c0,0,0.1-0.1,0.2-0.1     c1.1-0.3,2.5,0.3,3.2,0.1c-0.8,0.6-1.5,0-2.3,0.2c0.5,0,0.7,0.1,0.7,0.3c-0.4-0.3-1.1,0.1-1.6-0.2c0,0-0.1,0-0.1-0.1     c-0.6,0-1.1,0-1.1-0.4c0-0.9,2.4-0.4,3.1-0.4s0.9-0.1,0.9-0.2c0-0.2-0.7-0.3-1.1-0.3c-0.6,0-2.6,0.3-3.7,0.1     c0.1,0.2,0.3,0.4,0.2,0.6c0.1,0,0.2,0.1,0.2,0.2c-0.1,0.1-0.1,0.1-0.2,0.1c0,0.1,0,0.1-0.1,0.2c0,0,0,0.1-0.1,0.1     c0,0-0.1,0.1-0.3,0.2c-0.1,0.1-0.2,0.1-0.3,0.1c0,0-0.1,0-0.2,0s-0.1,0-0.1-0.1c-0.1,0.1-0.1,0.1-0.2,0.1c0-0.1-0.1-0.2,0-0.3     c-0.1,0-0.2-0.3-0.3-0.2c0-0.1,0.1-0.1,0.1-0.1c-0.1-0.2-0.1-0.3-0.2-0.3c0.1-0.1,0.1-0.1,0.1-0.1c0-0.1,0-0.2,0-0.3l-0.2,0.1     l0,0c0,0,0,0-0.1,0h0.1h-0.1c-0.1,0.1-0.2,0.2-0.4,0.3c-0.2,0.1-0.2,0.2-0.2,0.4c0,0.2,0.1,0.3,0.1,0.4v0.1     c0,0.1-0.1,0.2-0.2,0.2c0,0,0.1-0.1,0.1-0.2l-0.1-0.1c0,0,0-0.1,0-0.2l0,0c0,0,0,0,0-0.1l0,0c0,0.1-0.1,0.3-0.2,0.3h-0.1l0,0     c0,0.1-0.1,0.2-0.3,0.1h0.1v-0.1c0-0.1,0.1-0.2,0.2-0.2l0,0c0,0,0,0,0-0.1l0,0c-0.2,0.1-0.3,0-0.3-0.1v-0.1     c-0.1-0.1-0.1-0.2,0-0.2v0.1l0,0l0,0h0.1l0,0c0,0,0,0,0.1,0l0,0c-0.1-0.1-0.1-0.3,0-0.3l0,0c0-0.2-0.4-0.2-0.3,0     c-0.2-0.3,0.1-0.5,0.4-0.4l0,0c0,0,0-0.1,0.1-0.1c0,0,0,0.1,0.1,0.1l0,0c0-0.1,0-0.1,0.1-0.2v0.1c0,0,0.2-0.2,0.4-0.3     c0.2-0.1,0.3-0.2,0.4-0.1c0-0.2,0.1-0.4,0.1-0.4c-0.1,0-0.5,0-0.6,0c-0.2-0.1-0.6-0.2-0.7-0.1c0,0.1,0,0.1-0.1,0.2     c0,0.1-0.1,0.1-0.1,0.1h-0.1c-0.1,0.1-0.2,0.1-0.3,0c0,0,0.1,0,0.2-0.1v-0.1c0-0.1,0-0.1,0.2-0.2l0,0h-0.1     c-0.1,0.1-0.1,0.2-0.2,0.1c0,0,0,0-0.1,0l0,0c-0.1,0-0.3-0.1-0.2-0.3l0.1,0.1V115c0-0.1,0.1-0.2,0.4-0.1l0,0     c-0.1-0.1-0.2-0.2-0.1-0.3c0,0,0,0,0.1,0l0,0c0-0.2,0.1-0.3,0.2-0.3c0,0-0.1,0.1-0.1,0.2h0.1c0.1,0.1,0.1,0.2,0.1,0.3l0,0     c0-0.1,0-0.2,0.2-0.2c0.1,0,0.2,0.1,0.2,0.2l0,0c0,0,0.1-0.1,0.1-0.2c0,0,0.1,0,0.1,0.1c0-0.1,0-0.2-0.1-0.3     c0.1,0,0.2,0.1,0.2,0.3c0,0,0-0.1,0.1-0.1l0,0c0,0,0.2,0,0.3,0l0,0c0-0.1,0-0.1,0-0.1s0,0.1,0.1,0.1c0,0,0-0.1,0.1-0.2     c0,0.4,0.2,0.2,0.5,0.4l0,0c0,0,0-0.1-0.1-0.1c0.3-0.1,0.7,0.3,0.8,0.5c0.1,0,0.2,0,0.3,0c0.8-0.1,0.2,0.7,1.5,0.5     c0.1,0,0.2,0.1,0.3,0.1c-0.1-0.2-0.1-0.5,0.1-0.5c0.1,0,0.2-0.1,0.3-0.1l0,0c-0.1,0-0.2,0-0.2-0.1c-0.3-0.2-0.3,0.4-0.5,0.3     c0,0-0.1,0-0.1-0.1c-0.1,0-0.3-0.1-0.2-0.2c0,0,0.1,0.1,0.2,0.1v-0.1c0,0,0-0.1,0.1-0.1s0.1,0,0.1,0l0,0c0-0.1-0.4,0.1-0.3-0.2     v-0.1c0-0.1,0.1-0.2,0.2-0.1l-0.1,0.1h0.1l0,0l0,0l0,0c0,0,0,0,0-0.1v-0.1c0-0.1,0.1-0.2,0.3-0.1c0,0-0.1,0-0.2,0.1h0.1v0.1l0,0     c0,0,0,0,0.1,0c0,0,0,0,0.1,0c0-0.1,0.1-0.1,0.2-0.1c0.2,0.1,0,0.2,0.2,0.3h0.1c0.1,0,0.4,0,0.4,0c0,0.1,0,0.3-0.1,0.4     c-0.1,0,0,0.2-0.1,0.3c0.2-0.1,0.3-0.1,0.5-0.1c0.4,0,0.5,0.1,0.7,0.2s0.4,0.1,0.5,0c0,0,0.1,0,0.1-0.1c0-0.2,0-0.2,0-0.3     c0-0.1-0.2,0-0.3,0c-0.1,0-0.1,0-0.1-0.1c-0.1,0-0.2-0.1-0.2-0.2c0,0,0.1,0.1,0.2,0.1l0,0c0-0.1,0.2-0.2,0.3-0.1l0,0     c-0.1-0.1-0.2-0.2-0.1-0.2c0,0,0,0,0.1,0c0-0.1,0.1-0.2,0.1-0.2s0,0.1,0,0.2h0.1c0.1,0,0,0.2,0.1,0.2l0,0c0-0.1-0.1-0.2,0-0.3     c0,0,0,0,0.1,0c0-0.1,0.1-0.1,0.2-0.1c0,0-0.1,0-0.1,0.1l0.1,0.1c0.1,0.2-0.1,0.2-0.1,0.3c0,0.1,0.2,0,0.2,0.2c0,0,0,0.1-0.1,0.1     l0,0l0,0c0.1,0,0.1,0,0.2,0.1c-0.2,0-0.1,0.1-0.1,0.2l0,0c0.1,0,0.1,0.1,0.1,0.2c-0.1-0.1-0.2-0.2-0.2,0c0,0,0,0.1-0.2,0.1     c-0.3,0-0.5,0-1,0.1C-81.6,116-80.7,116.1-80.7,116.4 M-87.6,115.9L-87.6,115.9L-87.6,115.9 M-86.2,117.2c0,0,0.2-0.1,0.3-0.1     c-0.2,0-0.1-0.1-0.2-0.1C-86.2,117-86.2,117.1-86.2,117.2 M-86.4,117.3c0-0.1-0.1-0.1-0.2-0.1c-0.1,0.1,0,0.1-0.1,0.2     C-86.6,117.4-86.4,117.3-86.4,117.3 M-86.7,116.6C-86.7,116.7-86.6,116.7-86.7,116.6c0.2,0.1,0.2,0.1,0.2,0.2s0,0.1-0.1,0.1     c0.1,0,0.1,0,0.1,0.1h-0.1c0,0,0,0.1,0.1,0.1c0,0,0,0,0.1,0l0.3-0.1c0,0,0.1,0,0.1-0.1v-0.1c0,0,0,0.1-0.1,0.1c0,0,0,0,0-0.1     c-0.1,0-0.1,0.1-0.2,0c0-0.1,0-0.1,0-0.1v-0.1c0-0.1-0.1-0.2-0.2-0.1C-86.8,116.4-86.8,116.5-86.7,116.6 M-86,115     C-86,115-86,115.1-86,115L-86,115"
   style="fill:#ffffff" />
		</g>
		<g
   id="g3251"
   transform="translate(77.9788,799.8422)"
   style="fill:#ffffff">
			<path
   id="path3253"
   d="M-81,113.9c0,0.3-0.3,0.4-1.1,0.4c-0.8,0-3.4-0.3-3.4,0.2c0,0.3,0.9,0.2,1.5,0.2c0,0,0.1-0.1,0.2-0.1     c1.1-0.3,2.2,0.4,3,0.2c-0.6,0.6-1.4-0.1-2.2,0.1c0.5,0,1,0.1,1,0.2c-0.4-0.2-1.4,0.2-1.9-0.1c0,0-0.1,0-0.1-0.1     c-0.8,0-1.8,0.1-1.8-0.4c0-0.8,2.9-0.3,3.6-0.3s0.9-0.1,0.9-0.2c0-0.2-0.7-0.2-1.1-0.2c-0.6,0-3.4,0.4-4.5,0     c0.1,0.2,0.3,0.5,0.2,0.6c0.1,0,0.2,0.1,0.2,0.2c-0.1,0.1-0.1,0.1-0.2,0.1v0.1c0,0,0,0.1-0.1,0.1c0,0-0.1,0.1-0.2,0.2     s-0.2,0.1-0.2,0.1s-0.1,0-0.2,0c-0.1,0-0.1,0-0.1-0.1c0,0-0.1,0.1-0.2,0.1c0-0.1-0.1-0.2,0-0.3c-0.1,0-0.2-0.3-0.3-0.2     c0-0.1,0.1-0.1,0.1-0.1c-0.1-0.1-0.1-0.3-0.2-0.3l0.1-0.1c0-0.1,0-0.2,0-0.3h-0.1c-0.1,0-0.1,0-0.1,0h-0.1     c-0.1,0-0.2,0.2-0.5,0.4c-0.2,0.1-0.2,0.2-0.2,0.3c0,0.1,0.1,0.3,0.1,0.4v0.1c0,0.1-0.2,0.2-0.2,0.1l0.1-0.1l-0.1-0.1v-0.1l0,0     c0,0,0,0,0-0.1l0,0c0,0.1-0.1,0.3-0.2,0.3c0,0,0,0-0.1,0l0,0c0,0.1-0.1,0.2-0.2,0.1h0.1v-0.1c0-0.1,0.1-0.1,0.2-0.2l0,0l0,0l0,0     c-0.2,0.1-0.3,0-0.3-0.1v-0.1c-0.1-0.1-0.1-0.1,0-0.2v0.1l0,0c0,0,0,0,0.1,0c0,0,0,0,0.1,0l0,0c0,0,0,0,0.1,0l0,0     c-0.1-0.1-0.1-0.2,0.1-0.3l0,0c0-0.2-0.3-0.2-0.3,0c-0.2-0.3,0.1-0.5,0.4-0.3l0,0c0,0,0-0.1,0.1-0.1c0,0,0,0,0.1,0l0,0     c0-0.1,0-0.1,0.1-0.2v0.1c0,0,0.2-0.3,0.6-0.5c0.1,0,0.2,0,0.2,0.1c0,0,0-0.1,0.1-0.1c0-0.2,0.1-0.3,0.1-0.3s-0.6,0-0.7,0     c-0.2-0.1-0.5-0.2-0.7-0.1c0,0.1,0,0.1-0.1,0.2c0,0.1-0.1,0.1-0.1,0.1h-0.1c-0.1,0.1-0.2,0.1-0.3,0c0,0,0.1,0,0.2-0.1V113     c0-0.1,0-0.1,0.2-0.2l0,0h-0.1c-0.1,0.1-0.1,0.2-0.2,0.1c0,0,0,0-0.1,0l0,0c-0.1,0-0.3-0.1-0.2-0.3l0.1,0.1v-0.1     c0-0.1,0.1-0.2,0.3-0.1l0,0c-0.1-0.1-0.2-0.2-0.1-0.3c0,0,0,0,0.1,0l0,0c0-0.1,0.1-0.3,0.2-0.2c0,0-0.1,0.1-0.1,0.2h0.1     c0.1,0,0.1,0.2,0.1,0.2l0,0c0-0.1,0-0.2,0.2-0.2c0.1,0,0.2,0.1,0.2,0.2l0,0c0,0,0.1-0.1,0.1-0.2l0.1,0.1c0-0.1,0-0.2-0.1-0.2     c0.1,0,0.2,0.1,0.2,0.2v-0.1l0,0c0,0,0.1,0,0.3,0l0,0c0-0.1,0-0.1,0-0.1s0,0.1,0.1,0.1c0,0,0-0.1,0.1-0.2c0,0.4,0.5,0.2,0.7,0.3     l0,0c0,0,0-0.1-0.1-0.1c0.1,0,0.2,0,0.3,0.1l0,0l0.4,0.2v0.1h0.1l0,0c0.2,0,0.2,0.2,0.3,0.2c1.4-0.2,0.6,0.6,2.2,0.4     c0.1,0,0.1,0,0.2,0.1c-0.1-0.2-0.1-0.4,0.1-0.4c0.1,0,0.2-0.1,0.3-0.1l0,0c-0.1,0-0.2,0-0.2-0.1c-0.3-0.2-0.3,0.4-0.5,0.3     c0,0-0.1,0-0.1-0.1c-0.1,0-0.3-0.1-0.2-0.2c0,0,0.1,0.1,0.2,0.1c0,0,0,0,0-0.1c0,0,0-0.1,0.1-0.1s0.1,0,0.1,0l0,0     c0-0.1-0.3,0.1-0.3-0.2v-0.1c0-0.1,0.1-0.2,0.2-0.1l-0.1,0.1h0.1l0,0l0,0l0,0c0,0,0,0,0-0.1v-0.1c0-0.1,0.1-0.2,0.3-0.1     c0,0-0.1,0-0.1,0.1h0.1v0.1l0,0c0,0,0,0,0.1,0c0,0,0,0,0.1,0c0-0.1,0.1-0.1,0.2-0.1c0.2,0.1,0,0.2,0.2,0.3h0.1c0.1,0,0.4,0,0.4,0     c0,0.1,0,0.3-0.1,0.4c-0.1,0,0,0.2-0.1,0.3c0.2-0.1,0.3-0.1,0.5-0.1c0.4,0,0.5,0.1,0.6,0.2c0.2,0.1,0.4,0.1,0.5,0     c0,0,0.1,0,0.1-0.1c0-0.2,0-0.2,0-0.3c0-0.1-0.2,0-0.3,0c-0.1,0-0.1,0-0.1-0.1c-0.1,0-0.2-0.1-0.2-0.2c0,0,0.1,0.1,0.2,0.1l0,0     c0-0.1,0.2-0.2,0.2-0.1l0,0c-0.1-0.1-0.2-0.2-0.1-0.2c0,0,0,0,0.1,0c0-0.1,0.1-0.2,0.1-0.2s0,0.1,0,0.2h0.1c0.1,0,0,0.2,0.1,0.2     l0,0c0-0.1,0-0.2,0-0.2s0,0,0.1,0c0-0.1,0.1-0.1,0.2-0.1c0,0-0.1,0-0.1,0.1l0.1,0.1c0.1,0.2-0.1,0.2-0.1,0.3c0,0.1,0.2,0,0.2,0.2     c0,0,0,0.1-0.1,0.1l0,0l0,0c0.1,0,0.1,0,0.1,0.1c-0.2,0-0.1,0.1-0.1,0.2l0,0c0,0,0.1,0.1,0.1,0.2c0-0.1-0.2-0.2-0.2,0     c0,0,0,0.1-0.2,0.1c-0.3,0-0.4,0-0.9,0.1C-81.8,113.5-81,113.6-81,113.9 M-87.1,114.6c0,0,0.2-0.1,0.3-0.1     c-0.1,0-0.1-0.1-0.2-0.1C-87.1,114.4-87.1,114.5-87.1,114.6 M-87.3,114.7c0-0.1-0.1-0.1-0.2-0.1c-0.1,0.1,0,0.1-0.1,0.2     C-87.5,114.8-87.3,114.7-87.3,114.7 M-87.6,114C-87.6,114.1-87.6,114.1-87.6,114c0.2,0.1,0.2,0.1,0.2,0.2s0,0.1-0.1,0.1     c0.1,0,0.1,0,0.1,0.1h-0.1c0,0,0,0,0.1,0.1c0,0,0,0,0.1,0l0.3-0.1c0,0,0.1,0,0.1-0.1v-0.1c0,0,0,0.1-0.1,0.1c0,0,0,0,0-0.1     c-0.1,0-0.1,0-0.2,0v-0.1V114c0-0.1-0.1-0.1-0.2-0.1C-87.6,113.9-87.6,114-87.6,114"
   style="fill:#ffffff" />
		</g>
		<g
   id="g3255"
   transform="translate(82.0435,797.6415)"
   style="fill:#ffffff">
			<path
   id="path3257"
   d="M-73.1,109.7L-73.1,109.7c0.1,0.1,0.1,0.1,0.1,0.3c-0.1-0.1-0.2-0.2-0.2,0c0,0,0,0.1-0.2,0.1     c-0.3,0-0.5,0-1,0.1c0,0-0.1,0,0,0c0.5,0,1.4,0.1,1.4,0.4s-0.3,0.4-1.1,0.4c-0.8,0-3.4-0.3-3.4,0.2c0,0.3,0.9,0.2,1.5,0.2     c0,0,0.1-0.1,0.2-0.1c1.1-0.3,2.3,0.5,3,0.3c-0.8,0.3-1.4-0.2-2.2,0c0.5,0,1,0.1,1,0.2c-0.4-0.2-1.4,0.2-1.9-0.1     c0,0-0.1,0-0.1-0.1c-0.8,0-1.8,0.1-1.8-0.4c0-0.8,2.9-0.3,3.6-0.3s0.9-0.1,0.9-0.2c0-0.2-0.7-0.3-1.1-0.3c-0.7,0-3.4,0.4-4.5,0     c0.1,0.2,0.3,0.5,0.2,0.6c0.1,0,0.2,0.1,0.2,0.2c-0.1,0.1-0.1,0.1-0.2,0.1v0.1c0,0,0,0.1-0.1,0.1c0,0-0.1,0.1-0.2,0.2     s-0.2,0.1-0.2,0.1h-0.1c-0.1,0-0.1,0-0.1-0.1c-0.1,0-0.1,0.1-0.2,0.1c0-0.1-0.1-0.2,0-0.3c-0.1,0-0.2-0.3-0.3-0.2     c0-0.1,0.1-0.1,0.1-0.1c-0.1-0.1-0.1-0.3-0.2-0.3c0.1-0.1,0.1-0.1,0.1-0.1c0-0.1,0-0.2,0-0.2H-80c-0.1,0-0.1,0-0.1,0h-0.1     c-0.1,0-0.2,0.2-0.5,0.4c-0.2,0.1-0.2,0.2-0.2,0.3c0,0.1,0.1,0.3,0.1,0.4v0.1c0,0.1-0.1,0.2-0.2,0.1l0.1-0.1l-0.1-0.1v-0.1l0,0     c0,0,0,0,0-0.1l0,0c0,0.1-0.1,0.2-0.2,0.3h-0.1l0,0c0,0.1-0.1,0.2-0.2,0.1h0.1v-0.1c0-0.1,0.1-0.2,0.2-0.2l0,0l0,0l0,0     c-0.2,0.1-0.3,0-0.3-0.1v-0.1c-0.1,0-0.1-0.1,0-0.2v0.1l0,0c0,0,0,0,0.1,0c0,0,0,0,0.1,0l0,0c0,0,0,0,0.1,0l0,0     c-0.1-0.1-0.1-0.3,0.1-0.3l0,0c0-0.2-0.3-0.2-0.3,0c-0.2-0.3,0.1-0.5,0.4-0.3l0,0c0,0,0-0.1,0.1-0.1c0,0,0,0,0.1,0l0,0     c0-0.1,0-0.1,0.1-0.2c0,0.1,0,0.1,0,0.1s0.2-0.3,0.5-0.5c0,0,0.1,0.1,0.2,0.1c0-0.1,0.1-0.1,0.1-0.2h0.1c0-0.2,0.2-0.3,0.1-0.3     s-0.4,0-0.5,0c-0.2-0.1-0.5-0.2-0.7-0.1c0,0.1,0,0.1-0.1,0.2c0,0.1-0.1,0.1-0.1,0.1h-0.1c-0.1,0.1-0.2,0.1-0.3,0     c0,0,0.1,0,0.1-0.1v-0.1c0-0.1,0-0.1,0.2-0.2l0,0h-0.1c-0.1,0.1-0.1,0.2-0.2,0.1c0,0,0,0-0.1,0l0,0c-0.1,0-0.3-0.1-0.2-0.3     l0.1,0.1v-0.1c0-0.1,0.1-0.2,0.3-0.1l0,0c-0.1-0.1-0.2-0.2-0.1-0.3c0,0,0,0,0.1,0l0,0c0-0.1,0.1-0.2,0.2-0.2c0,0-0.1,0.1-0.1,0.2     h0.1c0.1,0,0.1,0.2,0.1,0.2l0,0c0-0.1,0-0.2,0.2-0.2c0.1,0,0.2,0.1,0.2,0.2l0,0c0,0,0.1-0.1,0.1-0.2l0.1,0.1c0-0.1,0-0.2-0.1-0.3     c0.1,0,0.2,0.1,0.2,0.3c0,0,0-0.1,0.1-0.1l0,0c0,0,0.1,0,0.3,0l0,0c0-0.1,0-0.1,0-0.1s0,0.1,0.1,0.1c0,0,0-0.1,0.1-0.2     c0,0.4,0.2,0.2,0.5,0.4l0,0c0,0,0-0.1-0.1-0.1c0.1-0.1,0.4,0.1,0.4,0.3c0,0,0.1,0,0.2,0.1c0.2,0,0.2,0.2,0.3,0.2     c1.4-0.2,0.6,0.6,2.2,0.4c0.1,0,0.1,0.1,0.2,0.2c-0.1-0.2-0.1-0.5,0.1-0.5c0.1,0,0.2-0.1,0.3-0.1l0,0c-0.1,0-0.2,0-0.2-0.1     c-0.2-0.2-0.3,0.4-0.5,0.3c0,0-0.1,0-0.1-0.1c-0.1,0-0.2-0.1-0.2-0.2c0,0,0.1,0.1,0.2,0.1v-0.1c0,0,0-0.1,0.1-0.1s0.1,0,0.1,0     l0,0c0-0.1-0.3,0.1-0.3-0.2c0,0,0-0.1,0.1-0.1c0-0.1,0.1-0.2,0.2-0.1l-0.1,0.1h0.1l0,0l0,0l0,0c0,0,0,0,0-0.1v-0.1     c0-0.1,0.1-0.2,0.3-0.1c0,0-0.1,0-0.1,0.1h0.1v0.1l0,0c0,0,0,0,0.1,0l0,0c0-0.1,0.1-0.1,0.2-0.1c0.2,0.1,0,0.2,0.2,0.2h0.1     c0.1,0,0.3,0,0.4,0c0,0.1,0,0.3-0.1,0.4c-0.1,0,0,0.2-0.1,0.3c0.2-0.1,0.3-0.1,0.5-0.1c0.4,0,0.5,0.1,0.7,0.2s0.4,0.1,0.5,0     c0,0,0.1,0,0.1-0.1c-0.1-0.2,0-0.2,0-0.3c0-0.1-0.2,0-0.3,0c-0.1,0-0.1,0-0.1-0.1c-0.1,0-0.2-0.1-0.2-0.2c0,0,0.1,0.1,0.2,0.1     l0,0c0-0.1,0.1-0.2,0.2-0.1l0,0c-0.1-0.1-0.2-0.2-0.1-0.2c0,0,0,0,0.1,0c0-0.1,0-0.2,0.1-0.2c0,0,0,0.1,0,0.2h0.1     c0.1,0,0.1,0.2,0.2,0.2l0,0c0-0.1-0.1-0.2,0-0.2c0,0,0,0,0.1,0c0-0.1,0.1-0.1,0.2-0.1c0,0-0.1,0-0.1,0.1l0.1,0.1     c0.1,0.2-0.1,0.2-0.1,0.3c0,0.1,0.2,0,0.2,0.2c0,0,0,0.1-0.1,0.1l0,0l0,0c0.1,0,0.1,0,0.2,0.1C-73.2,109.4-73.1,109.6-73.1,109.7      M-79.2,111.2c0,0,0.2-0.1,0.3-0.1C-79,111-79,111-79,111C-79.1,111-79.2,111.1-79.2,111.2 M-79.4,111.3c0-0.1-0.1-0.1-0.2-0.1     c-0.1,0.1,0,0.1-0.1,0.2C-79.6,111.4-79.4,111.3-79.4,111.3 M-79.7,110.6C-79.7,110.7-79.6,110.7-79.7,110.6     c0.2,0.1,0.2,0.1,0.2,0.2s0,0.1-0.1,0.1c0.1,0,0.1,0,0.1,0.1h-0.1v0.1c0,0,0,0,0.1,0l0.3-0.1c0,0,0,0,0-0.1v-0.1     c0,0,0,0.1-0.1,0.1c0,0,0,0,0-0.1c-0.1,0-0.1,0.1-0.2,0v-0.1v-0.1C-79.5,110.5-79.6,110.5-79.7,110.6     C-79.7,110.5-79.7,110.6-79.7,110.6 M-79.9,111L-79.9,111L-79.9,111z M-79.8,111.3L-79.8,111.3L-79.8,111.3 M-78.6,109.4     L-78.6,109.4L-78.6,109.4"
   style="fill:#ffffff" />
		</g>
		<g
   id="g3259"
   transform="translate(80.7611,796.9224)"
   style="fill:#ffffff">
			<path
   id="path3261"
   d="M-75.6,108.3c0-0.1,0.1-0.1,0.2-0.1c1-0.3,2.2,0.5,2.8,0.3c-0.8,0.3-1.3-0.2-2.1,0c0.5,0,0.9,0.1,1,0.2     c-0.4-0.2-1.3,0.1-1.8-0.1c0,0,0,0-0.1,0c-0.6,0-1,0-1-0.4c0-0.8,2.1-0.3,2.8-0.3c0.7,0,0.6-0.1,0.6-0.2c0-0.2-0.8-0.2-1.1-0.2     c-0.6,0-2.3,0.3-3.4,0.1c0.1,0.2,0.3,0.4,0.2,0.5c0.1,0,0.2,0.1,0.2,0.2c-0.1,0.1-0.1,0.1-0.2,0.1v0.1c0,0,0,0.1-0.1,0.1     c0,0-0.1,0.1-0.2,0.2s-0.2,0.1-0.2,0.1h-0.1c-0.1,0-0.1,0-0.1-0.1c0,0-0.1,0.1-0.2,0.1c0-0.1-0.1-0.2,0-0.3     c-0.1,0-0.2-0.2-0.3-0.2c0-0.1,0.1-0.1,0.1-0.1c-0.1-0.1-0.1-0.3-0.2-0.3l0.1-0.1c0-0.1,0-0.2-0.1-0.3h-0.1l0,0     c-0.1,0-0.2,0-0.4,0.1c-0.2,0.1-0.2,0.2-0.2,0.3c0,0.1,0.1,0.3,0.1,0.4v0.1c0,0.1-0.1,0.2-0.2,0.1l0.1-0.1l-0.1-0.1v-0.1l0,0     c0,0,0,0,0-0.1l0,0c0,0.1-0.1,0.2-0.2,0.2c0,0,0,0-0.1,0l0,0c0,0.1-0.1,0.2-0.2,0.1h0.1v-0.1c0-0.1,0.1-0.1,0.2-0.1l0,0l0,0l0,0     c-0.2,0.1-0.3,0-0.3-0.1v-0.1c-0.1,0-0.1-0.1,0-0.2v0.1l0,0l0,0c0,0,0,0,0.1,0l0,0c0,0,0,0,0.1,0l0,0c-0.1-0.1-0.1-0.2,0.1-0.3     l0,0c0-0.2-0.3-0.2-0.3,0c-0.2-0.3,0.1-0.5,0.4-0.3l0,0c0,0,0-0.1,0.1-0.1l0,0l0,0c0-0.1,0-0.1,0.1-0.1v0.1c0,0,0,0.1,0.3-0.1     c0,0,0-0.1,0.1-0.1h0.2c0-0.2,0-0.4,0-0.4s-0.4,0-0.5,0c-0.1-0.1-0.5-0.2-0.6-0.1c0,0.1,0,0.1-0.1,0.2c0,0.1-0.1,0.1-0.1,0.1     h-0.1c-0.1,0.1-0.2,0.1-0.3,0c0,0,0.1,0,0.1-0.1v-0.1c0,0,0-0.1,0.2-0.2l0,0h-0.1c-0.1,0.1-0.1,0.2-0.2,0.1c0,0,0,0-0.1,0l0,0     c-0.1,0-0.3-0.1-0.2-0.2c0,0,0,0.1,0.1,0.1v-0.1c0-0.1,0.1-0.2,0.3,0l0,0c-0.1-0.1-0.2-0.2-0.1-0.3c0,0,0,0,0.1,0l0,0     c0-0.1,0.1-0.2,0.2-0.2c0,0-0.1,0.1-0.1,0.2h0.1c0.1,0,0.1,0.2,0.1,0.2l0,0c0-0.1,0-0.2,0.2-0.2c0.1,0,0.2,0.1,0.2,0.2l0,0     c0,0,0.1-0.1,0.1-0.2l0.1,0.1c0-0.1,0-0.2-0.1-0.2c0.1,0,0.2,0.1,0.2,0.2c0,0,0-0.1,0.1-0.1l0,0c0,0,0.1,0,0.3,0l0,0     c0-0.1,0-0.1,0-0.1s0,0.1,0.1,0.1c0,0,0-0.1,0.1-0.2c0,0.4,0.3,0.3,0.5,0.4l0,0c0,0,0-0.1-0.1-0.1c0.2-0.1,0.5,0.2,0.6,0.4     c0,0,0,0,0.1,0.1v-0.1c0.2,0,0.2,0.2,0.3,0.2c0.7-0.1,0.2,0.6,1.3,0.4c0.1,0,0.2,0.1,0.3,0.1c-0.1-0.1-0.1-0.5,0.1-0.5     c0.1,0,0.2-0.1,0.3-0.1l0,0c-0.1,0-0.2,0-0.2-0.1c-0.2-0.2-0.2,0.4-0.5,0.3h-0.1c-0.1,0-0.2-0.1-0.2-0.2c0,0,0.1,0.1,0.2,0.1     c0,0,0,0,0-0.1c0,0,0-0.1,0.1-0.1s0.1,0,0.1,0l0,0c0-0.1-0.3,0.1-0.3-0.2v-0.1c0-0.1,0.1-0.2,0.2-0.1l-0.1,0.1h0.1l0,0l0,0l0,0     c0,0,0,0,0-0.1v-0.1c0-0.1,0.1-0.2,0.3-0.1c0,0-0.1,0-0.1,0.1h0.1v0.1l0,0c0,0,0,0,0.1,0l0,0c0-0.1,0.1-0.1,0.2-0.1     c0.2,0.1,0,0.2,0.2,0.2h0.1c0.1,0,0.3,0,0.4,0c0,0.1,0,0.3-0.1,0.4c-0.1,0,0,0.1-0.1,0.3c0.1-0.1,0.3-0.1,0.5-0.1     c0.4,0,0.5,0,0.7,0.1s0.4,0.1,0.5,0c0,0,0.1,0,0-0.1c-0.1-0.2,0-0.2-0.1-0.3c-0.1-0.1-0.2,0-0.3,0c-0.1,0-0.1,0-0.1,0     c-0.1,0-0.2-0.1-0.2-0.2c0,0,0.1,0.1,0.2,0.1l0,0c0-0.1,0.1-0.2,0.2-0.1l0,0c-0.1-0.1-0.3-0.2-0.2-0.2c0,0,0,0,0.1,0     c0-0.1,0-0.2,0.1-0.2c0,0,0,0.1,0.1,0.2h0.1c0.1,0,0.1,0.2,0.2,0.2l0,0c-0.1-0.1-0.1-0.2,0-0.2c0,0,0,0,0.1,0     c0-0.1,0.1-0.1,0.2-0.1c0,0-0.1,0-0.1,0.1l0.1,0.1c0.1,0.2-0.1,0.2,0,0.3c0,0.1,0.2,0,0.3,0.2c0,0,0,0.1-0.1,0.1l0,0l0,0     c0.1,0,0.1,0,0.2,0.1c-0.1,0-0.1,0.1-0.1,0.2l0,0c0.1,0,0.1,0.1,0.1,0.2c-0.1-0.1-0.2-0.1-0.2,0c0,0,0,0.1-0.1,0.1     c-0.2,0-0.6,0-1,0.1l0,0c0.5,0,1.4,0.1,1.4,0.4c0,0.2,0,0.4-0.8,0.4s-2.6-0.3-2.6,0.2C-76.4,108.3-76,108.3-75.6,108.3      M-78.2,108.3c0-0.1-0.1-0.1-0.2-0.1c-0.1,0.1,0,0.1-0.1,0.2C-78.4,108.4-78.3,108.3-78.2,108.3 M-78,107.8     C-78.1,107.8-78.1,107.9-78,107.8C-78.2,107.9-78.1,107.9-78,107.8c-0.1,0-0.2,0-0.2,0c0-0.1,0-0.1,0-0.1v-0.1     c0,0-0.1-0.1-0.2-0.1s-0.1,0.1-0.1,0.2s0.1,0.1,0.1,0.1c0.1,0,0.1,0,0.1,0.1s0,0.1-0.1,0.1c0.1,0,0.1,0,0.1,0.1h-0.1     c0,0,0,0,0,0.1c0,0,0,0,0.1,0l0.3-0.1C-78,108-78,108-78,107.8C-78,107.9-78,107.9-78,107.8 M-77.9,108c-0.1,0-0.1,0.1-0.1,0.2     c0,0,0.2-0.1,0.3-0.1C-77.8,108.1-77.8,108-77.9,108"
   style="fill:#ffffff" />
		</g>
		<g
   id="g3263"
   transform="translate(80.4738,795.6606)"
   style="fill:#ffffff">
			<path
   id="path3265"
   d="M-76.2,105.8c0-0.1,0.1-0.1,0.2-0.1c1-0.3,2.2,0.5,2.8,0.3c-0.8,0.3-1.3-0.2-2.1,0c0.5,0,0.9,0.1,1,0.2     c-0.4-0.2-1.3,0.2-1.8-0.1c0,0-0.1,0-0.1-0.1c-0.3-0.1-0.6-0.2-0.6-0.5c0-0.7,2.6-0.1,2.6-0.4c0-0.2-0.5-0.4-1.2-0.4     c-0.5,0-1.4,0.3-2.6,0.1l0,0c0.1,0.2,0.3,0.5,0.2,0.6c0.1,0,0.2,0.1,0.2,0.2c-0.1,0.1-0.1,0.1-0.2,0.1c0,0.1,0,0.1,0,0.1     s0,0.1-0.1,0.1c0,0-0.1,0.1-0.2,0.1c-0.1,0.1-0.2,0-0.2,0.1h-0.1c0,0-0.1,0-0.1-0.1c0,0-0.1,0.1-0.2,0.1c0-0.1-0.1-0.2,0-0.3     c-0.1,0-0.2-0.2-0.3-0.2c0-0.1,0.1-0.1,0.1-0.1c-0.1-0.1-0.1-0.3-0.2-0.3l0.1-0.1c0-0.2-0.1-0.5,0-0.6c-0.2,0.2-0.4,0.5-0.6,0.6     s-0.2,0.2-0.2,0.3c0,0.1,0.1,0.2,0.1,0.4v0.1c0,0.1-0.1,0.1-0.2,0.1l0.1-0.1l-0.1-0.1v-0.1l0,0c0,0,0,0,0-0.1l0,0     c0,0.1-0.1,0.2-0.2,0.2c0,0,0,0-0.1,0l0,0c0,0.1-0.1,0.2-0.2,0.1h0.1v-0.1c0-0.1,0.1-0.1,0.2-0.1l0,0l0,0l0,0     c-0.2,0.1-0.2,0-0.3-0.1v-0.1c-0.1,0-0.1-0.1,0-0.2v0.1l0,0l0,0c0,0,0,0,0.1,0l0,0c0,0,0,0,0.1,0l0,0c-0.1-0.1-0.1-0.2,0.1-0.2     l0,0c0-0.2-0.3-0.2-0.3,0c-0.2-0.2,0.1-0.4,0.3-0.3l0,0c0,0,0-0.1,0.1-0.1l0,0l0,0c0-0.1,0-0.1,0.1-0.1v0.1c0,0,0-0.3,0.3-0.5     c0.1-0.2,0.2-0.3,0.4-0.3c0.1-0.1,0.1-0.2,0.1-0.2s-0.4,0-0.5,0s-0.2-0.1-0.3-0.1l0,0l0,0c-0.1,0-0.2,0-0.3,0.1     c0,0,0,0.1-0.1,0.2c0,0.1-0.1,0.1-0.1,0.1h-0.1c-0.1,0.1-0.2,0.1-0.2,0c0,0,0.1,0,0.1-0.1v-0.1c0,0,0-0.1,0.2-0.2l0,0h-0.1     c-0.1,0.1-0.1,0.2-0.2,0.1c0,0,0,0-0.1,0l0,0c-0.1,0-0.2-0.1-0.2-0.2c0,0,0,0.1,0.1,0.1v-0.1c0-0.1,0.1-0.2,0.3,0l0,0     c-0.1-0.1-0.2-0.2-0.1-0.3l0,0l0,0c0-0.1,0.1-0.2,0.2-0.2c0,0-0.1,0.1-0.1,0.2h0.1c0.1,0,0.1,0.2,0.1,0.2l0,0     c0-0.1,0-0.2,0.2-0.2c0.1,0,0.2,0.1,0.2,0.2l0,0l0.1-0.1c0,0,0.1,0,0.1,0.1c0-0.1,0-0.1-0.1-0.2c0,0,0.2,0.1,0.2,0.2     c0,0,0,0,0-0.1l0,0c0,0,0.1,0,0.3,0l0,0v-0.1c0,0,0,0.1,0.1,0.1c0,0,0-0.1,0.1-0.2c0,0.3,0.2,0.2,0.4,0.3l0,0c0,0,0-0.1-0.1-0.1     c0.1,0,0.3,0.1,0.3,0.2c0,0,0.2,0.2,0.2,0.6h0.1c0.3,0,0.4,0.2,0.7,0.2c-0.1-0.1-0.1-0.3-0.1-0.4s0.2-0.3,0.3-0.4l0,0     c-0.1,0-0.2,0-0.2-0.1c-0.2-0.1-0.2,0.3-0.5,0.2c0,0,0,0-0.1-0.1c-0.1,0-0.2-0.1-0.2-0.2c0,0,0.1,0.1,0.2,0.1l0,0     c0,0,0-0.1,0.1-0.1h0.1l0,0c0-0.1-0.3,0.1-0.2-0.2v-0.1c0-0.1,0.1-0.2,0.2-0.1l-0.1,0.1h0.1l0,0l0,0l0,0c0,0,0,0,0-0.1v-0.1     c0-0.1,0.1-0.2,0.3-0.1c0,0-0.1,0-0.1,0.1h0.1v0.1l0,0c0,0,0,0,0.1,0l0,0c0,0,0.1-0.1,0.2-0.1c0.2,0.1,0,0.2,0.2,0.2h0.1     c0.1,0,0.2-0.1,0.3,0c0,0.1,0,0.3-0.1,0.4c-0.1,0,0.1,0.5-0.3,0.8c0.2,0,0.8-0.1,0.9,0c0.2,0,0.4-0.2,0.4-0.2V104     c-0.2-0.1-0.1-0.1-0.2-0.2l0,0c0,0-0.1,0.1-0.2,0.2c-0.1,0-0.1,0-0.1,0c-0.1,0-0.2,0-0.2-0.1c0,0,0.1,0,0.2,0l0,0v-0.1l0,0l0,0     l0,0l0,0c-0.1,0-0.3,0-0.2-0.1c0,0,0,0,0-0.1c-0.1,0-0.1-0.1,0-0.2c0,0,0,0.1,0.1,0.1c0,0,0,0,0-0.1c0,0,0.1,0.1,0.2,0.1l0,0     c-0.1,0-0.2-0.1-0.1-0.2c0,0,0,0,0-0.1s0-0.2,0.1-0.2v0.1h0.1c0.2,0.1,0.1,0.2,0.1,0.3c0.1,0.1,0.1-0.1,0.3,0v0.1l0,0l0,0     c0,0,0.1-0.1,0.1,0c-0.1,0.1,0,0.1,0.1,0.2l0,0c0,0,0.1,0,0.2,0.1c-0.1,0-0.3,0.1-0.2,0.1c0.2,0.1,0.2,0.2,0.1,0.3     c-0.1,0.2-0.4,0.2-0.4,0.4c0.1,0,0.2,0,0.3,0c0.9,0,1.5,0.2,1.4,0.5c0,0.6-2.7,0-2.7,0.4C-76.5,105.7-76.4,105.8-76.2,105.8      M-78.1,105.8c0,0,0.2-0.1,0.3-0.1c-0.1,0-0.1-0.1-0.2-0.1C-78.1,105.6-78.1,105.7-78.1,105.8 M-78.3,105.8     c0-0.1-0.1-0.1-0.2-0.1c-0.1,0.1,0,0.1-0.1,0.2C-78.5,105.9-78.3,105.9-78.3,105.8 M-78.5,105.2     C-78.5,105.3-78.5,105.3-78.5,105.2c0.1,0.1,0.2,0.1,0.2,0.1c0,0.1,0,0.1-0.1,0.1c0.1,0,0.1,0,0.1,0.1h-0.1v0.1c0,0,0,0,0.1,0     l0.2-0.1c0,0,0,0,0-0.1v-0.1c0,0,0,0.1-0.1,0.1c0,0,0,0,0-0.1c-0.1,0-0.1,0-0.1,0v-0.1v-0.1c0-0.1-0.1-0.1-0.2-0.1     C-78.6,105.1-78.6,105.2-78.5,105.2"
   style="fill:#ffffff" />
		</g>
		<g
   id="g3267"
   transform="translate(65.8166,811.4315)"
   style="fill:#ffffff">
			<path
   id="path3269"
   d="M-104.4,136.2c0,0.4-0.3,0.6-0.6,0.6c-0.4,0-0.6-0.3-0.6-0.6s0.3-0.6,0.6-0.6     C-104.7,135.6-104.4,135.9-104.4,136.2"
   style="fill:#ffffff" />
		</g>
		<g
   id="g3271"
   transform="translate(65.7403,812.0159)"
   style="fill:#ffffff">
			<path
   id="path3273"
   d="M-104.6,137.4c0,0.4-0.3,0.6-0.6,0.6c-0.4,0-0.6-0.3-0.6-0.6s0.3-0.6,0.6-0.6     C-104.8,136.7-104.6,137-104.6,137.4"
   style="fill:#ffffff" />
		</g>
		<g
   id="g3275"
   transform="translate(65.8646,812.2751)"
   style="fill:#ffffff">
			<path
   id="path3277"
   d="M-104.3,137.9c0.4,0,0.6,0.3,0.6,0.6s-0.3,0.6-0.6,0.6c-0.4,0-0.6-0.3-0.6-0.6S-104.7,137.9-104.3,137.9"
   style="fill:#ffffff" />
		</g>
		<g
   id="g3279"
   transform="translate(66.4486,812.3138)"
   style="fill:#ffffff">
			<path
   id="path3281"
   d="M-103.2,137.9c0.4,0,0.6,0.3,0.6,0.6c0,0.4-0.3,0.6-0.6,0.6c-0.4,0-0.6-0.3-0.6-0.6     C-103.8,138.2-103.5,137.9-103.2,137.9"
   style="fill:#ffffff" />
		</g>
		<g
   id="g3283"
   transform="translate(68.9408,812.7192)"
   style="fill:#ffffff">
			<path
   id="path3285"
   d="M-98.4,138.7c0.3-0.2,0.7-0.2,0.9,0c0.2,0.2,0.2,0.7,0,0.9c-0.3,0.3-0.7,0.3-0.9,0     C-98.6,139.4-98.6,139-98.4,138.7"
   style="fill:#ffffff" />
		</g>
		<g
   id="g3287"
   transform="translate(68.8917,813.1867)"
   style="fill:#ffffff">
			<path
   id="path3289"
   d="M-98.5,139.6c0.3,0.2,0.3,0.7,0,0.9s-0.7,0.3-0.9,0c-0.3-0.2-0.2-0.7,0-0.9     C-99.1,139.4-98.7,139.4-98.5,139.6"
   style="fill:#ffffff" />
		</g>
		<g
   id="g3291"
   transform="translate(68.3103,813.2815)"
   style="fill:#ffffff">
			<path
   id="path3293"
   d="M-99.6,139.8c0.2,0.2,0.2,0.7,0,0.9c-0.3,0.3-0.7,0.3-0.9,0c-0.2-0.3-0.2-0.7,0-0.9     C-100.3,139.5-99.9,139.5-99.6,139.8"
   style="fill:#ffffff" />
		</g>
		<g
   id="g3295"
   transform="translate(67.8139,812.913)"
   style="fill:#ffffff">
			<path
   id="path3297"
   d="M-100.6,139.1c0.2,0.2,0.2,0.7,0,0.9c-0.3,0.2-0.7,0.2-0.9,0c-0.2-0.3-0.2-0.7,0-0.9     C-101.2,138.8-100.8,138.8-100.6,139.1"
   style="fill:#ffffff" />
		</g>
		<g
   id="g3299"
   transform="translate(66.415,813.2148)"
   style="fill:#ffffff">
			<path
   id="path3301"
   d="M-103.3,139.7l0.5-1.1l0.6,0.8h0.1c0.1-0.4,0.1-1,0.1-1.4c0-0.5,0.4-0.8,0.8-0.8s0.8,0.4,0.8,0.8     c0,0.3-0.2,0.6-0.4,0.7c-0.3,0.2-0.7,0.6-0.9,0.8v0.1l1.1-0.1l-0.4,1.2l-0.8-0.7l0,0l-0.1,1.2l-1.1-0.4l0.7-0.9v-0.1     L-103.3,139.7z"
   style="fill:#ffffff" />
		</g>
		<g
   id="g3303"
   transform="translate(68.955,812.5322)"
   style="fill:#ffffff">
			<path
   id="path3305"
   d="M-98.4,138.3c0.2-0.4,0.3-0.6,0.4-0.9c-0.2,0.1-0.4,0.3-0.7,0.6l0.1-1.5c0.2,0.3,0.3,0.4,0.5,0.5     c-0.1-1-0.4-1.4-0.8-1.4c-0.4-0.1-0.7,0.2-0.8,0.5c-0.1,0.4,0.3,0.7,0.7,0.3c0.1,0.9-0.7,0.9-1,0.5c0.4,0.9,0.2,1.4-0.5,1.9     c-0.5-0.8-0.3-1.3,0.3-2c-0.6,0.3-1.1-0.2-0.6-0.9c0.1,0.6,0.6,0.4,0.7,0s-0.3-0.9-0.9-1.1c-0.9-0.3-1.2,0.3-1.4,0.8     c0.2,0.1,0.7,0.1,1.2-0.3l-0.4,1.5c-0.2-0.5-0.5-0.7-0.9-0.9c0,0.4,0.3,1.3,0.3,1.3l-1.8-0.7c0,0,0.8-0.4,1.1-0.7     c-0.4-0.1-0.7-0.2-1.2,0l0.7-1.4c0.1,0.6,0.4,1,0.7,1c0.2-0.5,0.4-1.1-0.5-1.6c-0.6-0.3-1.2-0.2-1.4,0.1c-0.2,0.4,0,0.9,0.5,0.5     c-0.1,0.8-0.8,0.8-1,0.2c0,0.9-0.2,1.4-1.1,1.6c-0.2-0.9,0.1-1.4,0.9-1.7c-0.5,0.1-1-0.4-0.3-1c0,0.5,0.5,0.6,0.7,0.2     c0.2-0.3,0.1-0.7-0.2-0.9c-0.3-0.2-0.8-0.2-1.6,0.5c0.2,0.1,0.4,0.1,0.8,0l-0.9,1.2c0.1-0.4,0-0.7-0.1-0.9     c-0.2,0.2-0.3,0.4-0.4,0.9l-0.7-0.6c0.7-0.4,1.5-1.1,2.4-2.4c1,0.6,2.8,1.5,3.9,2s3,1.1,4.2,1.3c-0.2,1.6-0.1,2.6,0.1,3.4     L-98.4,138.3z"
   style="fill:#ffffff" />
		</g>
		<g
   id="g3307"
   transform="translate(73.7679,798.5743)"
   style="fill:#ffffff">
			<path
   id="path3309"
   d="M-89.1,111.5c0.3,0.7-1,1.5-1.2,2.4s0,1.9-1.2,3.2c-1.1,1.3-4.9,5.4-6.1,6.7c0.3,0,1,0.2,1.7-0.5     c0.4-0.4,1.2-1.2,2-1.9c1,2.6,2.3,4.5,4.1,6.6c0.2,0.3,0.5,0.5,0.7,0.8c-0.7-0.2-1.7-0.4-2.3-0.8c0,1.1,0,2-0.7,2.8     c0.3,1.6,0,3.5-3.5,5.8c1.8-0.4,2.9-2.1,4.3-0.8c-1.2,0-1.3,2.7-5.8,5c1.7,0,3-2.7,5-1.2c-1.9,0.2-2.5,3.5-5.9,4.6     c1.2-0.1,2.4-0.7,3.4,0.7c-1.2-0.3-1.9,0.8-3.1,0.9c0.5,1.5,0.4,2.4-0.1,3.4c-0.9-0.1-1.8-0.3-2.4-0.9c-0.1,0.8-0.9,0.8-1.7,0.8     c0-0.3,0.2-0.8-0.2-0.9c-0.6-0.1-2.6-0.7-4.2-1.3c-1.5-0.6-3.3-1.7-3.8-2.1c-0.3-0.2-0.6,0.3-0.8,0.5c-0.5-0.5-1.1-1.1-0.7-1.7     c-0.9-0.1-1.8-0.3-2.6-0.9c0-1,0.8-2,2.1-2.5c-2.1-2.1-0.2-4-2-5.8c2.6-0.1,2.1,3.5,3.4,4c-0.1-2.5-1.5-3-1.5-5.7     c0-1.5,0.9-3,0.1-4c2.2,0.6,1.6,5.4,2.9,6.8c0.2-0.8,0.1-1.6-0.2-2.4c-0.8-2.2,0.1-5.3-1.1-6.2c2.2,0.2,2.5,3.7,4.3,5     c-1.6-3.2-3.1-9.9-5.5-13.3c-3.7-5.1-6-11.2-9.4-11.2c-1.5,0-2.7,0.9-2.7,2.8c0,5.7,9.9,9.7,9.9,15.8c0,2.7-2.2,3.8-3.6,3.8     c-0.9,0-2.1-0.5-3-1.2c-0.4,0.2-0.8,0.3-1.2,0.3c-3.5,0-2.6-6.3-5.6-6.2c1.2-0.7,3.3,0.6,4.5,2.4c-0.5-4.1-6.4-3-5.9-7.9     c0.8,3.8,10.1,3.3,10.1,9.1c0,0.7-0.3,1.2-0.8,1.6c0.7,0.4,1.4,0.6,2,0.6c1.1,0,2.1-0.8,2.1-2.5c0-5.1-9.8-9.5-9.8-15.8     c0-1.1,0.3-2,0.8-2.6c-0.7-0.3-1.4-0.2-2,0.5c-0.1-1.6,2.3-2.6,3.7-1.8c0.3-0.1,0.7-0.2,1-0.2c-0.4-1.2-1.9-1.6-2.7-1.5     c2.4-1.9,6.6,0.6,6.4,2.7c1.9,1.5,3.1,4.2,4.5,5.9c-0.1-0.4-0.2-0.8-0.2-1.2c-1.4-2.6-2.7-4.8-3.1-8.2c-0.3-2.8-1.7-5.4-3.7-5.4     c-0.4,0-1.1,0.6-1.5,0.3c-0.6-0.5,0-1.1,0-1.6c0-0.8-1.5-1.6-1.5-4.1c0-1.1,0.6-2.4,0.4-3.2c0.6,0.3,1.5,1.4,1.8,2.7     c0.7-3.3-1.4-3.1,0.1-6c0.2,1,1.1,1.4,1.7,1c0.6-0.4,0.3-0.7-0.1-1.1s-0.8-2.6,1.1-2.5c-0.4,0.2-0.4,0.8,0.6,1     c1.4,0.3,1.8-0.4,3.2-0.4c0.9,0,1.1,1.2,1.9,1.2c0.7,0,0.7-0.6,0.5-1c1.1,0.3,1.4,0.9,1.4,1.6c0,0.6-0.5,1-0.1,1.3     c0.4,0.2,1.7,0,1.2-1.1c0.7,0.1,1.1,0.6,1.1,1.5c0,0.8-1,1.3-1.8,1.2c-0.2,0.5-0.9,0.8-1.6,0.8c-1.6,0-1.4-1.3-2.5-1.3     c-1.8,0-3.5,2.3-3.5,6.2c0,2.1,2.2,2.6,3.8,3.3c1.6,0.7,4.3,2.4,6,5.2c1.3,2.2,1.3,4.6,1.2,7.4c2.2-1.3,2.5-3.1,2.5-4.4     c0-1.7-0.9-2.4-1.6-2.7c-0.6-0.3-0.8-0.2-0.9-0.5c-0.1-0.4,0.2-0.7,0.5-0.8c0.8-0.4,0.6-1.2,0.9-2c0.2-0.8,1-2.1,2.2-3.1     c0.1,0.5,0.1,1.3,0,2.4c1.7-0.8,0.3-4.3,3.7-4.3c-0.6,0.4-0.4,1.2-0.1,1.4s0.8-0.2,1.4-1.1s0.5-0.8,2-0.8c1.6,0,0.9,0.5,1.7,0.5     c0.8,0,0.8-1,0.3-1.7c1.4,0.4,1.8,1.5,1.3,2.6c1.2,0.7,1.9-0.3,2.1-1c1.2,1.2,0,2.7-1,2.8c0,0.4-0.4,0.9-0.9,1     c-0.5,0-1,0.1-1.6,0c-0.6,0-0.9-0.9-1.6-0.9c-2.1,0-6.2,3.8-6.2,5.4s3.9,2.6,3.9,5.1c0,3.3-3.2,4.4-6,6.5c1,1.1,3.8,1.4,5.4,0.6     c0.2,0.9,0.8,0.7,1,2.3c0.6-1.4,0-2.6,0.6-3.2c0.5,0.7,1.6,0.6,1.6,2.3c0.4-1.1-0.5-2.7,0.4-3.5c0.1,0.9,0.7,1.1,1,1.1     s0.6-0.2,0.6-0.8c0-1.3-1.6-0.7-1.6-2.2c0-0.6,0.8-0.8,0.8-1.2c0-0.4-0.6-1-1.4-0.5c0.3-0.6,0.8-1.1,1.5-1.1s1.5,0.6,1.8,1.3     c0.4-0.9,0.1-2-0.6-2.1c0.7-0.4,2.4,0,2.2,2.2c1-0.2,1.5-0.8,0.9-2c0.8,0.2,1.5,0.6,1.5,1.4C-88.7,110.4-89.4,110.6-89.1,111.5      M-107.7,141.2c-0.9-0.1-0.9,0.8-2.5,1.2c1.1,0.2,2.5,0.8,3.8,1.3C-106.1,142.6-106.6,141.3-107.7,141.2 M-101.3,134.5     c-1.2-0.5-2.1,0.5-2.3,1.2c-0.2,0.7-0.4,1.3-0.1,1.5c0.5,0.5,0.7,0.9,0.4,1.5c-0.3,0.7-1.1,0.4-1.9,0.2c0.4,0.7,0.4,1.2-0.1,1.1     c-0.6-0.1-0.6-1.1-1-0.9c-0.3,0.1-0.1,0.7-0.1,1c0,0.4,0.3,0.6,0.7,0.8l3.3,1.3c0.4,0.2,0.7,0.2,1-0.1c0.2-0.2,0.8-0.5,0.6-0.8     c-0.2-0.3-0.9,0.4-1.4,0c-0.4-0.3-0.1-0.6,0.7-0.9c-0.7-0.4-1.5-0.7-1.2-1.5c0.2-0.6,0.6-0.8,1.3-0.8c0.4,0,0.6-0.5,1-1.2     C-100.2,136.2-100.1,135-101.3,134.5 M-101.1,143.8c-0.9-0.7-2.1-0.1-2.6,0.9c1.2,0.5,2.7,1.1,3.6,1.7     C-101,145-100.4,144.4-101.1,143.8"
   style="fill:#ffffff" />
		</g>
		<g
   id="g3311"
   transform="translate(95.226,793.1646)"
   style="fill:#ffffff">
			<path
   id="path3313"
   d="M-47.7,101c0-1.5,1.2-2.8,2.8-2.8c1.5,0,2.8,1.2,2.8,2.8s-1.2,2.8-2.8,2.8S-47.7,102.6-47.7,101 M-47,101     c0,1.1,0.9,2.1,2.1,2.1c1.1,0,2.1-0.9,2.1-2.1s-1-2-2.2-2C-46.1,99-47,99.9-47,101"
   style="fill:#ffffff" />
		</g>
		<g
   id="g3315"
   transform="translate(91.6944,792.2925)"
   style="fill:#ffffff">
			<path
   id="path3317"
   d="M-54.5,99.4c-0.4-0.3-0.6-0.6-0.7-1c-0.1-0.5,0.1-1,0.4-1.4c0.3-0.4,0.8-0.6,1.4-0.7     c0.6-0.1,1.1,0,1.6,0.2c0.5,0.3,0.8,0.7,0.9,1.2c0.2,1-0.6,1.9-1.8,2.1C-53.4,99.8-54.1,99.7-54.5,99.4 M-53.3,96.9     c-0.8,0.1-1.3,0.7-1.2,1.3c0.1,0.3,0.2,0.5,0.4,0.6c0.3,0.2,0.8,0.3,1.2,0.2c0.7-0.1,1.3-0.6,1.3-1.2v-0.1     C-51.8,97.1-52.5,96.7-53.3,96.9"
   style="fill:#ffffff" />
		</g>
		<g
   id="g3319"
   transform="translate(86.4812,805.5724)"
   style="fill:#ffffff">
			<path
   id="path3321"
   d="M-64.6,124.9c-0.9-0.7-1.1-1.8-0.6-2.5l0,0c0.6-0.7,1.7-0.7,2.6-0.1c0.5,0.4,0.8,0.9,0.8,1.4     c0,0.4,0,0.8-0.3,1.1c-0.2,0.3-0.6,0.5-1,0.5C-63.5,125.5-64.1,125.3-64.6,124.9 M-64.7,123.3c0,0.4,0.2,0.8,0.6,1.1     c0.3,0.2,0.7,0.4,1,0.3c0.2,0,0.4-0.1,0.5-0.3c0.1-0.2,0.2-0.4,0.1-0.6c0-0.3-0.3-0.7-0.6-0.9c-0.5-0.4-1.3-0.4-1.6,0     C-64.7,123-64.7,123.1-64.7,123.3"
   style="fill:#ffffff" />
		</g>
		<g
   id="g3323"
   transform="translate(90.583,793.8654)"
   style="fill:#ffffff">
			<path
   id="path3325"
   d="M-56.7,102.4c-0.4-0.4-0.7-1-0.7-1.7v-0.1c0-0.6,0.2-1.2,0.6-1.6c0.3-0.3,0.7-0.5,1.1-0.5     c0.4,0,0.8,0.2,1.1,0.5c0.4,0.4,0.7,1,0.7,1.7c0,0.6-0.2,1.1-0.5,1.5s-0.8,0.7-1.3,0.7C-56,102.9-56.4,102.7-56.7,102.4      M-55.6,99.2L-55.6,99.2c-0.3,0-0.5,0.2-0.6,0.3c-0.3,0.3-0.4,0.7-0.4,1.2s0.2,0.9,0.5,1.2c0.1,0.1,0.4,0.3,0.6,0.3     c0.6,0,1.1-0.7,1-1.5c0-0.5-0.2-0.9-0.5-1.2C-55.1,99.4-55.3,99.2-55.6,99.2 M-55.6,98.5L-55.6,98.5L-55.6,98.5z"
   style="fill:#ffffff" />
		</g>
		<g
   id="g3327"
   transform="translate(85.9512,801.5124)"
   style="fill:#ffffff">
			<path
   id="path3329"
   d="M-65.6,117.1c-0.4-0.1-0.8-0.4-0.9-0.8c-0.4-0.9,0.1-2,1.2-2.5c0.6-0.3,1.2-0.3,1.8-0.1     c0.4,0.1,0.8,0.4,0.9,0.8c0.2,0.4,0.2,0.8,0,1.2c-0.2,0.5-0.6,1-1.2,1.3C-64.4,117.3-65.1,117.3-65.6,117.1 M-65.1,114.4     c-0.7,0.3-1.1,1.1-0.8,1.6c0.1,0.3,0.4,0.4,0.5,0.4c0.4,0.1,0.8,0.1,1.2-0.1c0.4-0.2,0.7-0.5,0.9-0.9c0.1-0.2,0.1-0.4,0-0.7     c-0.1-0.3-0.4-0.4-0.5-0.4C-64.2,114.2-64.6,114.2-65.1,114.4"
   style="fill:#ffffff" />
		</g>
		<g
   id="g3331"
   transform="translate(95.898,802.4852)"
   style="fill:#ffffff">
			<path
   id="path3333"
   d="M-46.4,119c0.9-2.5,2.7-3.4,4.1-2.7c-3.1,0.4-0.6,5.6-4.5,5.6c-0.2,0-0.4,0-0.6-0.1c-0.7,0.7-1.4,1-2.6,1     c-1.7,0-4.5-1.6-4.5-4.9c0-7.1,8.3-7.8,8.3-14.1c0-1.8-1.4-3-3-3c-1.4,0-2.5,1.6-3.7,4c-0.6,1.2-1.8,2.8-3,4.4     c0.4-0.3,0.8-0.4,1.2-0.4s0.9,0.1,1.2,0.4s0.5,0.7,0.5,1.1v0.1c0,0.6-0.2,1.1-0.7,1.6s-1,0.8-1.6,0.8c-0.4,0-0.9-0.1-1.2-0.4     s-0.5-0.7-0.5-1.1v-0.1c0-0.2,0-0.5,0.1-0.7c-1.8,2.3-3.4,4.6-3.4,5.9c0,1.1,0.8,2.1,1.7,3.2l0.3-0.2l0.2,0.3     c0.3,0.4,1,1.1,2.5,2.7l0.1,0.1l0,0l0.3,0.4l-0.9,0.7c0.2,0.5,0.4,1.1,0.6,1.8c0.3-1.1,0.9-1.9,1.7-1.6c-0.5,1.2,0.5,2.8-0.2,5.7     c0.7-1.1,1.7-1.7,2.4-1.5c-1.8,1.6,0.5,3.9-1.8,7.4c0.8-0.3,1.3-0.1,1.7,0.3c-2.2,0.3-1.2,3.1-5,4.1c1,0.2,1.5,0.7,1.4,1.2     c-1-0.7-1.9,1.4-5.2,1.3c-0.2,1.2-1.4,2.6-2.7,3.2c0.2-1,0-1.8-0.2-2.6l-10.8,10.6c-0.3,0.3-0.5,0.4-0.6,0.3     c-0.1-0.1-0.1-0.3,0.1-0.5l9.3-11.7c-0.7-0.2-1.4-0.5-2.1-0.8c-0.5-0.2-0.8-0.6-0.8-1.2c-1.7-0.9-3.2-1.9-4-2.6     c-0.6-0.5-1-0.6-0.5-1.8c0.2-0.4-0.4-1.5,0.9-0.7c0.9,0.5,2.9,1.6,3.2,0.9c0.2-0.4-0.8-0.8-1.5-1.1s-1.4-0.8-1.3-1.1     s0.6,0,0.7-0.3c0-0.3,0.3-0.6,0.5-0.6c0.3,0,0.6,0.6,0.8,0.4c0.2-0.2-0.1-1.5-0.3-1.8c1.1,0.1,1.7,1.1,1.8,1.9     c0,0.8,0.2,1,0.4,1.1c0.2,0.1,0.4-0.8,0.1-1.4c0.6,0.1,1.1,0.9,1.1,2.2c0.3,0.2,0.6,0.4,0.8,0.4c0.4,0,1.1-1,2.1-1     c1.8,0,2.9,1.5,3,2.2c0.1,0.6,0,1.1-0.3,1.5c0.7-0.5,0.9-1.4,0.9-2c0-2.6-4.6-3.8-6.5-5.6c-0.1-0.1-0.1-0.1-0.2-0.2l-2.2,0.8     l-0.1-0.5c0,0,0-0.1-0.1-0.4c-0.2-0.7-0.7-2.3-1-3.2l-0.1-0.4l0.2-0.1c-1.3-1.7-2.3-3.6-2.5-5.6c-0.5,0.5-1,1-1.6,1.4     c0.1,0.2,0.1,0.4,0.1,0.6c0,0.6-0.1,1.1-0.5,1.5c-0.3,0.3-0.6,0.5-1,0.5s-0.7-0.1-1.1-0.4c-0.1-0.1-0.1-0.1-0.2-0.2     c-0.1,0.1-0.2,0.1-0.2,0.2c-0.7,0.6-1.6,1.2-2.1,1.8c-0.2,0.3-0.5,0.4-0.9,0.4c-0.2,0-0.6,0-1,0c-0.3,0-0.5-0.2-0.9-0.6     c-0.2-0.2-0.7-0.5-1.2-1c0.3-0.3,0.5-0.5,0.8-0.8c0.1-0.2,0.3-0.3,0.4-0.5c0.1,0.1,0.3,0.2,0.4,0.3c0.2,0.2,0.5,0.2,0.8,0.2     s0.7-0.2,0.9-0.6c0.2-0.3,1.9-2.6,3.4-4.2c-0.2-0.1-0.3-0.1-0.5-0.2c-0.6-0.3-2-0.2-2.6-0.2c-0.6,0.1-0.7,0.2-1.2-0.5     c-0.2-0.3-0.4-0.6-0.6-0.8c-0.2-0.3-0.4-0.5,0.1-1.3c0.6-1.1,2.2-3.9,2.8-5.2c0.5-1.3,1.1-1.5,2.2-1.9c1-0.4,2.7-1.4,2.9-1.6     l0.1,1c-0.3,0.3-1.3,0.7-1.6,0.8c-0.4,0.1-0.5,0.3,0,0.3c0.4,0,1.6-0.4,2.5-0.8c-0.3,1-1.2,2-1.7,2.6c-0.7,0.2-1.5,0.2-1.8,0     c0-0.2-0.1-0.5-0.4-0.5s-0.5,0.2-0.4,0.5s0.5,0.4,0.4,0.9c-0.1,0.6-0.8,0.6-1.2,0.7c-0.6,0.9-1.3,2.2-1.7,2.7     c-0.3,0.5-0.1,0.8,0.1,1c0.5,0.4,1.6-0.2,3.8-0.4c0.8,0,1.7-0.1,2.7-0.1c0.3-2.6,1.3-5,4.9-5.9c1.7-0.4,3.5-1.7,4.1-3.4     c-7.1,0.1-8.2-2.6-8.2-5.3c0-3,2.5-2.8,2.5-5c0-1.9-6-2.7-7.8-3c-1.5-0.2-2.4-0.6-3.1-1.3c-0.7-0.7-1.5-1.4-2.8-2.8     c0,0,0.6-0.1,1.1-0.1l1,1.3c0.3,0.4,0.5,0.8,0.7,0.8s0.1-0.4-0.2-0.8l-0.8-1.4c3.5-0.2,3.7,1.1,3.7,1.6s-0.9,0.9-0.4,1.2     c0.5,0.3,0.9,0.1,1.3-0.4s0.5-0.9,1.5-0.5c0,0,7.6,3.2,8.6,3.6c0.9,0.4,0.6,0.8,0.1,1.2c-0.6,0.5-0.7,1.2-0.7,2     c0,2.3,1.4,3,3.9,3c0-0.4-0.1-0.8-0.1-1.1c0-3.6,5.5-7.1,6.9-7.1c0.7,0,1.5,0.5,1.6-1.7c0-1.6,0.4-2.7,0.1-4.6     c-0.3-1.8-0.8-2.1-1.9-2.9c-1.1-0.8-2.2-3.2-2.6-3.7c0.5-0.3,1-0.4,1.4,0.8c0.3,1,0.7,1.7,1.2,1.9c-0.4-1.1-0.7-2.7-1-3.2     c1.4-0.2,3.7,1,3.7,2s-0.8,0.9-0.8,1.6c0,0.3,0.4,0.6,0.8,0.6c0.6,0,1-0.4,1-0.7c0.6,0.3,1,0.9,1,2.4c0,0.6,0,1.1-0.1,1.7     c0-0.1,0.1-0.2,0.1-0.2c0.3-0.4,0.7-0.7,1.3-0.7c0.5,0,1.1,0.1,1.5,0.4c0.5,0.4,0.9,0.9,1,1.5c0,0.1,0,0.2,0,0.4     c0,0.3-0.1,0.6-0.3,0.9s-0.6,0.6-1,0.7c-0.6,0.1-1.2,0-1.8-0.4c-0.5-0.3-0.9-0.8-1-1.3c-0.1,2-0.3,3.8-0.2,4.6     c0.1,1.1,0.1,1.6-0.2,1.8c-0.4,0.2-0.8-0.5-1.3-0.5s-2.1,1.5-2.1,3c0,1.6,1.7,3.6,1.6,5.7c0,0.7,0.4,1,0.7,0.4     c0.3-0.7,0.8-1.7,1.5-2.5c-0.4-2.7,2.5-5.3,4.9-3.4c-1.2-0.2-2,0.9-2.6,2c0.2,0,0.4-0.1,0.7-0.1c0.1,0,0.2,0,0.4,0     c0.9-1.1,3.6-1,4.3,1.7c-0.5-0.6-1.5-1-2.2-0.9c1,0.8,1.6,2.1,1.6,3.5c0,6.8-8.3,7.6-8.3,13.8c0,2.3,2,3.8,3.4,3.8     c0.5,0,0.9-0.2,1.3-0.4c-0.5-0.5-0.8-1.4-0.8-2.4c0.2-4.9,8.2-4.7,8.3-7C-40.3,115.3-46.2,114.2-46.4,119 M-67.7,137.8     c0.4,0.7,0,1.9,1.4,1.9c0.7,0,1.3-0.7,2.1-0.9C-65.6,138.6-66.8,138.3-67.7,137.8 M-75,122.8c0-0.4-0.2-0.8-0.4-1     c-0.1-0.1-0.3-0.2-0.5-0.2c-0.5,0-0.8,0.6-0.8,1.2v0.1c0,0.4,0.2,0.8,0.4,1c0.1,0.1,0.3,0.2,0.5,0.2s0.4-0.2,0.5-0.3     C-75.1,123.5-75,123.2-75,122.8 M-51.4,88.4c0.1,0.4,0.4,0.8,0.7,1c0.4,0.3,0.8,0.4,1.2,0.3c0.2,0,0.4-0.1,0.6-0.4l0,0     c0.2-0.2,0.1-0.5,0.1-0.7c-0.1-0.4-0.4-0.8-0.7-1c-0.7-0.4-1.5-0.4-1.8,0.1C-51.5,88-51.4,88.2-51.4,88.4 M-56.4,111.2     c0,0.2,0.1,0.4,0.3,0.6s0.5,0.2,0.6,0.2c0.4,0,0.8-0.2,1.1-0.6c0.3-0.3,0.5-0.8,0.5-1.2c0-0.2-0.1-0.4-0.3-0.6l0,0     c-0.2-0.2-0.5-0.2-0.6-0.2c-0.4,0-0.8,0.2-1.1,0.6S-56.4,110.8-56.4,111.2 M-69.9,126.6c0.4,1.2,1.1,3.6,1.1,3.6l1.3-0.5     c-0.4-0.1-0.8-0.5-1.2-0.9c0.3-0.1,0.8-0.1,1.1,0.1l-0.5-1.3c-0.1,0.2-0.5,0.7-0.8,0.7c-0.3-1,0.4-1.4,0.8-1.6     c0.8-0.4,1.3-0.5,1.5-0.1s-0.3,1-0.9,0.8c-0.1,0.7,0.3,1,0.7,1c0.3,0,0.6-0.3,0.7-0.7c0,1.1,0.4,1.9,1.4,2.2     c0.4-1,0.1-1.7-0.7-2.5c0.4,0.2,0.9,0.1,1.1-0.1c0.2-0.4,0.2-0.9-0.4-1.2c-0.1,0.7-0.9,0.7-1.2,0.3c-0.2-0.4,0.1-0.9,0.8-1.3     c0.8-0.5,1.5-0.2,1.9,0.5c-0.3,0.1-0.7,0-1.2-0.2l0.8,1.6c0-0.2,0.2-0.6,0.5-0.9c0.1,0.4,0.3,1,0,1.5l1.8-1     c-0.6-0.1-1.1-0.5-1.3-0.8c0.4-0.2,0.8-0.1,1.1,0l-0.9-1.5c0,0.5-0.2,0.9-0.4,1.1c-0.4-0.7-0.3-1.4,0.5-1.9     c0.7-0.4,1.2-0.5,1.5-0.1s-0.2,1.1-0.8,0.9c0,0.7,0.4,1,0.8,1c0.4,0,0.6-0.4,0.7-0.9c0.3,1.1,0.7,1.7,1.8,1.9     c0.2-1-0.3-1.8-1.2-2.3c0.4,0.1,0.8,0.1,1-0.2c0.2-0.4,0.1-0.9-0.5-1.1c-0.1,0.7-0.9,0.8-1.1,0.4c-0.2-0.4,0.1-0.8,0.8-1.2     c0.4-0.3,1.1-0.6,1.8,0.1c-0.2,0.3-0.8,0.4-1.1,0.4l0.8,1.1c0-0.4,0.2-0.8,0.5-1c0.1,0.5,0.2,1.1,0.1,1.5l1.1-0.8     c0,0-1.7-1.8-2.5-2.8L-69.9,126.6z M-58.7,98.4c-0.5-0.6-1.2-0.9-1.7-0.5s-0.5,1.2-0.1,1.8c0.4,0.6,1.2,0.9,1.7,0.5     C-58.3,99.8-58.3,99-58.7,98.4 M-55.5,103.5c-0.5-0.6-1.2-0.9-1.7-0.5s-0.5,1.2-0.1,1.8c0.5,0.6,1.2,0.9,1.7,0.5     C-55.1,105-55,104.2-55.5,103.5"
   style="fill:#ffffff" />
		</g>
	</g>
</g>
</svg>
