<svg id="Layer_1" data-name="Layer 1" xmlns="http://www.w3.org/2000/svg" viewBox="0 0 342.74 82.74"><defs><style>.cls-1{fill:#1d1d1b;}.cls-2{fill:#c70678;}.cls-3{fill:#8f1660;}.cls-4{fill:#5e0f45;}.cls-5{fill:#010101;}</style></defs><path class="cls-1" d="M922.83,579.3V521.47l-12.94,11.34-8.54-13.25,22.84-19h15V579.3Z" transform="translate(-788.81 -498.56)"/><path class="cls-2" d="M1120.88,521a15.37,15.37,0,0,0-5.64-4.95,14.26,14.26,0,0,0-6.72-1.84,17.52,17.52,0,0,0-3.38.33,8,8,0,0,0-5.4,3.73,7.22,7.22,0,0,0-.93,3.84,6.87,6.87,0,0,0,.73,3.33,7.22,7.22,0,0,0,2.16,2.34,18.26,18.26,0,0,0,3.4,1.83c1.3.56,2.76,1.13,4.41,1.73,2.35.89,4.81,1.87,7.35,2.94a26.2,26.2,0,0,1,7,4.29,21.74,21.74,0,0,1,5.21,6.61,21.19,21.19,0,0,1,2.06,9.85,28.77,28.77,0,0,1-2.21,11.73A23.11,23.11,0,0,1,1123,575a24.74,24.74,0,0,1-8.53,4.79,32.42,32.42,0,0,1-9.91,1.55,36.61,36.61,0,0,1-14.42-2.95,30.4,30.4,0,0,1-11.58-8.39l11-12.68a20.9,20.9,0,0,0,6.72,6,16.59,16.59,0,0,0,8.29,2.39,15.34,15.34,0,0,0,3.63-.44,8.94,8.94,0,0,0,3.09-1.45,7.33,7.33,0,0,0,2.11-2.67,9.65,9.65,0,0,0,.78-4,7.07,7.07,0,0,0-1-3.78,10.1,10.1,0,0,0-2.8-2.84,21,21,0,0,0-4.51-2.33q-2.71-1.06-6.13-2.28a54.33,54.33,0,0,1-6.52-2.9,21.54,21.54,0,0,1-5.69-4.28,19.58,19.58,0,0,1-4-6.34,23.76,23.76,0,0,1-1.52-9.06,24.58,24.58,0,0,1,2.35-11.23,22.18,22.18,0,0,1,6.18-7.68,25,25,0,0,1,8.63-4.39,34.29,34.29,0,0,1,9.66-1.44,32.16,32.16,0,0,1,12,2.45,30.25,30.25,0,0,1,10.73,7.23Z" transform="translate(-788.81 -498.56)"/><path class="cls-1" d="M984.52,564.56a24.58,24.58,0,1,1,0-49.16h0V499.25h0a40.68,40.68,0,1,0,0,81.36h0Z" transform="translate(-788.81 -498.56)"/><path class="cls-2" d="M1037.78,539.91l12.57,38.65a38.89,38.89,0,0,1-12.56,2Z" transform="translate(-788.81 -498.56)"/><path class="cls-3" d="M1037.78,539.91l32.88,23.88a39,39,0,0,1-20.31,14.77Z" transform="translate(-788.81 -498.56)"/><path class="cls-4" d="M1037.78,539.91l36.83,17.17a39.37,39.37,0,0,1-3.95,6.71Z" transform="translate(-788.81 -498.56)"/><path class="cls-3" d="M1037.78,539.91l38.66-12.56a38.94,38.94,0,0,1-1.83,29.73Z" transform="translate(-788.81 -498.56)"/><path class="cls-2" d="M1037.78,539.91V499.27a40,40,0,0,1,38.66,28.08Z" transform="translate(-788.81 -498.56)"/><path class="cls-5" d="M829.89,512.4c-.45.87-.84,1.37-.78,2s.76,1.14,1.08,1.81c.31-.78.81-1.37.75-2s-.91-1.42-1.05-1.87" transform="translate(-788.81 -498.56)"/><path class="cls-5" d="M841.5,512.4c.44.87.83,1.37.77,2s-.76,1.14-1.08,1.81c-.31-.78-.8-1.37-.75-2s.91-1.42,1.06-1.87" transform="translate(-788.81 -498.56)"/><path class="cls-5" d="M823.21,511.9a.79.79,0,0,0,.79-.78.79.79,0,0,0-1.57,0h0a.78.78,0,0,0,.76.78h0" transform="translate(-788.81 -498.56)"/><path class="cls-5" d="M823.73,513a.78.78,0,1,0-1.55,0,.78.78,0,0,0,1.56,0h0" transform="translate(-788.81 -498.56)"/><path class="cls-5" d="M824.12,514.92a.78.78,0,0,0-.79-.78.79.79,0,0,0-.69.87.74.74,0,1,0,1.48-.09h0" transform="translate(-788.81 -498.56)"/><path class="cls-5" d="M827.55,508.17a.79.79,0,1,0-.79-.79.79.79,0,0,0,.79.79h0" transform="translate(-788.81 -498.56)"/><path class="cls-5" d="M825.61,508.77a.79.79,0,1,0-.7-.7.79.79,0,0,0,.7.7" transform="translate(-788.81 -498.56)"/><path class="cls-5" d="M824.07,510.11a.79.79,0,1,0-.79-.79h0a.78.78,0,0,0,.78.78h0" transform="translate(-788.81 -498.56)"/><path class="cls-5" d="M829.59,508.35a.78.78,0,1,0-.77-.79.77.77,0,0,0,.77.79" transform="translate(-788.81 -498.56)"/><path class="cls-5" d="M831.54,508.92a.75.75,0,1,0-.09-1.49.81.81,0,0,0-.7.7.8.8,0,0,0,.79.79h0" transform="translate(-788.81 -498.56)"/><path class="cls-5" d="M833.37,509.78a.79.79,0,1,0-.79-.79.81.81,0,0,0,.79.79" transform="translate(-788.81 -498.56)"/><path class="cls-5" d="M847.36,511.12a.79.79,0,1,0,1.57,0,.78.78,0,0,0-.78-.8h0a.76.76,0,0,0-.78.76s0,0,0,0" transform="translate(-788.81 -498.56)"/><path class="cls-5" d="M848.4,512.24a.78.78,0,0,0-.78.79.79.79,0,1,0,1.58,0h0a.78.78,0,0,0-.79-.78" transform="translate(-788.81 -498.56)"/><path class="cls-5" d="M848,514.14a.77.77,0,0,0-.75.8.78.78,0,0,0,.8.76.78.78,0,0,0,0-1.56h0" transform="translate(-788.81 -498.56)"/><path class="cls-5" d="M843.8,508.17a.79.79,0,1,0-.17,0h.17" transform="translate(-788.81 -498.56)"/><path class="cls-5" d="M845.76,508.77a.79.79,0,1,0-.8-.79h0a.78.78,0,0,0,.79.78" transform="translate(-788.81 -498.56)"/><path class="cls-5" d="M847.29,510.11a.79.79,0,0,0,.79-.78.79.79,0,1,0-1.57,0s0,0,0,0a.77.77,0,0,0,.78.78" transform="translate(-788.81 -498.56)"/><path class="cls-5" d="M841.76,508.35a.78.78,0,0,0,.09-1.56.77.77,0,0,0-.82.73v0a.78.78,0,0,0,.76.78h0" transform="translate(-788.81 -498.56)"/><path class="cls-5" d="M839.82,508.92a.78.78,0,0,0,.78-.78h0a.76.76,0,0,0-.75-.78h0a.79.79,0,0,0-.8.78.81.81,0,0,0,.8.79" transform="translate(-788.81 -498.56)"/><path class="cls-5" d="M837.2,509a.78.78,0,0,0,.79.77.76.76,0,0,0,.77-.77.78.78,0,1,0-1.56,0" transform="translate(-788.81 -498.56)"/><path class="cls-5" d="M834.33,513.23h.88v-3.35a3.45,3.45,0,0,1-.88-.27Z" transform="translate(-788.81 -498.56)"/><path class="cls-5" d="M837,509.56a3.15,3.15,0,0,1-.87.27v3.36H837Z" transform="translate(-788.81 -498.56)"/><path class="cls-5" d="M835.18,505.9v-2a2.46,2.46,0,0,0-1.93,2Z" transform="translate(-788.81 -498.56)"/><path class="cls-5" d="M836.19,505.9h1.92a2.48,2.48,0,0,0-1.92-2Z" transform="translate(-788.81 -498.56)"/><path class="cls-5" d="M833.27,506.86a2.46,2.46,0,0,0,4.81,0Z" transform="translate(-788.81 -498.56)"/><path class="cls-5" d="M837,503.56a2.74,2.74,0,0,1-1.07-1.7,3,3,0,0,1,1.78,1.13v-2.7a3.11,3.11,0,0,1-1.78,1.13,4,4,0,0,1,1.07-1.94h-2.65a3.9,3.9,0,0,1,1,1.94,3.29,3.29,0,0,1-1.78-1.13V503a3.17,3.17,0,0,1,1.81-1.13,2.7,2.7,0,0,1-1.07,1.7Z" transform="translate(-788.81 -498.56)"/><path class="cls-5" d="M837.09,559.85a1,1,0,0,1,0-2,1,1,0,0,1,0,2m-4.62-1.43a1.06,1.06,0,1,1,1-1.12v.06a1,1,0,0,1-1,1.06m-1.6-4.69-.26-.2a.91.91,0,0,0-1.3,0h0a4.64,4.64,0,0,0-.57.6l-.25.3.18.14c.5.41.57.85.42,1.11a.38.38,0,0,1-.26.2,1.43,1.43,0,0,1-1-.24l-.16-.08-.11.2-.1.14-.13.21a1.88,1.88,0,0,0-.32.89v.19a.9.9,0,0,0,.5.51l.12.07.78.47a1.41,1.41,0,0,1-1.34.06,2.08,2.08,0,0,1-1-1.51,4.12,4.12,0,0,1,.75-2.07l.07-.13-.07-.12a4.69,4.69,0,0,1-.34-.67,3.3,3.3,0,0,1,.75.14h.14l.09-.09a3.79,3.79,0,0,1,2.24-1.29,1.66,1.66,0,0,1,1.23.6,1.9,1.9,0,0,1,.44.94c-.13-.09-.29-.2-.44-.32m9,3.71a51.73,51.73,0,0,1-8.12-2.93h0a2.14,2.14,0,0,0-.56-1.67,2,2,0,0,0-2.29-.61,12.56,12.56,0,0,1-1.14-1.17,13.55,13.55,0,0,1-2.41-4.2,13.72,13.72,0,0,1-.72-2.8,2.56,2.56,0,0,1-2.62,1.8c0-.16,0-.56-.13-.61a2,2,0,0,1-2.42.45,20.85,20.85,0,0,0,.91,3.2,19,19,0,0,0,3.64,5.94,19.63,19.63,0,0,0,1.57,1.59v.31a2.53,2.53,0,0,0,1.37,1.9,1.91,1.91,0,0,0,2-.24,22.11,22.11,0,0,0,4.37,1.7,20.71,20.71,0,0,0,5,.8,9,9,0,0,0,4.37-1.56,12.58,12.58,0,0,0,1.66-1.24l.16-.16a14.63,14.63,0,0,1-4.56-.55" transform="translate(-788.81 -498.56)"/><path class="cls-5" d="M839.22,567.44a.86.86,0,0,0-.67-.52c-1,0-.61,2.66-1.8,2.66a.73.73,0,0,1-.81-.65v-.06c0-.37.26-.49.26-.78s-.23-.41-.49-.41-.49.11-.49.41.26.41.26.78a.73.73,0,0,1-.75.71h-.06c-1.2,0-.8-2.66-1.81-2.66a.83.83,0,0,0-.66.52,2.14,2.14,0,0,1-.32-1,1.15,1.15,0,0,1,1.11-1.2h0c1.34,0,1,1.84,1.67,1.84a.47.47,0,0,0,.5-.43v0c0-.52-.94-1-.94-1.76s.68-1.38,1.43-2c.75.59,1.44,1.23,1.44,2s-1,1.24-1,1.76a.45.45,0,0,0,.45.46h0c.64,0,.33-1.84,1.68-1.84a1.17,1.17,0,0,1,1.16,1.16,2.73,2.73,0,0,1-.32,1m-3.45,3.76a.66.66,0,0,1-.65-.65.66.66,0,1,1,.65.65h0m2.67-6.44a1.49,1.49,0,0,0-.5.08v-3a20.79,20.79,0,0,1-4.3-.65v3.62a1.58,1.58,0,0,0-.52-.09,1.65,1.65,0,0,0-1.68,1.66s0,0,0,0a3,3,0,0,0,.83,1.9c.19-.46.37-.83.63-.83.51,0,.28,2.56,1.78,2.63a1,1,0,0,0-.07.41,1.17,1.17,0,0,0,1.16,1.17,1.19,1.19,0,0,0,1.19-1.08,1.16,1.16,0,0,0-.09-.41c1.5-.07,1.25-2.63,1.77-2.63.26,0,.41.35.65.83a3.08,3.08,0,0,0,.83-1.9,1.67,1.67,0,0,0-1.66-1.68h0" transform="translate(-788.81 -498.56)"/><path class="cls-5" d="M873,568.27a.28.28,0,0,0-.37-.18c-3.46,1-7.75-1.86-11.9-4.63-3.49-2.32-6.8-4.52-9.63-4.52a5.81,5.81,0,0,0-2.76.65,5,5,0,0,0-2.2,2.56,16.76,16.76,0,0,1-1.37,2.58,3.77,3.77,0,0,0-.84,2,2.15,2.15,0,0,0,.73,1.54,7.22,7.22,0,0,0,1.8,1.24c.18.1.36.18.52.26.69.34,1.12.56,1.2,1a23,23,0,0,1-5.18,1.39,45.07,45.07,0,0,1-14.75,0,23.16,23.16,0,0,1-5.16-1.45c.07-.58.5-.82,1.23-1.17l.55-.26a10.12,10.12,0,0,0,1.77-1.11,1.86,1.86,0,0,0,.71-1.45,3.67,3.67,0,0,0-.82-2,16,16,0,0,1-1.38-2.58,4.88,4.88,0,0,0-2.15-2.58,5.59,5.59,0,0,0-2.75-.66c-2.84,0-6.13,2.2-9.61,4.52-4.16,2.77-8.44,5.63-11.9,4.63a.31.31,0,0,0-.39.19.3.3,0,0,0,.18.39,14.37,14.37,0,0,1,2.84,1.93c1.25,1,2.43,1.88,3.72,1.88a9.06,9.06,0,0,0,4.16-1.22q2.19-1.23,4.23-2.66c2.73-1.87,5.55-3.79,8.23-4-.28.29-.55.53-.81.77a3.19,3.19,0,0,0-1.48,2.55,5.94,5.94,0,0,0,.81,2.68c.14.28.28.6.44,1a9.11,9.11,0,0,1,.6,1.92l.28,1.09A4,4,0,0,0,824,577.3c2.28,1.16,6.2,1.75,11.67,1.75s9.39-.59,11.67-1.75a4,4,0,0,0,2.44-2.82l.28-1.09a9.76,9.76,0,0,1,.61-1.92c.21-.49.42-.89.6-1.23A4.42,4.42,0,0,0,852,568a3.34,3.34,0,0,0-1.55-2.62c-.26-.25-.55-.51-.83-.81,2.69.23,5.51,2.15,8.23,4a47.78,47.78,0,0,0,4.24,2.66,9.07,9.07,0,0,0,4.16,1.23c1.29,0,2.47-.92,3.72-1.89a14.39,14.39,0,0,1,2.87-1.89.33.33,0,0,0,.17-.4" transform="translate(-788.81 -498.56)"/><path class="cls-5" d="M836.15,541.43v-13a9.72,9.72,0,0,1,3.92,1,11.21,11.21,0,0,1,3.57,2.82,13.74,13.74,0,0,1,2.38,4.24,15.08,15.08,0,0,1,.89,4.94Zm-.45-18.38a13.82,13.82,0,0,0-7.68,2.07c-.86-.51-1.22-1-1.22-1.59,0-2.09,5.92-2.27,8.9-2.27h0c3,0,8.91.18,8.91,2.27,0,.59-.37,1.08-1.23,1.59a13.77,13.77,0,0,0-7.68-2.07m-.2,18.38h-11a15.34,15.34,0,0,1,.88-4.94,13.77,13.77,0,0,1,2.43-4.2,11,11,0,0,1,3.58-2.82,9.51,9.51,0,0,1,4.16-1Zm16.76-.82a5,5,0,0,1-1.33-1.55c-.41-.85-2.12-4.22-2.39-4.68a2.12,2.12,0,0,1-.33-1,1.53,1.53,0,0,1,.36-.89c.13-.17.5-.53.64-.76a2,2,0,0,1,.31-.4,15.67,15.67,0,0,0-2.08-2.77,16.46,16.46,0,0,0-3.34-2.9,2.49,2.49,0,0,0,1.31-2.1,1.8,1.8,0,0,0-.69-1.46,19.25,19.25,0,0,1,3-6.05l-2.22-.94a3.36,3.36,0,0,1,.52,2.45,2.89,2.89,0,0,1-1.23-1.67,9.94,9.94,0,0,1-.82,2.41,2,2,0,0,1,1.81-.17,2.68,2.68,0,0,1-2.8.93c-.78-.19-1.57-.61-1.54-1.22a.75.75,0,0,1,.75-.75h0c.48,0,.51.78.36,1.11.63-.36,1.29-2.22.3-2.5-.79-.22-1.5.86-1.75,1.69-.15-1-.56-2-1.36-1.9-1,.07-.69,2-.32,2.44,0-.67.42-1,.72-1s.64.21.57.81-.92,1-1.9,1-2.63-.28-2.83-2.1a3.37,3.37,0,0,1,2,1.19,12.54,12.54,0,0,1,0-3,3.13,3.13,0,0,1-1.94,1.19,3.67,3.67,0,0,1,1.61-2.09h-4A3.57,3.57,0,0,1,835.3,516a3.1,3.1,0,0,1-1.91-1.18,11.59,11.59,0,0,1,0,3,3.32,3.32,0,0,1,1.94-1.18c-.16,1.81-1.8,2.1-2.74,2.1s-1.83-.37-1.91-1,.3-.79.58-.81.67.32.72,1c.36-.48.7-2.37-.33-2.44-.79,0-1.2.9-1.35,1.9-.26-.83-1-1.91-1.75-1.69-1,.28-.34,2.14.31,2.5-.16-.33-.13-1.07.36-1.11a.71.71,0,0,1,.77.67.22.22,0,0,1,0,.08c0,.61-.75,1-1.53,1.22a2.64,2.64,0,0,1-2.79-.93,2,2,0,0,1,1.83.17,9.51,9.51,0,0,1-.81-2.41,3,3,0,0,1-1.29,1.66,3.44,3.44,0,0,1,.48-2.52l-2.23.94a18.78,18.78,0,0,1,3,6.06,1.9,1.9,0,0,0-.64,1.52,2.47,2.47,0,0,0,1.32,2.08,16.78,16.78,0,0,0-3.38,2.92,18.82,18.82,0,0,0-3.55,5.91c.32.31,1.64,1.76,2,2.16a3.55,3.55,0,0,1,.86,1.93,2.9,2.9,0,0,0,.75,2,3.67,3.67,0,0,1,.43,1.48h11v12a1.62,1.62,0,0,0-1.26.6c1.28.51,2.49,1,3.71,1.36a3,3,0,0,1,.68-1.76s-1.61-.16-2.47-.21V542h10.83a15.53,15.53,0,0,1-.92,4.8,13.59,13.59,0,0,1-2.41,4.21,11.35,11.35,0,0,1-3.59,2.82c-.2.11-.2.26-.43.35a3,3,0,0,0-.52,1,3.74,3.74,0,0,0-.25,1.1c.5.15.77.24,1.26.36,3.79.94,4.72.66,4.94.5h0a17.32,17.32,0,0,0,2.37-2.24,18.64,18.64,0,0,0,3.63-6,20.32,20.32,0,0,0,1.31-7.27v-1.07" transform="translate(-788.81 -498.56)"/><path class="cls-5" d="M842.19,533.73a.3.3,0,0,0-.11.31.32.32,0,0,0,.32.2.71.71,0,0,0-.25.46.7.7,0,0,0,.5-.12c0,.19,0,.31.12.37a.32.32,0,0,0,.3,0,12.25,12.25,0,0,1,1.61,4.38.65.65,0,0,0-.41-.11.75.75,0,0,0,.21.49h-2.69a.3.3,0,0,0-.18-.35.31.31,0,0,0-.36.13A.66.66,0,0,0,841,539a.75.75,0,0,0-.2.48.3.3,0,0,0-.37-.13.36.36,0,0,0-.18.35H838a.7.7,0,0,0,.17-.45.66.66,0,0,0-.45.17V535.7a.34.34,0,0,0,.28-.14.3.3,0,0,0-.12-.37.69.69,0,0,0,.47-.22.67.67,0,0,0-.47-.2.31.31,0,0,0,.12-.37.32.32,0,0,0-.36-.17V531a.83.83,0,0,0,.39.16.62.62,0,0,0-.1-.44,7.42,7.42,0,0,1,2.06,1,9.68,9.68,0,0,1,2.14,2m3,5.58a.2.2,0,0,1,.08.28.23.23,0,0,1-.2.11,12.1,12.1,0,0,0-2-5.5h0a.38.38,0,1,0-.23-.26l-.24-.3a9.66,9.66,0,0,0-2.33-2.18,8.37,8.37,0,0,0-2.59-1.2.19.19,0,0,1,.21-.19.2.2,0,0,1,.18.14c0-.35-.26-.52-.43-.45a.28.28,0,0,0-.2.27.7.7,0,0,0-.49-.26.69.69,0,0,0,.16.51.32.32,0,0,0-.29.14.38.38,0,0,0,.25.49l.12,0c-.16-.14-.09-.4.12-.38v4.18a.7.7,0,0,0-.7.18.72.72,0,0,0,.7.19v4.57a.21.21,0,0,1-.11-.39.38.38,0,0,0-.42.35.28.28,0,0,0,0,.13.37.37,0,0,0,.35.17.58.58,0,0,0-.18.47.74.74,0,0,0,.48-.18.32.32,0,0,0,.17.35.39.39,0,0,0,.46-.28.57.57,0,0,0,0-.13.21.21,0,0,1-.29.07.19.19,0,0,1-.1-.16h3.18a.64.64,0,0,0,.17.69.71.71,0,0,0,.19-.69h3.54a.2.2,0,0,1-.18.22.19.19,0,0,1-.2-.11c0,.34.32.48.47.4a.33.33,0,0,0,.16-.36.28.28,0,1,0,.29-.3.38.38,0,0,0,.36-.17.41.41,0,0,0-.33-.47h-.1" transform="translate(-788.81 -498.56)"/><path class="cls-5" d="M843.34,538.15a.63.63,0,0,0,.31-.27.34.34,0,0,1-.31,0c.1-.06.23,0,.1-.19s-.2-.21-.33-.07a.78.78,0,0,1-1-.51.47.47,0,0,1,0-.17.55.55,0,0,0,.29.25h.44a.37.37,0,0,0,.34-.34c0-.35-.3-.52-.68-.83l-.34-.31c-.12-.26,0-.48-.36-1a1.48,1.48,0,0,0-.12-.41,1.22,1.22,0,0,0,.21,1.37c.35.39,1.12.76,1.09,1.1,0,.08-.08.14-.2.17h-.17a.56.56,0,0,1-.16-.07l-.27-.2a8.47,8.47,0,0,1-.79-1,1.43,1.43,0,0,1-.14-1.27c.25-.34-.15-1-.39-1.22a.59.59,0,0,0,0-.37h-.21c-.06,0-.08-.16-.19-.17s-.14-.12-.15-.17-.13.16-.22.17h-.23a.31.31,0,0,1-.26.1c-.15,0-.14.08-.13.18s0,.17.1.21h0l.11.14.07-.15c.07-.06.25-.07.29.06s0,.12-.07.13h-.31c-.08,0-.08.1-.08.18s.1.12.27.07.47-.07.47.08c0,.38-.44.37-.53.82a1.27,1.27,0,0,1-.27-.25,1.6,1.6,0,0,0-.33-.4,1.18,1.18,0,0,0-.32-.27c-.15-.09-.16-.16-.16-.32s.06-.25,0-.39a.2.2,0,0,0,0-.11.2.2,0,0,0-.21-.14.17.17,0,0,1,.09.14l-.07.08a.08.08,0,0,0,0,.11v0h0a.06.06,0,0,1,0,.06h0s-.07-.23-.17-.24h-.06s-.11-.18-.24-.06h.1s0,.1,0,.1.06.14.18.14h0c-.17-.08-.25,0-.26.08v.08c-.06,0-.07.13,0,.2s0-.09,0-.11h.15c-.11.11-.1.2,0,.24a.13.13,0,0,1-.19,0,.16.16,0,0,1-.06-.12c-.15.24.1.4.3.31v.26h0a.12.12,0,0,0,.1.13h0a.11.11,0,0,1,0-.08c0,.06.08.12.1.17a1.77,1.77,0,0,0,.76.84,2.13,2.13,0,0,0-.54.5c-.13.12-.32.26-.43.2s-.06-.09-.14-.14a.17.17,0,0,0-.14,0H838a.19.19,0,0,0-.24.06.14.14,0,0,1,.15,0v.08s0,.12.28.11h0a.15.15,0,0,1-.13,0c-.1,0-.15-.11-.23,0a.08.08,0,0,1,0,.07h0c-.08,0-.17.21-.06.29a.2.2,0,0,1,.06-.14h0c.08.11.15.16.31-.07h0s-.12.26,0,.29h.07a.24.24,0,0,0,.27.12.28.28,0,0,1-.15-.15h.07c.09-.09,0-.2,0-.26h0s.09.16.23.09a.18.18,0,0,0,.09-.15.69.69,0,0,1,.42-.08c0-.09.07-.2.24-.24a.26.26,0,0,1,.3.05.75.75,0,0,1,.18-.3c0,.68.88.66,1.1,1.07a1.3,1.3,0,0,0-.75-.14.8.8,0,0,0-.66.49,1.06,1.06,0,0,0,.39.73h-.6c-.2,0-.24-.34-.48-.25a.15.15,0,0,0-.07,0c-.09,0-.23.11-.2.21a.29.29,0,0,1,.16-.09v.06s0,.07.09.07h.09c0,.09-.3-.06-.24.21v.07c0,.07,0,.16.18.11,0,0-.07,0-.06-.09h0v.14a.15.15,0,0,0,.26.09s-.13,0-.13-.06h0a.06.06,0,0,0,0-.08H839a.22.22,0,0,0,.2.07.1.1,0,0,0,.08-.06l.11.06c0-.09,0-.18.26,0l.15-.12s.19.1.27,0,.06-.12.06-.22-.14-.19-.19-.38c-.06-.34.41-.52.68-.47a1.53,1.53,0,0,0,.84.94c.32.11.44-.23.54-.18s0,0,.06.09,0,.29,0,.36-.19,0-.3,0a.18.18,0,0,0-.13.06.24.24,0,0,0-.2.21.38.38,0,0,1,.18-.09v.05a.14.14,0,0,0,.12.14.13.13,0,0,0,.12-.06h0s-.22.19-.1.23h.07a.2.2,0,0,0,.12.18v-.16H842c.09,0,0-.16.14-.21h0v.24h.06a.18.18,0,0,0,.23.07h0s-.1,0-.11-.07.06-.08.06-.09c.07-.2-.12-.2-.12-.29s.2,0,.2-.23h0a.24.24,0,0,0,.21-.18.53.53,0,0,1-.25,0Z" transform="translate(-788.81 -498.56)"/><path class="cls-5" d="M833.3,544.16h-.15a.34.34,0,0,0-.34.34.35.35,0,0,0,.34.34h.11V545c0,.32-.14.87-.23,1.51l-1.65-2.36a7.89,7.89,0,0,1,1.64-.65c.27,0,.34.13.27.66m-.63,4.1-2.58-3.7a5.67,5.67,0,0,0,.83-.24l2,2.79c0,.39-.12.79-.19,1.18m-.26,1.68-3.73-5.32h.86l3,4.24c-.05.41-.12.78-.16,1.09m-4.16-5.25,4,5.8c-2.16-.84-4.3-2.78-4-5.8m6-.46h-.18v-.17a1,1,0,0,0-.81-1.17.75.75,0,0,0-.26,0c-.61,0-1.82.8-3.48.8a4.67,4.67,0,0,1-2.09-.66l-.22.5h0a.42.42,0,0,0-.41-.43.4.4,0,0,0-.43.41.42.42,0,0,0,.41.43h0a.47.47,0,0,0,.33-.14l-.21.49.22.09a6.85,6.85,0,0,0,5,6.77c.49-.13,1-.06,1,.47a.42.42,0,0,1-.36.47h-.11c-.2,0-.32-.11-.32-.25s.39-.09.42-.24-.07-.29-.3-.29a.54.54,0,0,0-.58.52h0a.74.74,0,0,0,.71.73h0a1,1,0,0,0,1-1,.37.37,0,0,0,0-.11c.17,0,.38,0,.43-.19v-.52h-.16l.16-5.9h.14a.35.35,0,0,0,.41-.26s0,0,0,0a.35.35,0,0,0-.33-.37h0" transform="translate(-788.81 -498.56)"/><path class="cls-5" d="M831.32,531.93a.07.07,0,0,1,.07-.07.06.06,0,0,0,.06-.05h0a.13.13,0,0,0-.06-.1c-.07,0,.06,0,0-.06s-.07,0-.09,0h.07l.2.09a.05.05,0,0,1,0,.06v.07c0,.07-.1,0-.12,0a.07.07,0,0,0,0,.1v.11s-.09.12-.16.07-.07-.11,0-.17m.24-.53c0,.07-.11.11-.17.06s0-.08,0-.18a.84.84,0,0,0,.23.12m.16.09a1.45,1.45,0,0,0,.25.1c-.11,0-.08.07-.16.07a.13.13,0,0,1-.1-.16h0m-.57.14h0m2.41.88c.79,0,1.17-.25,1.17-.5,0-.87-2.16-.33-2.16-.86a.3.3,0,0,1,.16-.24h0c1.09-.1,1.1-.85,1.88-1-.93-.13-1.06.61-1.47.63a.48.48,0,0,0,.26-.44c-.18.25-.59.28-.83.57a.19.19,0,0,0,0,.15.42.42,0,0,0-.22.32c0,.82,2.19.26,2.19.86,0,.21-.37.35-1,.35-.44,0-.78-.32-1.61-.11,0-.14.27-.4.17-.53a.21.21,0,0,0,.14-.17.28.28,0,0,0-.17-.07v-.11a.19.19,0,0,0,0-.13.64.64,0,0,0-.19-.13h-.42a.23.23,0,0,0-.16-.06.3.3,0,0,0,0,.23c-.08,0-.16.21-.23.19s-.08.06-.08.06-.08.26-.16.27l0,.07a2.5,2.5,0,0,0-.11.49h0l-.16-.14c-.13-.07-.13-.13-.1-.25s.08-.22.1-.31a.27.27,0,0,0,0-.1.14.14,0,0,0-.17-.11.11.11,0,0,1,0,.11h-.06v.11h0s0-.18-.12-.19h-.07s-.08-.15-.21,0h.09v.08c0,.09,0,.11.14.12h0s-.22,0-.24.07h0c-.06,0-.09.11,0,.17s0-.08,0-.09h.14c-.13.09-.13.19,0,.22h0c0,.18-.29.14-.25,0-.17.19.06.35.26.25h0a.06.06,0,0,0,.06.06h0c0,.05,0,.12.08.13s0-.08,0-.08a1.93,1.93,0,0,0,.2.27,1.92,1.92,0,0,1-.48.15.86.86,0,0,0-.39,0c-.12.06-.43.18-.52,0s0-.09,0-.15-.07-.08-.1-.08h-.07a.18.18,0,0,0-.22,0,.13.13,0,0,1,.12.08.06.06,0,0,1,0,.06s0,.11.18.17h-.1c-.08-.06-.09-.15-.18-.09h-.06s-.22.1-.16.2a.17.17,0,0,1,.1-.09V533c0,.1.07.18.26,0h0s0,.54.15.54h0a.19.19,0,0,0,.17.18.16.16,0,0,1-.05-.16h.05c.1,0,0-.15.1-.19h0s0,.16.14.15a.17.17,0,0,0,.16-.16h0a.11.11,0,0,1,.07.13l.09-.08a.17.17,0,0,1,0,.19.28.28,0,0,0,.19-.19l.08.13h0a.33.33,0,0,0,.24,0h0v.11h0a.28.28,0,0,0,.07.18c0-.28.19-.17.36-.29h0a.1.1,0,0,1-.08.09c-.09,0,.22-.07.22-.17s.06,0,.12-.1a.22.22,0,0,0,.21-.09v.14c.18,0,.39-.21.46-.23.41-.08-.26-.38.58-.33a.34.34,0,0,0,.24-.09c-.05.12-.05.38.07.4a.32.32,0,0,1,.21.1h0a.41.41,0,0,0-.17.05c-.19.13-.21-.3-.41-.21h0c-.09,0-.21.11-.2.19a.21.21,0,0,1,.14-.07h0a.07.07,0,0,0,.08.07h.09s-.25,0-.21.18v.06c0,.07,0,.13.16.09s-.06,0,0-.07h0v.06a.06.06,0,0,0,0,.06.13.13,0,0,0,.22.08s-.1,0-.11-.06h0a.08.08,0,0,0,0-.07h.06a.14.14,0,0,0,.16.06c.14,0,0-.16.13-.19h.66a.34.34,0,0,0-.1-.33c-.07,0,0-.11-.06-.21a1.18,1.18,0,0,0,.42.1c.29,0,0,0,.14-.13a.47.47,0,0,1,.37,0s.07,0,0,.08,0,.18,0,.24-.16,0-.25,0a.07.07,0,0,0-.09,0,.17.17,0,0,0-.16.17.21.21,0,0,1,.13-.07h0a.12.12,0,0,0,.12.11l.09,0h0s-.17.14-.09.19h.06a.14.14,0,0,0,.1.15v-.14h0s0-.13.11-.16h0v.19h0c0,.06.09.1.18.06s-.07,0-.08-.07v-.06c0-.17-.08-.17-.08-.24s.15,0,.15-.19,0-.08-.06-.09h0a.14.14,0,0,0,.11-.05c-.12,0-.08-.09-.1-.16h0a.13.13,0,0,0,0-.16c-.06-.09-.17.11-.18,0s0-.09-.13-.07-.3-.08-.68-.11h0" transform="translate(-788.81 -498.56)"/><path class="cls-5" d="M830,536.66h0m-.62-1.34s0-.1.08-.1a.08.08,0,0,0,.09-.06h0s0-.08-.1-.12.1,0,.07-.07-.09,0-.1,0,0,0,0-.07,0,0,.08,0l.24.12a.06.06,0,0,1,.06.06v.08s0-.07-.07-.08,0,0,0,.09-.11,0-.14,0a.09.09,0,0,0,0,.12v.12c0,.05-.09.14-.17.09a.13.13,0,0,1,0-.19h0m.29-.62c0,.06-.12.13-.2,0s0-.08-.07-.2a1.17,1.17,0,0,0,.27.15m.19.09a.69.69,0,0,0,.29.12c-.14,0-.1.09-.19.09s-.12-.13-.1-.21m-1.23,1.1h0m6-.44c0-.24-.27-.39-1-.39s-2.51.29-2.51-.15c0-.21.34-.19.75-.17a.32.32,0,0,0,.17.1c1,.29,2.16-.24,2.77-.07-.71-.54-1.31,0-2.06-.15.43,0,.59-.12.61-.24-.34.22-1-.11-1.4.14H832c-.55,0-1,0-1,.34,0,.77,2.06.33,2.71.33s.79.06.79.18-.65.24-1,.24a15.66,15.66,0,0,0-3.28-.1c.08-.16.27-.38.17-.5a.29.29,0,0,0,.16-.2.48.48,0,0,0-.18-.08.2.2,0,0,0-.06-.14c-.06,0,0-.11,0-.13a.62.62,0,0,0-.22-.15l-.24-.06a.28.28,0,0,0-.13,0c-.06,0-.12,0-.13.06a.27.27,0,0,0-.18-.07.26.26,0,0,0,0,.27c-.09,0-.18.24-.28.21s.07.09.1.1-.12.3-.21.3.1.11.13.12,0,.21,0,.29l-.37.09h-.09a1.58,1.58,0,0,0-.34-.29c-.15-.08-.15-.16-.14-.32s.07-.26.07-.38v-.12a.17.17,0,0,0-.2-.13.16.16,0,0,1,.09.13l-.07.07a.1.1,0,0,0-.05,0h0v.06h0s-.07-.23-.16-.24h-.06c0-.11-.11-.18-.23-.06a.09.09,0,0,1,.1,0v.1c0,.1,0,.13.17.14h0s-.24,0-.25.08,0,0,0,.06a.13.13,0,0,0,0,.18l0,0s0-.1,0-.11h.16s-.11.23,0,.25h0a.15.15,0,1,1-.29,0c-.16.26.11.44.32.32h0s0,.08.07.09H828s0,.13.09.14,0-.09,0-.09a1.15,1.15,0,0,0,.31.27c.18.1.24.22.33.12,0,.15.13.32.1.32a1.63,1.63,0,0,0-.54,0c-.15.07-.51.2-.61.06s0-.11-.07-.18a.13.13,0,0,0-.12-.09h-.08a.18.18,0,0,0-.24,0,.14.14,0,0,1,.13.09v.07s0,.12.22.2h0a.13.13,0,0,1-.12,0c-.08-.07-.1-.17-.2-.11h-.08c-.11,0-.26.11-.19.23a.15.15,0,0,1,.12-.1v.07c0,.11.06.21.31,0h0s-.21.19-.09.28h0a.25.25,0,0,0,.19.24.36.36,0,0,1-.06-.2h.06c.12,0,.06-.19.13-.22h0c0,.07,0,.19.18.18s.19-.12.18-.18h0a.12.12,0,0,1,.06.15.16.16,0,0,0,.1-.11.21.21,0,0,1,0,.24.32.32,0,0,0,.21-.23.14.14,0,0,1,0,.08h0a.39.39,0,0,0,.26,0h0a.29.29,0,0,0,0,.13v-.07a.37.37,0,0,0,.08.22c0-.35.21-.22.43-.36h0a.11.11,0,0,1-.09.11c.23.06.62-.3.67-.45H830c.67.05.2-.61,1.28-.42a.48.48,0,0,0,.27-.12c-.08.14-.08.43.07.46a.44.44,0,0,1,.25.11h0a.41.41,0,0,0-.2.06c-.24.15-.24-.35-.49-.25h-.06c-.1,0-.24.12-.21.22a.22.22,0,0,1,.16-.09v.06a.08.08,0,0,0,.09.08h.09c0,.09-.3-.06-.25.2v.08c0,.07,0,.15.19.11,0,0-.07,0-.06-.1h.06a.11.11,0,0,0,0,.08.16.16,0,0,0,.26.1s-.13,0-.14-.08h.07v-.1h.07a.16.16,0,0,0,.19.09c.17-.06,0-.2.16-.24h.45a.34.34,0,0,0-.13-.38c-.07,0,0-.15-.06-.26a1.3,1.3,0,0,0,.48.11.86.86,0,0,0,.6-.15.54.54,0,0,1,.43,0,.06.06,0,0,1,.06.08,1.41,1.41,0,0,0,0,.29c0,.08-.19,0-.29,0a.09.09,0,0,0-.12,0,.18.18,0,0,0-.17.19.3.3,0,0,1,.16-.08h0a.12.12,0,0,0,.13.12.13.13,0,0,0,.1,0h0s-.2.18-.1.21h.07a.17.17,0,0,0,.12.17v-.15h.07c.07,0,0-.15.13-.21h0v.23h.07a.13.13,0,0,0,.17.08h0a.36.36,0,0,1-.09-.08s.06-.07.06-.09c.05-.18-.12-.18-.12-.26s.19,0,.19-.22a.14.14,0,0,0-.07-.12h0s.1,0,.13-.07c-.14,0-.11-.1-.12-.18h0a.2.2,0,0,0,.07-.2c0,.07-.2.13-.22,0s0-.09-.14-.06a5.71,5.71,0,0,1-.84-.07c.5,0,1.25-.14,1.25-.42" transform="translate(-788.81 -498.56)"/><path class="cls-5" d="M828.48,538.73c0-.05,0-.09.07-.09h.09s0-.09-.08-.12.08,0,.06-.07-.1,0-.11,0,0,0,0-.06,0,0,.08,0l.23.11h0a.14.14,0,0,1,0,.09.09.09,0,0,0-.08-.09c-.08,0,0,0,0,.09s-.11,0-.13,0a.06.06,0,0,0,0,.09v.14a.12.12,0,0,1-.14.09h0a.15.15,0,0,1,0-.18m.27-.59a.11.11,0,0,1-.18.06c-.06-.06,0-.08-.07-.2a1.23,1.23,0,0,0,.25.14m.17.09a1.78,1.78,0,0,0,.29.12c-.13,0-.1.07-.18.07s-.11-.11-.11-.19m5.37.6c0-.22-.24-.37-1-.37s-3,.28-3-.14c0-.25.77-.15,1.33-.14a.45.45,0,0,0,.15.11c1,.26,1.95-.37,2.61-.14-.52-.49-1.22,0-1.93-.1.42,0,.85-.09.88-.2-.31.22-1.24-.15-1.63.1a.08.08,0,0,0-.07,0c-.69,0-1.54-.09-1.54.32,0,.73,2.57.31,3.2.31s.73.06.73.17-.61.22-1,.22a17.22,17.22,0,0,0-3.93,0c0-.17.29-.41.17-.54a.18.18,0,0,0,.17-.18.32.32,0,0,0-.17-.09v-.25a.85.85,0,0,0-.21-.14.68.68,0,0,0-.23-.07h-.13s-.12,0-.13.06a.27.27,0,0,0-.16-.08.3.3,0,0,0,0,.26c-.09,0-.18.23-.25.21s0,.07.08.09-.1.29-.19.3l.08.08v.23h-.31c-.12,0-.2-.21-.4-.32s-.15-.15-.15-.3.07-.25.06-.36a.2.2,0,0,1,0-.11c0-.08-.14-.15-.19-.13a.19.19,0,0,1,.07.13l-.06.06a.1.1,0,0,0,0,.14h0V538h0s-.08-.22-.16-.23h-.06c0-.1-.1-.17-.21-.06s.06,0,.08,0a.17.17,0,0,0,0,.1c0,.09.07.13.17.13h0c-.17-.08-.25,0-.25.07v.07s-.07.13,0,.19,0-.09,0-.1h0v.05h.1s.05.33.25.33h0a.14.14,0,1,1-.27,0,.23.23,0,0,0,.32.3h0a.07.07,0,0,0,.07.07h0s0,.12.09.13,0-.08,0-.08a1.4,1.4,0,0,0,.49.45s.14,0,.16-.09,0,0,.07.08.1.3.07.3a2.08,2.08,0,0,0-.61,0c-.14.08-.48.2-.57.06s0-.1-.07-.17a.16.16,0,0,0-.11-.09h-.09a.19.19,0,0,0-.23,0,.19.19,0,0,1,.14.09v.06s0,.12.2.19h0a.08.08,0,0,1-.11,0c-.09-.06-.1-.16-.19-.1h-.07c-.09,0-.24.11-.17.22a.13.13,0,0,1,.12-.1v.06c0,.12.06.2.29,0h0s-.2.19-.09.26h0a.19.19,0,0,0,.16.21h0a.24.24,0,0,1-.07-.19h.06s.06-.16.12-.2h0s0,.18.16.16.19-.12.17-.18h0a.12.12,0,0,1,0,.13l.1-.08a.26.26,0,0,1,0,.21.28.28,0,0,0,.2-.21v.07h0a.53.53,0,0,0,.25,0h0v.13s0-.06.06-.06,0,.13.07.2c0-.32.41-.16.62-.29h0a.27.27,0,0,1-.09.12.57.57,0,0,0,.27-.11h0L829,540v-.1h.1c.22,0,.2-.16.28-.14,1.2.16.51-.51,1.92-.38.07,0,.09,0,.16-.09-.08.14-.08.38.06.4a.43.43,0,0,1,.25.1h-.2c-.22.14-.22-.32-.44-.23H831c-.07,0-.22.1-.2.2a.21.21,0,0,1,.15-.09v0a.08.08,0,0,0,.09.08h.09s-.3,0-.24.19V540c0,.07,0,.15.18.1s-.07,0-.07-.08h.07v.13a.15.15,0,0,0,.17.12.11.11,0,0,0,.08,0s-.12,0-.12-.06h0v-.09h0a.17.17,0,0,0,.18.07c.16,0,0-.18.15-.21a.07.07,0,0,1,.09,0H832a.32.32,0,0,0-.12-.35c-.08,0,0-.13-.07-.25a2,2,0,0,0,.46.12,1,1,0,0,0,.57-.14.52.52,0,0,1,.4-.05s.09,0,.08.08a2.43,2.43,0,0,0,0,.27c0,.07-.18,0-.27,0a.09.09,0,0,0-.1,0,.2.2,0,0,0-.19.19.32.32,0,0,1,.16-.08h0a.12.12,0,0,0,.22.08h0s-.19.17-.09.21h0a.16.16,0,0,0,.13.15v-.14h0c.08,0,0-.15.12-.19h0v.21h.06a.14.14,0,0,0,.2.06h0s-.08,0-.09-.08l0-.07c.06-.18-.1-.19-.1-.25s.18,0,.18-.23a.12.12,0,0,0-.08-.1h0c.06,0,.11,0,.13-.06s-.08-.1-.11-.17h0a.24.24,0,0,0,.06-.2c0,.07-.19.13-.2,0s0-.1-.15-.07a4.25,4.25,0,0,1-.8-.07c.43,0,1.19-.11,1.19-.39" transform="translate(-788.81 -498.56)"/><path class="cls-5" d="M840,544.75h0m-1.1-1.72h0m-.06.26Zm.2.33s0-.09.07-.09.08,0,.1-.06,0-.08-.09-.11.09,0,.06-.07-.09,0-.09,0v-.06a.06.06,0,0,1,.08,0l.23.1v.14s0-.07-.06-.07,0,0,0,.08-.1-.05-.13,0a.08.08,0,0,0,0,.11.24.24,0,0,1,0,.12.13.13,0,0,1-.15.09h0a.13.13,0,0,1,0-.19h0m.27-.6a.11.11,0,0,1-.18.07c-.07-.06,0-.08-.07-.2a1.46,1.46,0,0,0,.25.13m.18.1a1.18,1.18,0,0,0,.28.12c-.13,0-.1.07-.17.07s-.12-.11-.11-.19m5.29,1.37h0a.25.25,0,0,0,.07-.2c0,.07-.19.14-.2,0s0-.09-.13-.06a8.09,8.09,0,0,1-.86-.07h0c.42,0,1.19-.09,1.19-.36s-.25-.37-1-.37-3,.27-3-.14c0-.26.77-.16,1.33-.14a.32.32,0,0,0,.17.1c.94.27,2-.44,2.59-.28-.75-.25-1.22.2-1.93,0,.42,0,.86-.09.88-.21-.32.22-1.24-.14-1.63.1l-.06,0c-.69,0-1.54-.08-1.54.33,0,.72,2.56.3,3.18.3s.75.06.75.18-.61.22-1,.22a16.15,16.15,0,0,0-3.93,0c0-.17.29-.41.18-.54a.29.29,0,0,0,.15-.19.27.27,0,0,0-.18-.08V543s0-.11-.06-.13a.85.85,0,0,0-.21-.14.46.46,0,0,0-.22-.06H839a.28.28,0,0,0-.16-.07.3.3,0,0,0,0,.26c-.09,0-.18.22-.26.2s0,.09.08.1-.1.28-.18.29.09.1.12.1a.81.81,0,0,0,0,.22h-.36c-.12,0-.21-.2-.41-.31s-.15-.16-.15-.31.07-.24.06-.35v-.12a.18.18,0,0,0-.19-.12.15.15,0,0,1,.08.12l-.06.07a.07.07,0,0,0,0,.12V543h0s-.08-.22-.15-.23h-.07c0-.09-.1-.16-.21-.05a.07.07,0,0,1,.09,0v.09c0,.09.07.13.17.13h0s-.24,0-.24.07,0,.06,0,.07-.08.13,0,.2a.08.08,0,0,1,0-.11h.09s-.09.22.05.25h0c0,.21-.29.16-.26,0-.15.24.11.42.31.3h0a.08.08,0,0,0,.08.08h0s0,.13.1.14,0-.08,0-.08a1.4,1.4,0,0,0,.48.46l.18-.11a.16.16,0,0,0,.1.14h0c0,.14.15.29.12.29a1,1,0,0,0-.42,0c-.13.08-.48.2-.58.07s0-.11-.07-.18a.13.13,0,0,0-.11-.08h-.07a.18.18,0,0,0-.24,0,.16.16,0,0,1,.13.08v.07s0,.12.2.19h0a.08.08,0,0,1-.1,0h0c-.08,0-.1-.15-.2-.09H837c-.09,0-.23.1-.18.21a.15.15,0,0,1,.13-.1.06.06,0,0,0,0,.06c0,.12.07.21.29.06h0s-.2.19-.08.26h0a.19.19,0,0,0,.18.21h0a.2.2,0,0,1-.07-.19h.07c.1,0,.06-.17.12-.21h0s0,.17.16.16a.16.16,0,0,0,.16-.16v0h0a.17.17,0,0,1,.06.14l.09-.09a.22.22,0,0,1,0,.22.34.34,0,0,0,.2-.22.22.22,0,0,1,.06.07h0a.39.39,0,0,0,.26,0h0a.15.15,0,0,0,0,.13.06.06,0,0,1,.05-.06.31.31,0,0,0,.08.2c0-.33.2-.2.4-.33h0a.52.52,0,0,1-.1.11c.08,0,.38-.13.38-.26s.11,0,.21,0,.18-.16.26-.15c1.21.17.52-.51,1.92-.37.08,0,.11-.09.16-.13-.07.13-.07.41.08.43a.52.52,0,0,1,.24.11h0a.37.37,0,0,0-.21,0c-.21.14-.22-.32-.45-.24l-.07,0c-.09,0-.21.11-.19.2a.18.18,0,0,1,.15-.08h0a.08.08,0,0,0,.08.08h.09c0,.08-.29,0-.24.18l0,.09c0,.06,0,.14.18.1,0,0-.07-.06-.06-.09h0a.11.11,0,0,0,0,.08.13.13,0,0,0,.15.12l.09,0s-.11,0-.12,0h.06V545h.06a.14.14,0,0,0,.18.06c.16-.05,0-.19.16-.21h.43a.39.39,0,0,0-.13-.36c-.07,0,0-.14-.06-.25a1,1,0,0,0,.46.11,1,1,0,0,0,.6-.14.49.49,0,0,1,.41,0,.06.06,0,0,1,.06.08,1.22,1.22,0,0,0,0,.27c0,.08-.18,0-.28,0a.09.09,0,0,0-.1,0,.23.23,0,0,0-.2.18l.16-.07h0a.11.11,0,0,0,.11.12.16.16,0,0,0,.11-.05h0s-.21.17-.11.21h.06a.14.14,0,0,0,.09.16V545h.07c.07,0,0-.15.14-.19h0V545h.06c0,.06.09.11.2.06A.22.22,0,0,1,844,545l.07-.08c.06-.18-.09-.18-.08-.26s.18,0,.19-.21a.11.11,0,0,0-.07-.1h0c.06,0,.11,0,.14-.06-.14,0-.08-.1-.1-.17" transform="translate(-788.81 -498.56)"/><path class="cls-5" d="M839.44,546.56c-.08,0-.11-.11-.09-.19a1.69,1.69,0,0,0,.27.11c-.13,0-.1.08-.18.08m-.12.15a.07.07,0,0,0-.07-.07c-.07,0,0,0,0,.08s-.11,0-.14,0,0,.06,0,.11v.1a.11.11,0,0,1-.13.09h0a.14.14,0,0,1-.05-.17s.05-.09.07-.09a.08.08,0,0,0,.1,0c0-.06,0-.08-.09-.12s.09,0,.06-.05-.08,0-.09,0v-.06c0-.06,0,0,.07,0l.22.11v.13m-.14-.42c-.05.06-.11.11-.18.05s0-.08,0-.19a1.09,1.09,0,0,0,.23.14m2.27,0a.26.26,0,0,0,.17.12c.91.26,1.93-.41,2.47-.26-.71-.25-1.15.18-1.83,0,.4,0,.82-.08.83-.19-.3.2-1.18-.13-1.54.09h-.06c-.5,0-.9,0-.9.31,0,.7,1.87.28,2.46.28s.51.07.51.18-.67.2-1,.2a14.32,14.32,0,0,0-3-.07c.07-.15.24-.35.15-.46a.19.19,0,0,0,.14-.17.26.26,0,0,0-.17-.09v-.12s0-.1-.05-.12a.57.57,0,0,0-.21-.13.44.44,0,0,0-.19-.07H839s-.11,0-.12.06a.21.21,0,0,0-.16-.08.39.39,0,0,0,0,.26c-.08,0-.16.21-.23.19s0,.08.07.08-.1.28-.18.28a.32.32,0,0,0,.08.09.57.57,0,0,0,0,.26h-.08a.94.94,0,0,1-.37-.11c-.13-.07-.13-.15-.13-.29s.05-.22,0-.34v-.11a.2.2,0,0,0-.2-.12.17.17,0,0,1,.08.12v.19h0s-.07-.22-.15-.22h-.06c0-.09-.1-.16-.2,0h.08v.1c0,.09.07.13.16.13h0s-.22,0-.22.08v.06c0,.06-.08.12,0,.19s0-.09,0-.1h.09s-.09.22,0,.23h0a.13.13,0,1,1-.26,0c-.14.23.11.4.31.28h0s0,.08.07.08h0s0,.11.09.13,0-.08,0-.08,0-.09.26,0a.22.22,0,0,0,.09.1h.18v.33a1.41,1.41,0,0,0-.41,0c-.13.08-.45.2-.54.06s0-.09-.07-.16a.12.12,0,0,0-.1-.08h.24a.21.21,0,0,0-.24,0,.14.14,0,0,1,.13.08.08.08,0,0,0,0,.07s0,.11.19.17h0a.11.11,0,0,1-.11,0c-.08-.06-.09-.15-.18-.09h-.07c-.1,0-.23.11-.17.21a.14.14,0,0,1,.11-.09v.06c0,.11.07.19.28,0h0s-.19.19-.08.26h0a.18.18,0,0,0,.16.19h0a.2.2,0,0,1-.07-.17h.07c.1,0,.06-.17.11-.21h0s0,.17.15.16.18-.11.16-.18h0a.17.17,0,0,1,0,.14s.07,0,.09-.09a.2.2,0,0,1,0,.21.29.29,0,0,0,.19-.21v.06h0a.45.45,0,0,0,.23,0h0v.13s0-.07.05-.07,0,.13.06.2c0-.31.28-.23.48-.36h0a.22.22,0,0,1-.09.1c.21.13.42-.16.49-.31v-.06a.06.06,0,0,1,0,.08h0c.2,0,.17-.15.26-.14.6,0,.14-.51,1.11-.34a.6.6,0,0,0,.25-.1c-.07.12-.08.39.06.42a.48.48,0,0,1,.24.09h0a.38.38,0,0,0-.19,0c-.21.13-.21-.31-.44-.23v.05c-.1,0-.22.1-.2.19a.18.18,0,0,1,.15-.08h0a.07.07,0,0,0,.08.07h.09c0,.08-.27,0-.23.19a.13.13,0,0,0,0,.06c0,.08,0,.15.17.1s-.07,0-.06-.08h.06a.08.08,0,0,0,0,.07.15.15,0,0,0,.24.1s-.12,0-.13-.07h.07v-.08h0a.11.11,0,0,0,.15.07h0c.14-.05,0-.18.14-.2h.41a.33.33,0,0,0-.12-.34c-.07,0,0-.13-.06-.24a1.06,1.06,0,0,0,.44.11,1.28,1.28,0,0,0,.63-.13.44.44,0,0,1,.39,0s.08,0,0,.08,0,.18-.08.25-.17,0-.27,0a.09.09,0,0,0-.1,0,.23.23,0,0,0-.21.19.23.23,0,0,1,.16-.08h0s.1.15.18.06h0s-.22.16-.14.21h.06a.11.11,0,0,0,0,.15v-.14h.06c.07,0,.07-.14.16-.18h0s-.08.18,0,.2h0c0,.07.08.1.19.06s-.08,0-.08-.07l.08-.07c.09-.18-.06-.18,0-.25s.18,0,.22-.2a.11.11,0,0,0,0-.11h0a.2.2,0,0,0,.14-.06c-.13,0-.07-.09-.07-.15h0a.22.22,0,0,0,.1-.18c0,.06-.2.12-.19,0s0-.09-.11-.06a3.52,3.52,0,0,1-.93-.07h0c.4,0,1.22-.08,1.22-.34s0-.36-.73-.36-2.28.26-2.28-.13c0-.19.3-.17.67-.16" transform="translate(-788.81 -498.56)"/><path class="cls-5" d="M838.61,550.11s0-.09.07-.09h.09s0-.09-.08-.1.08,0,0-.07-.09,0-.09,0v-.06c0-.06,0,0,.07,0l.2.1V550s0-.07-.06-.08,0,0,0,.08-.11,0-.13,0a.17.17,0,0,0,0,.1.09.09,0,0,1,0,.1.1.1,0,0,1-.12.08h0a.12.12,0,0,1,0-.16m.25-.53s-.11.1-.17,0,0-.07,0-.17l.22.13m.17.07a.67.67,0,0,0,.26.1c-.12,0-.09.08-.17.07a.13.13,0,0,1-.09-.17m1.72-.08a.25.25,0,0,0,.16.12c.9.25,1.92-.42,2.48-.27-.72-.25-1.16.18-1.84,0,.4,0,.82-.08.84-.19-.31.2-1.19-.14-1.55.09a.14.14,0,0,0-.08.07.5.5,0,0,0-.51.41c0,.59,2.3.13,2.3.32s-.44.31-1,.31a6.14,6.14,0,0,0-2.26,0h0c.08-.17.29-.42.19-.53a.28.28,0,0,0,.15-.17.27.27,0,0,0-.16-.08v-.23a.63.63,0,0,0-.2-.13.7.7,0,0,0-.19-.06h-.25a.21.21,0,0,0-.15-.07.36.36,0,0,0,0,.25c-.08,0-.17.2-.25.17s.06.09.08.09-.08.26-.16.27l.08.08a1.32,1.32,0,0,0,0,.56,3.84,3.84,0,0,0-.5-.56.25.25,0,0,1-.14-.28v-.43a.17.17,0,0,0-.18-.11.15.15,0,0,1,.08.11l-.06.07a.08.08,0,0,0,0,.11h0s-.06-.19-.14-.2h-.05s-.1-.15-.2-.05.07,0,.08,0v.08c0,.09,0,.13.15.13h0c-.15-.06-.22,0-.23.07a.06.06,0,0,0,0,.06c-.05,0-.07.11,0,.18s0-.08,0-.09h.1c-.09.09-.07.19,0,.22h0a.12.12,0,1,1-.24,0c-.14.21.1.38.28.27h0a.06.06,0,0,0,.06.06h0a.11.11,0,0,0,.09.12v-.07a.56.56,0,0,0,.26.45.3.3,0,0,0,.33.22c0,.11.11.21.09.21a1.7,1.7,0,0,0-.45,0,.83.83,0,0,1-.29.1h0a.25.25,0,0,1-.22-.05.29.29,0,0,0-.06-.16.13.13,0,0,0-.08-.07H837a.17.17,0,0,0-.21,0,.15.15,0,0,1,.12.08v.06s0,.11.18.18h0a.13.13,0,0,1-.12,0c-.07-.06-.08-.14-.17-.09h-.06c-.08,0-.21.1-.15.21a.12.12,0,0,1,.11-.1v.06s.06.18.27,0h0s-.17.16-.07.24h0a.17.17,0,0,0,.15.2h0a.17.17,0,0,1-.06-.17h.06s0-.16.09-.2h0s0,.16.14.15a.17.17,0,0,0,.16-.17h0a.09.09,0,0,1,.06.12s.06,0,.08-.09a.15.15,0,0,1,0,.2.27.27,0,0,0,.18-.19.08.08,0,0,1,0,.07h0a.49.49,0,0,0,.24,0h0a.11.11,0,0,0,0,.11v-.06a.31.31,0,0,0,.06.18c0-.29.19-.18.37-.3h0a.14.14,0,0,1-.08.09c.07,0,.28-.09.28-.19a1.34,1.34,0,0,0,.17-.51h.07c.25,0,.36-.19.61-.21a.59.59,0,0,0-.08.35c0,.13.17.28.23.32h0a.45.45,0,0,0-.19,0c-.19.13-.19-.3-.41-.22h0s-.21.1-.18.19a.2.2,0,0,1,.13-.08h0a.07.07,0,0,0,.07.07h.09s-.26,0-.21.18v.06c0,.07,0,.14.17.1,0,0-.08,0-.06-.09h0v.07c0,.07.1.16.23.07s-.11,0-.12,0h.06v-.08h0a.14.14,0,0,0,.16.07h0c.14,0,0-.17.14-.2h.3a.27.27,0,0,0-.1-.31c-.06,0,.1-.48-.23-.68.16,0,.66.1.75,0a.86.86,0,0,1,.35.16v.1a.51.51,0,0,1-.2.16h0s-.1-.12-.14-.13a.08.08,0,0,0-.11,0,.17.17,0,0,0-.21.08.22.22,0,0,1,.16,0h0v.07h0s-.23,0-.19.07a0,0,0,0,1,0,.05.15.15,0,0,0,0,.18s0-.06.09-.09h0a.2.2,0,0,1,.21,0h0s-.15.09-.13.15a.06.06,0,0,1,0,.06.15.15,0,0,0,.1.17c.1,0,0-.08,0-.11h.08c.15-.09.06-.19.1-.23s.13.09.25,0a.09.09,0,0,0,0-.12h0s.06.08.11,0,0-.12.06-.18h0a.25.25,0,0,0,.17-.08c.07-.08-.25-.09-.14-.13s.18-.15.12-.23-.37-.17-.38-.35h.22c.78,0,1.28-.21,1.26-.46,0-.53-2.35,0-2.35-.34,0-.11.15-.2.33-.26" transform="translate(-788.81 -498.56)"/><path class="cls-5" d="M803,509a.56.56,0,0,0-.57-.56.57.57,0,0,0-.56.56.57.57,0,0,0,.56.56h0A.56.56,0,0,0,803,509" transform="translate(-788.81 -498.56)"/><path class="cls-5" d="M802.84,507.56a.55.55,0,0,0-.48-.64.57.57,0,0,0-.65.49v.15a.58.58,0,0,0,.65.49.57.57,0,0,0,.48-.49" transform="translate(-788.81 -498.56)"/><path class="cls-5" d="M803.16,506.88a.58.58,0,0,0,.65-.49.57.57,0,0,0-.49-.64h-.16a.55.55,0,0,0-.48.64.57.57,0,0,0,.48.49" transform="translate(-788.81 -498.56)"/><path class="cls-5" d="M804.66,506.78a.57.57,0,0,0,.58-.56.56.56,0,0,0-.56-.58.57.57,0,0,0-.58.56v0a.57.57,0,0,0,.56.56h0" transform="translate(-788.81 -498.56)"/><path class="cls-5" d="M811.07,505.73a.59.59,0,0,0,.8,0,.57.57,0,0,0-.09-.8.59.59,0,0,0-.71,0,.54.54,0,0,0,0,.77l0,0" transform="translate(-788.81 -498.56)"/><path class="cls-5" d="M810.94,504.56a.56.56,0,0,0-.73-.85l-.06.06a.57.57,0,0,0,.06.79.56.56,0,0,0,.73,0" transform="translate(-788.81 -498.56)"/><path class="cls-5" d="M809.44,504.29a.57.57,0,0,0-.09-.8.59.59,0,0,0-.71,0,.61.61,0,0,0,0,.8.59.59,0,0,0,.8,0" transform="translate(-788.81 -498.56)"/><path class="cls-5" d="M808.18,505.24a.61.61,0,0,0,0-.8.57.57,0,1,0-.82.8.58.58,0,0,0,.81,0h0" transform="translate(-788.81 -498.56)"/><path class="cls-5" d="M804.57,504.46l.46,1,.57-.69h.06a9.87,9.87,0,0,1,.09,1.22.72.72,0,0,0,.63.8.73.73,0,0,0,.8-.63V506a.76.76,0,0,0-.38-.64,5.26,5.26,0,0,1-.78-.71.11.11,0,0,0,0-.08l1,.09-.38-1-.71.61h0l-.06-1-1,.3.66.78v.08Z" transform="translate(-788.81 -498.56)"/><path class="cls-5" d="M811.11,506.21a1.64,1.64,0,0,1,.32.78,1.59,1.59,0,0,1-.59-.53l.11,1.31a1.09,1.09,0,0,1,.48-.47c0,.85-.39,1.21-.68,1.26a.56.56,0,0,1-.7-.35l0-.08c-.07-.39.26-.62.59-.28.07-.79-.56-.78-.84-.44a1.17,1.17,0,0,0-.34-1.61l-.15-.07a1.22,1.22,0,0,0,.28,1.7l0,0c-.52-.27-1,.18-.52.76.09-.5.53-.39.63,0s-.24.78-.8,1c-.81.24-1.07-.28-1.27-.72a1.13,1.13,0,0,1,1.06.22l-.4-1.28a1.29,1.29,0,0,1-.77.78,4.75,4.75,0,0,1,.25-1.13l-1.55.64a3.84,3.84,0,0,1,1,.63,1.32,1.32,0,0,1-1.1,0l.62,1.2c.12-.54.39-.86.61-.9.16.45.34,1-.41,1.39-.52.27-1.08.19-1.25-.12s0-.75.44-.46c-.07-.74-.71-.73-.9-.18a1.22,1.22,0,0,0-1-1.43h0a1.17,1.17,0,0,0,.76,1.48l0,0c-.43-.06-.88.38-.29.9,0-.47.4-.54.61-.21a.54.54,0,0,1-.15.76l0,0c-.25.16-.74.15-1.36-.44a1,1,0,0,1,.65,0l-.83-1a1.55,1.55,0,0,1,0,.8,1.53,1.53,0,0,1-.32-.78l-.63.56a7.31,7.31,0,0,1,2.12,2.1,29.1,29.1,0,0,1,3.45-1.71,26.88,26.88,0,0,1,3.66-1.18,7.22,7.22,0,0,1,.06-3Z" transform="translate(-788.81 -498.56)"/><path class="cls-5" d="M812.89,513.68c-.78.61-1.84,0-2.32-.76a24.26,24.26,0,0,0,3.19-1.47c-.78,1.2-.25,1.73-.88,2.23m-.17,8.18a1.54,1.54,0,0,1-2-.94.36.36,0,0,0,0-.11c-.2-.62-.36-1.12-.12-1.34.44-.44.59-.78.32-1.32s-1-.32-1.68-.15c.33-.59.36-1-.09-1s-.55.94-.85.83-.13-.6-.13-.87.24-.51.61-.66l2.93-1.12c.39-.14.64-.21.91.05s.66.44.52.72-.76-.33-1.19,0,0,.57.61.76c-.64.37-1.31.62-1.09,1.28s.51.71,1.12.72c.34,0,.57.48.85,1a1.45,1.45,0,0,1-.52,2l-.19.1m-5.6-5.92c-.78.07-.76-.69-2.15-1a24.4,24.4,0,0,0,3.32-1.11,1.63,1.63,0,0,1-1.17,2.13m16.36,26.2c.22-.6-.89-1.29-1-2.15a4.28,4.28,0,0,0-1-2.85c-1-1.13-4.35-4.74-5.37-5.89a1.57,1.57,0,0,1,1.48.43c.36.34,1.09,1,1.75,1.69a18.19,18.19,0,0,1,3.57-5.76,7.83,7.83,0,0,1,.61-.67,8,8,0,0,0-2,.66,3.12,3.12,0,0,0-.63-2.43c.25-1.38,0-3-3.09-5.11,1.59.38,2.53,1.81,3.75.71-1.09,0-1.12-2.41-5-4.39,1.5,0,2.68,2.4,4.43,1-1.64-.2-2.19-3.11-5.16-4,1,.11,2.09.62,3-.58-1,.25-1.63-.69-2.74-.78a3.65,3.65,0,0,0-.13-3,3.75,3.75,0,0,0-2.12.76c-.09-.7-.83-.75-1.48-.69,0,.29.18.74-.15.8a28.29,28.29,0,0,0-3.65,1.1,19.79,19.79,0,0,0-3.36,1.81c-.27.18-.51-.26-.68-.47-.48.41-.94.93-.6,1.47a4.25,4.25,0,0,0-2.29.82,2.71,2.71,0,0,0,1.81,2.21c-1.83,1.81-.18,3.49-1.78,5.07,2.26.09,1.86-3.06,3-3.5-.12,2.22-1.35,2.61-1.35,5,0,1.28.75,2.67.07,3.51,1.89-.52,1.41-4.71,2.57-6a3.35,3.35,0,0,1-.16,2.14c-.66,2,.09,4.61-1,5.48,1.93-.19,2.16-3.28,3.75-4.42-1.37,2.79-2.77,8.72-4.8,11.7-3.3,4.43-5.23,9.85-8.25,9.85a2.24,2.24,0,0,1-2.34-2.11,2.54,2.54,0,0,1,0-.39c0-5,8.65-8.52,8.65-13.9a3.18,3.18,0,0,0-3.07-3.3h-.09A4.32,4.32,0,0,0,796,527a2.53,2.53,0,0,0-1-.24c-3.06,0-2.25,5.51-4.91,5.46,1,.58,2.87-.57,3.95-2.11-.45,3.57-5.58,2.62-5.19,6.91.73-3.36,8.89-2.87,8.89-8a1.93,1.93,0,0,0-.71-1.37,3.13,3.13,0,0,1,1.73-.54,1.93,1.93,0,0,1,1.89,2c0,.06,0,.13,0,.19,0,4.51-8.61,8.27-8.61,13.84a3.93,3.93,0,0,0,.72,2.32A1.46,1.46,0,0,1,791,545c0,1.41,2,2.32,3.27,1.6a4.13,4.13,0,0,0,.9.19,2.45,2.45,0,0,1-2.4,1.32c2.13,1.66,5.79-.52,5.58-2.4,1.68-1.35,2.68-3.66,3.93-5.14-.09.36-.14.7-.2,1a17.87,17.87,0,0,0-2.71,7.21c-.26,2.47-1.52,4.7-3.25,4.7-.39,0-1-.5-1.31-.25-.54.46,0,1,0,1.41,0,.71-1.35,1.41-1.35,3.58,0,1,.57,2.15.36,2.8a4,4,0,0,0,1.55-2.45c.61,2.88-1.22,2.75.08,5.3a1.07,1.07,0,0,1,1.16-1,1.21,1.21,0,0,1,.37.11c.51.36.26.6-.11,1s-.74,2.28,1,2.17c-.33-.21-.34-.72.51-.89,1.2-.25,1.55.3,2.82.3.8,0,1-1,1.64-1s.62.49.41.85c1-.27,1.19-.81,1.19-1.39s-.47-.91-.11-1.14,1.52,0,1.06,1c.6-.11.92-.54.92-1.28s-.84-1.16-1.63-1c-.13-.46-.81-.7-1.43-.7-1.42,0-1.2,1.11-2.17,1.11-1.54,0-3-2-3-5.41,0-1.81,2-2.28,3.34-2.88a12,12,0,0,0,5.27-4.53c1.14-1.9,1.17-4,1-6.48a4.12,4.12,0,0,1,2.16,3.82,2.41,2.41,0,0,1-1.41,2.41c-.52.24-.7.14-.75.45a.66.66,0,0,0,.41.73c.71.36.57,1,.76,1.77a5.64,5.64,0,0,0,1.94,2.72,7.46,7.46,0,0,0,0-2.11c1.5.73.3,3.74,3.21,3.74a.74.74,0,0,1-.24-1,.74.74,0,0,1,.16-.19c.3-.11.7.2,1.26,1s.41.73,1.79.73.76-.48,1.49-.48.67.84.28,1.46a1.59,1.59,0,0,0,1.33-1.81,1.87,1.87,0,0,0-.13-.4,1.17,1.17,0,0,1,1.63.32,1.16,1.16,0,0,1,.18.51,1.44,1.44,0,0,0,0-2,1.41,1.41,0,0,0-.83-.4.84.84,0,0,0-.79-.84,10.44,10.44,0,0,0-1.37,0c-.5,0-.79.77-1.38.77-1.82,0-5.44-3.31-5.44-4.74s3.46-2.3,3.46-4.52c0-2.91-2.84-3.89-5.25-5.75.85-1,3.35-1.19,4.77-.5.16-.81.68-.61.86-2,.51,1.22,0,2.28.51,2.8.4-.59,1.43-.51,1.37-2,.31,1-.41,2.4.31,3,.13-.77.6-.92.89-.92s.55.21.55.67c0,1.16-1.43.62-1.43,1.93,0,.55.7.74.7,1.09a.78.78,0,0,1-.91.62,1,1,0,0,1-.36-.17,1.53,1.53,0,0,0,1.29,1,1.83,1.83,0,0,0,1.57-1.17c.33.83.08,1.76-.52,1.88.64.31,2.13,0,2-1.9.85.15,1.29.71.78,1.73.7-.17,1.34-.5,1.34-1.25,0-.56-.62-.74-.35-1.47" transform="translate(-788.81 -498.56)"/><path class="cls-5" d="M879.26,556a1.81,1.81,0,1,1,1.8,1.81h0a1.81,1.81,0,0,1-1.8-1.81m-.63,0a2.44,2.44,0,1,0,2.44-2.43h0a2.41,2.41,0,0,0-2.43,2.42h0" transform="translate(-788.81 -498.56)"/><path class="cls-5" d="M870.65,560.4c-.7-.12-1.18-.65-1.09-1.15a.84.84,0,0,1,.35-.51,1.44,1.44,0,0,1,1.11-.18,1.22,1.22,0,0,1,1.1,1,.24.24,0,0,1,0,.12c-.08.51-.73.82-1.43.7m-1.1-2.17a1.35,1.35,0,0,0-.59.91,1.38,1.38,0,0,0,.37,1.21,2.2,2.2,0,0,0,2.58.47,1.49,1.49,0,0,0,.8-1,1.77,1.77,0,0,0-1.6-1.87,2,2,0,0,0-1.56.29" transform="translate(-788.81 -498.56)"/><path class="cls-5" d="M856,525.56a1.38,1.38,0,0,1,1.44-1.22.62.62,0,0,1,.59.68.15.15,0,0,1,0,.07,1.33,1.33,0,0,1-.51.82,1,1,0,0,1-1.38,0,.65.65,0,0,1-.13-.35m.14-1.43a1.47,1.47,0,1,0,1.77,2.27,1.9,1.9,0,0,0,.73-1.23,1.29,1.29,0,0,0-1.09-1.45h0a1.91,1.91,0,0,0-1.38.41" transform="translate(-788.81 -498.56)"/><path class="cls-5" d="M867.64,557h0a.81.81,0,0,1-.55-.25,1.55,1.55,0,0,1-.37-1,1.34,1.34,0,0,1,.42-1,.67.67,0,0,1,.55-.24c.51,0,.93.58.91,1.29a1.54,1.54,0,0,1-.4,1,.85.85,0,0,1-.56.23m-.94-2.76a2.09,2.09,0,0,0-.6,1.46h0a2,2,0,0,0,.55,1.44,1.33,1.33,0,0,0,1,.44,1.45,1.45,0,0,0,1-.41,2.08,2.08,0,0,0,.59-1.45,2.19,2.19,0,0,0-.4-1.32A1.37,1.37,0,0,0,867,554a1.43,1.43,0,0,0-.23.2" transform="translate(-788.81 -498.56)"/><path class="cls-5" d="M855.27,536.91a1.14,1.14,0,0,1-.73-1.35.73.73,0,0,1,.46-.4,1.38,1.38,0,0,1,1.09.11,1.36,1.36,0,0,1,.75.79.72.72,0,0,1,0,.61.82.82,0,0,1-.45.39,1.55,1.55,0,0,1-1.1-.11m-.5-2.39a1.4,1.4,0,0,0-.82.71,1.74,1.74,0,0,0,1,2.22,2,2,0,0,0,1.57.12,1.43,1.43,0,0,0,.82-.69,1.47,1.47,0,0,0,0-1.09,2.18,2.18,0,0,0-2.57-1.27" transform="translate(-788.81 -498.56)"/><path class="cls-5" d="M872.41,545.62a1,1,0,0,1-1.32.49,1,1,0,0,1-.49-1.33.81.81,0,0,1,.22-.3,1,1,0,0,1,1.32-.5,1,1,0,0,1,.49,1.33.84.84,0,0,1-.22.31m-2.86,4.52a1.17,1.17,0,0,1-1.53.42A1.16,1.16,0,0,1,868,549a1,1,0,1,1,1.84.8,1.27,1.27,0,0,1-.24.33m-9.83-24.74c.34-1.05,1-3.15,1-3.15l1.1.43a4,4,0,0,0-1.06.76,1.14,1.14,0,0,0,1-.08l-.44,1.11a1.33,1.33,0,0,0-.72-.64,1.12,1.12,0,0,0,.72,1.41h0c.67.35,1.11.41,1.3.1s-.23-.92-.79-.68c-.07-.58.26-.89.64-.89s.55.28.63.65a1.78,1.78,0,0,1,1.25-1.93,1.85,1.85,0,0,1-.63,2.19.76.76,0,0,1,.94.13.67.67,0,0,1-.37,1,.55.55,0,0,0-.62-.49.6.6,0,0,0-.38.22c-.2.39.1.76.72,1.1a1.16,1.16,0,0,0,1.6-.3.65.65,0,0,0,.09-.16,1.33,1.33,0,0,0-1,.21l.74-1.38a1.44,1.44,0,0,0,.46.81,1.71,1.71,0,0,0,0-1.33l1.59.91a1.72,1.72,0,0,0-1.13.71,1.64,1.64,0,0,0,.93,0l-.83,1.32a1.26,1.26,0,0,0-.33-1,1.14,1.14,0,0,0,.28,1.58l.15.1c.62.37,1.08.44,1.33.08a.57.57,0,0,0-.28-.76.61.61,0,0,0-.46,0c0-.58.32-.86.7-.84s.53.37.59.75a1.87,1.87,0,0,1,1.56-1.6,1.8,1.8,0,0,1-1,2.06.7.7,0,0,1,.87.21c.2.34.09.77-.44,1a.55.55,0,0,0-.55-.57.58.58,0,0,0-.45.22c-.18.31.09.67.74,1.08a1.12,1.12,0,0,0,1.59-.07h0a1.42,1.42,0,0,0-.92-.31l.74-.93a1.12,1.12,0,0,0,.43.91,3.75,3.75,0,0,0,.12-1.29l.92.74s-1.49,1.6-2.23,2.42Zm11.9,13.52a.89.89,0,0,1,.24-.56.75.75,0,0,1,.56-.2,1.55,1.55,0,0,1,1.42,1.5.78.78,0,0,1-.23.55h0a.88.88,0,0,1-.57.2,1.5,1.5,0,0,1-1-.49,1.57,1.57,0,0,1-.43-1m4.36,20a1.56,1.56,0,0,1,1.73-1.14.76.76,0,0,1,.5.33h0a.72.72,0,0,1,.1.59,1.43,1.43,0,0,1-.65.89,1.16,1.16,0,0,1-1.57-.08,1,1,0,0,1-.11-.6m-20.71-30.15a1.3,1.3,0,0,1-.39.86.65.65,0,0,1-.44.18c-.42,0-.74-.49-.74-1v-.08a1.2,1.2,0,0,1,.38-.86.62.62,0,0,1,.47-.18.6.6,0,0,1,.44.23,1.3,1.3,0,0,1,.28.89m6.42-13.2c.33-.65,0-1.64,1.18-1.64.58,0,1.11.59,1.8.81a6.92,6.92,0,0,0-3,.83m18.68,16.49c.8,2.17,2.36,3,3.57,2.39-2.69-.31-.51-4.9-4-4.9a1.75,1.75,0,0,0-.55.06,2.82,2.82,0,0,0-2.26-.88,4.29,4.29,0,0,0-4,4.32c0,6.28,7.29,6.84,7.29,12.38a2.54,2.54,0,0,1-2.44,2.63h-.15c-1.23,0-2.21-1.38-3.25-3.53a26,26,0,0,0-2.66-3.89A2,2,0,0,0,873,541a1.45,1.45,0,0,0,1-.37,1.52,1.52,0,0,0,.43-1h0a2.21,2.21,0,0,0-2-2.09,1.33,1.33,0,0,0-1,.37,1.39,1.39,0,0,0-.43,1V539a1.43,1.43,0,0,0,.12.64c-1.57-2-3-4-3-5.16s.67-1.83,1.5-2.86l.29.16.21-.24,2.17-2.34.07-.08h0l.3-.32-.78-.63a10.73,10.73,0,0,0,.52-1.54c.24,1,.76,1.65,1.48,1.44-.48-1,.48-2.43-.15-5,.6,1,1.46,1.5,2.07,1.32-1.61-1.44.48-3.43-1.62-6.53a1.23,1.23,0,0,0,1.44-.24c-1.91-.27-1-2.72-4.41-3.6.84-.14,1.34-.63,1.21-1.07-.89.64-1.67-1.19-4.59-1.15a4.24,4.24,0,0,0-2.33-2.79,4,4,0,0,1-.2,2.24l-9.51-9.37c-.28-.26-.44-.33-.51-.24s-.07.27.11.47l8.15,10.23c-.61.22-1.21.47-1.83.7a1.09,1.09,0,0,0-.71,1.07,16.83,16.83,0,0,0-3.52,2.28c-.5.46-.9.57-.45,1.59.18.39-.36,1.36.83.66.76-.47,2.53-1.44,2.79-.82.14.31-.73.72-1.33,1s-1.24.69-1.14.92.55,0,.58.22a.56.56,0,0,0,.47.52c.24,0,.55-.5.74-.33s-.09,1.28-.28,1.56A1.88,1.88,0,0,0,861.2,520c0-.69.21-.86.36-1s.3.73.11,1.23c.49-.11,1-.75.93-1.93a1.18,1.18,0,0,1,.68-.35c.32,0,.93.86,1.81.86a2.71,2.71,0,0,0,2.61-1.93,1.85,1.85,0,0,0-.23-1.34,2.25,2.25,0,0,1,.76,1.73c0,2.3-4,3.38-5.7,5a.73.73,0,0,0-.18.17l-1.91-.74-.12.42-.12.37c-.19.65-.62,2-.87,2.78l-.1.31.17.1a10.39,10.39,0,0,0-2.24,4.82,14.82,14.82,0,0,0-1.37-1.26c0-.18.07-.36.1-.53a1.83,1.83,0,0,0-.45-1.34,1.14,1.14,0,0,0-.87-.44,1.25,1.25,0,0,0-.93.34,1.49,1.49,0,0,0-.17.18.78.78,0,0,0-.2-.16,17.56,17.56,0,0,1-1.87-1.58,1,1,0,0,0-.82-.33h-.85c-.28,0-.44.21-.76.49-.15.14-.58.48-1.08.86.23.23.47.48.69.73l.36.43.33-.26a1.06,1.06,0,0,1,.7-.2,1.09,1.09,0,0,1,.83.54c.17.26,1.71,2.28,3,3.68l-.41.15a6.88,6.88,0,0,1-2.31.14c-.55,0-.65-.18-1,.4a6.55,6.55,0,0,1-.51.7c-.18.23-.32.48.06,1.13a48.51,48.51,0,0,1,2.42,4.58,2.69,2.69,0,0,0,1.88,1.66,13.38,13.38,0,0,1,2.59,1.44l.05-.87a5.19,5.19,0,0,0-1.42-.69c-.32-.12-.4-.26,0-.26a9.38,9.38,0,0,1,2.2.69,6.51,6.51,0,0,0-1.52-2.29,2,2,0,0,0-1.55,0,.34.34,0,0,1-.29.39h-.07a.34.34,0,0,1-.35-.32.28.28,0,0,1,0-.13c.08-.25.46-.33.37-.82s-.68-.57-1.06-.6c-.54-.79-1.17-1.93-1.45-2.4s-.11-.73.08-.89c.48-.38,1.43.2,3.38.32.67.05,1.51.09,2.37.13.27,2.25,1.17,4.38,4.28,5.16a5.29,5.29,0,0,1,3.65,3C859,542.23,858,544.66,858,547c0,2.61,2.2,2.47,2.2,4.42,0,1.71-5.24,2.42-6.82,2.65a4.33,4.33,0,0,0-2.76,1.15c-.64.64-1.3,1.26-2.47,2.43a4.82,4.82,0,0,0,1,.08l.88-1.14c.26-.39.45-.7.63-.67s0,.32-.16.73l-.73,1.23c3.08.21,3.28-.94,3.28-1.41s-.75-.79-.31-1.08.82-.09,1.17.32.47.76,1.31.44c0,0,6.71-2.78,7.56-3.16s.54-.68.09-1a2.22,2.22,0,0,1-.58-1.79c0-2,1.22-2.67,3.4-2.62a8.26,8.26,0,0,0-.06,1c0,3.17,4.79,6.27,6.08,6.27.58,0,1.36-.43,1.41,1.48a17.82,17.82,0,0,1,.07,4,3,3,0,0,1-1.7,2.55c-1,.69-1.89,2.84-2.3,3.29.43.28.89.32,1.25-.73a3.16,3.16,0,0,1,1-1.68c-.38.95-.66,2.35-.84,2.77,1.23.21,3.21-.91,3.21-1.77s-.68-.79-.68-1.37a.66.66,0,0,1,.68-.54,1,1,0,0,1,.9.57c.54-.29.89-.82.87-2.09a13.22,13.22,0,0,0-.06-1.52l.12.19a1.45,1.45,0,0,0,1.1.63,2.12,2.12,0,0,0,1.34-.37,2,2,0,0,0,.91-1.28.81.81,0,0,0,0-.31,1.19,1.19,0,0,0-.23-.75,1.35,1.35,0,0,0-.89-.59,2.09,2.09,0,0,0-1.55.33,2,2,0,0,0-.88,1.18c-.11-1.73-.24-3.36-.18-4,.06-1,.1-1.4-.22-1.55s-.68.4-1.15.4a3.14,3.14,0,0,1-1.84-2.78c0-1.37,1.48-3.14,1.39-5,0-.58.35-.88.59-.35a8.78,8.78,0,0,0,1.33,2.22c-.39,2.35,2.2,4.65,4.34,2.94-1,.16-1.78-.78-2.25-1.72a5.48,5.48,0,0,0,.57,0h.33c.74.94,3.12.86,3.73-1.44a2.39,2.39,0,0,1-1.89.76,3.72,3.72,0,0,0,1.36-3c0-6-7.25-6.68-7.25-12.12a3.35,3.35,0,0,1,3-3.32,1.82,1.82,0,0,1,1.13.36,2.81,2.81,0,0,0-.68,2.08c.2,4.3,7.22,4.09,7.3,6.16.8-3.12-4.44-2.16-4.62-6.35" transform="translate(-788.81 -498.56)"/><path class="cls-1" d="M983.08,580.61h0a40.68,40.68,0,1,0,0-81.35h0v16.15h0a24.58,24.58,0,1,1,0,49.15Z" transform="translate(-788.81 -498.56)"/></svg>
