<svg width="16" height="17" viewBox="0 0 16 17" fill="none" xmlns="http://www.w3.org/2000/svg">
<mask id="path-1-inside-1_14_734" fill="white">
<path d="M15.9012 6.95929C15.8254 6.60399 15.6336 6.28398 15.3561 6.04956C15.0785 5.81514 14.7309 5.6796 14.368 5.66427C14.368 5.66427 11.2404 5.66427 11.0504 5.65239C11.6603 4.95654 12.008 4.06958 12.0336 3.14467C12.0336 1.40794 11.7011 0.408178 11.0172 0.08838C10.7789 -0.000592256 10.5208 -0.022917 10.2707 0.0238062C10.0206 0.0705294 9.78803 0.184533 9.5979 0.353559L9.45621 0.472296V0.655942C9.3966 1.64434 9.07593 2.59926 8.52689 3.4233C8.01949 4.24917 7.34878 4.96271 6.55586 5.5202L4.71781 8.02713H3.9579V6.44397H0V16.7345H3.9579V15.1513H5.37957L7.33477 15.916L12.8157 15.9429C13.1449 15.9563 13.4712 15.8769 13.7575 15.7137C14.0437 15.5505 14.2783 15.3101 14.4345 15.0199C14.5211 14.8458 14.5703 14.6555 14.5788 14.4612C14.5872 14.2668 14.5548 14.0729 14.4835 13.8919C14.6881 13.7806 14.8676 13.6284 15.011 13.4449C15.1544 13.2613 15.2585 13.0503 15.3171 12.8249C15.3766 12.5967 15.3889 12.3587 15.3532 12.1255C15.3175 11.8924 15.2347 11.6689 15.1097 11.4689C15.3016 11.3337 15.4649 11.162 15.5903 10.9635C15.7157 10.765 15.8006 10.5438 15.8403 10.3124C15.8757 10.0794 15.8627 9.84167 15.8021 9.61394C15.7415 9.38622 15.6346 9.17344 15.488 8.9889C15.7231 8.71324 15.8844 8.38245 15.9568 8.02749C16.0292 7.67252 16.0104 7.30499 15.902 6.95929H15.9012ZM3.16632 15.9429H0.791579V7.23555H3.16632V15.9429ZM14.7004 8.62002L14.2397 8.90737L14.6553 9.25804C14.7987 9.36358 14.9115 9.5053 14.9821 9.66872C15.0528 9.83214 15.0788 10.0114 15.0574 10.1881C15.0198 10.3717 14.9348 10.5423 14.811 10.6829C14.6871 10.8236 14.5287 10.9294 14.3513 10.99L13.76 11.2314L14.2381 11.6534C14.3766 11.7692 14.4795 11.9219 14.5349 12.0938C14.5902 12.2657 14.5957 12.4497 14.5508 12.6246C14.5068 12.7933 14.4159 12.946 14.2887 13.0652C14.1615 13.1844 14.0032 13.2652 13.8321 13.2983L13.2186 13.4305L13.6025 13.9276C13.6938 14.0257 13.754 14.1486 13.7755 14.2809C13.7971 14.4131 13.779 14.5488 13.7236 14.6709C13.6307 14.8265 13.4968 14.9536 13.3365 15.0384C13.1763 15.1231 12.9958 15.1622 12.8149 15.1513H7.55404L5.59726 14.3867L3.9579 14.3653V8.81871H5.12389L7.06168 6.1313C7.91357 5.52367 8.63562 4.75211 9.18549 3.86184C9.7789 2.96954 10.1402 1.94325 10.2367 0.876002C10.3008 0.831506 10.374 0.802059 10.4511 0.78986C10.5281 0.777661 10.6069 0.783025 10.6816 0.805551C10.813 0.867294 11.242 1.21717 11.242 3.14467C11.2076 3.91628 10.8985 4.65017 10.3705 5.21386C10.2658 5.32337 10.1929 5.45941 10.1599 5.60728C10.1268 5.75515 10.1348 5.90925 10.1829 6.05293C10.3808 6.44397 10.8716 6.44397 11.6837 6.44397H14.368C14.7827 6.44397 15.0384 6.82393 15.1405 7.17856C15.2292 7.43448 15.2344 7.71194 15.1553 7.97099C15.0762 8.23004 14.9169 8.45729 14.7004 8.62002Z"/>
</mask>
<path d="M15.9012 6.95929C15.8254 6.60399 15.6336 6.28398 15.3561 6.04956C15.0785 5.81514 14.7309 5.6796 14.368 5.66427C14.368 5.66427 11.2404 5.66427 11.0504 5.65239C11.6603 4.95654 12.008 4.06958 12.0336 3.14467C12.0336 1.40794 11.7011 0.408178 11.0172 0.08838C10.7789 -0.000592256 10.5208 -0.022917 10.2707 0.0238062C10.0206 0.0705294 9.78803 0.184533 9.5979 0.353559L9.45621 0.472296V0.655942C9.3966 1.64434 9.07593 2.59926 8.52689 3.4233C8.01949 4.24917 7.34878 4.96271 6.55586 5.5202L4.71781 8.02713H3.9579V6.44397H0V16.7345H3.9579V15.1513H5.37957L7.33477 15.916L12.8157 15.9429C13.1449 15.9563 13.4712 15.8769 13.7575 15.7137C14.0437 15.5505 14.2783 15.3101 14.4345 15.0199C14.5211 14.8458 14.5703 14.6555 14.5788 14.4612C14.5872 14.2668 14.5548 14.0729 14.4835 13.8919C14.6881 13.7806 14.8676 13.6284 15.011 13.4449C15.1544 13.2613 15.2585 13.0503 15.3171 12.8249C15.3766 12.5967 15.3889 12.3587 15.3532 12.1255C15.3175 11.8924 15.2347 11.6689 15.1097 11.4689C15.3016 11.3337 15.4649 11.162 15.5903 10.9635C15.7157 10.765 15.8006 10.5438 15.8403 10.3124C15.8757 10.0794 15.8627 9.84167 15.8021 9.61394C15.7415 9.38622 15.6346 9.17344 15.488 8.9889C15.7231 8.71324 15.8844 8.38245 15.9568 8.02749C16.0292 7.67252 16.0104 7.30499 15.902 6.95929H15.9012ZM3.16632 15.9429H0.791579V7.23555H3.16632V15.9429ZM14.7004 8.62002L14.2397 8.90737L14.6553 9.25804C14.7987 9.36358 14.9115 9.5053 14.9821 9.66872C15.0528 9.83214 15.0788 10.0114 15.0574 10.1881C15.0198 10.3717 14.9348 10.5423 14.811 10.6829C14.6871 10.8236 14.5287 10.9294 14.3513 10.99L13.76 11.2314L14.2381 11.6534C14.3766 11.7692 14.4795 11.9219 14.5349 12.0938C14.5902 12.2657 14.5957 12.4497 14.5508 12.6246C14.5068 12.7933 14.4159 12.946 14.2887 13.0652C14.1615 13.1844 14.0032 13.2652 13.8321 13.2983L13.2186 13.4305L13.6025 13.9276C13.6938 14.0257 13.754 14.1486 13.7755 14.2809C13.7971 14.4131 13.779 14.5488 13.7236 14.6709C13.6307 14.8265 13.4968 14.9536 13.3365 15.0384C13.1763 15.1231 12.9958 15.1622 12.8149 15.1513H7.55404L5.59726 14.3867L3.9579 14.3653V8.81871H5.12389L7.06168 6.1313C7.91357 5.52367 8.63562 4.75211 9.18549 3.86184C9.7789 2.96954 10.1402 1.94325 10.2367 0.876002C10.3008 0.831506 10.374 0.802059 10.4511 0.78986C10.5281 0.777661 10.6069 0.783025 10.6816 0.805551C10.813 0.867294 11.242 1.21717 11.242 3.14467C11.2076 3.91628 10.8985 4.65017 10.3705 5.21386C10.2658 5.32337 10.1929 5.45941 10.1599 5.60728C10.1268 5.75515 10.1348 5.90925 10.1829 6.05293C10.3808 6.44397 10.8716 6.44397 11.6837 6.44397H14.368C14.7827 6.44397 15.0384 6.82393 15.1405 7.17856C15.2292 7.43448 15.2344 7.71194 15.1553 7.97099C15.0762 8.23004 14.9169 8.45729 14.7004 8.62002Z" fill="#9C0000"/>
<path d="M15.9012 6.95929L13.9453 7.37683L14.2831 8.95929H15.9012V6.95929ZM14.368 5.66427L14.4524 3.66605L14.4102 3.66427H14.368V5.66427ZM11.0504 5.65239L9.54633 4.3342L6.86419 7.39465L10.9257 7.6485L11.0504 5.65239ZM12.0336 3.14467L14.0328 3.19995L14.0336 3.17232V3.14467H12.0336ZM11.0172 0.08838L11.8644 -1.72334L11.7917 -1.75729L11.7167 -1.78532L11.0172 0.08838ZM9.5979 0.353559L10.8825 1.88649L10.9049 1.86772L10.9267 1.8483L9.5979 0.353559ZM9.45621 0.472296L8.17163 -1.06063L7.45621 -0.461113V0.472296H9.45621ZM9.45621 0.655942L11.4526 0.776336L11.4562 0.716194V0.655942H9.45621ZM8.52689 3.4233L6.86249 2.31436L6.84208 2.34499L6.82282 2.37634L8.52689 3.4233ZM6.55586 5.5202L5.40555 3.88411L5.13703 4.0729L4.94294 4.33763L6.55586 5.5202ZM4.71781 8.02713V10.0271H5.73141L6.33074 9.2097L4.71781 8.02713ZM3.9579 8.02713H1.9579V10.0271H3.9579V8.02713ZM3.9579 6.44397H5.9579V4.44397H3.9579V6.44397ZM0 6.44397V4.44397H-2V6.44397H0ZM0 16.7345H-2V18.7345H0V16.7345ZM3.9579 16.7345V18.7345H5.9579V16.7345H3.9579ZM3.9579 15.1513V13.1513H1.9579V15.1513H3.9579ZM5.37957 15.1513L6.10803 13.2887L5.75676 13.1513H5.37957V15.1513ZM7.33477 15.916L6.60632 17.7786L6.95286 17.9142L7.32495 17.916L7.33477 15.916ZM12.8157 15.9429L12.8969 13.9446L12.8612 13.9431L12.8255 13.9429L12.8157 15.9429ZM14.4345 15.0199L16.1956 15.9678L16.2106 15.9398L16.2248 15.9113L14.4345 15.0199ZM14.4835 13.8919L13.5272 12.1354L11.9753 12.9803L12.6225 14.6245L14.4835 13.8919ZM15.3171 12.8249L13.3817 12.3204L13.3812 12.3223L15.3171 12.8249ZM15.1097 11.4689L13.9578 9.83393L12.4107 10.9239L13.4136 12.5288L15.1097 11.4689ZM15.8403 10.3124L17.8115 10.6505L17.8147 10.6318L17.8176 10.6132L15.8403 10.3124ZM15.488 8.9889L13.9662 7.69117L12.8981 8.94369L13.9219 10.2327L15.488 8.9889ZM15.902 6.95929L17.8105 6.36127L17.3712 4.95929H15.902V6.95929ZM3.16632 15.9429V17.9429H5.16632V15.9429H3.16632ZM0.791579 15.9429H-1.20842V17.9429H0.791579V15.9429ZM0.791579 7.23555V5.23555H-1.20842V7.23555H0.791579ZM3.16632 7.23555H5.16632V5.23555H3.16632V7.23555ZM14.7004 8.62002L15.7588 10.317L15.8326 10.271L15.902 10.2188L14.7004 8.62002ZM14.2397 8.90737L13.1813 7.21039L10.8503 8.66424L12.9499 10.4359L14.2397 8.90737ZM14.6553 9.25804L13.3655 10.7866L13.4162 10.8294L13.4697 10.8687L14.6553 9.25804ZM15.0574 10.1881L17.0166 10.59L17.0332 10.5094L17.043 10.4278L15.0574 10.1881ZM14.3513 10.99L13.7048 9.09738L13.6495 9.11629L13.5953 9.1384L14.3513 10.99ZM13.76 11.2314L13.004 9.37984L10.0198 10.5983L12.4367 12.731L13.76 11.2314ZM14.2381 11.6534L12.9148 13.153L12.9347 13.1705L12.9549 13.1874L14.2381 11.6534ZM14.5508 12.6246L16.4859 13.13L16.488 13.122L14.5508 12.6246ZM13.8321 13.2983L13.4531 11.3345L13.4319 11.3386L13.4108 11.3431L13.8321 13.2983ZM13.2186 13.4305L12.7973 11.4753L9.6975 12.1433L11.6357 14.6529L13.2186 13.4305ZM13.6025 13.9276L12.0196 15.15L12.0756 15.2226L12.138 15.2896L13.6025 13.9276ZM13.7236 14.6709L15.4409 15.6961L15.4984 15.5997L15.5447 15.4976L13.7236 14.6709ZM12.8149 15.1513L12.9344 13.1549L12.8747 13.1513H12.8149V15.1513ZM7.55404 15.1513L6.8261 17.0142L7.17714 17.1513H7.55404V15.1513ZM5.59726 14.3867L6.3252 12.5239L5.98671 12.3916L5.62333 12.3868L5.59726 14.3867ZM3.9579 14.3653H1.9579V16.3394L3.93182 16.3651L3.9579 14.3653ZM3.9579 8.81871V6.81871H1.9579V8.81871H3.9579ZM5.12389 8.81871V10.8187H6.14748L6.74615 9.98845L5.12389 8.81871ZM7.06168 6.1313L5.9003 4.50305L5.6321 4.69434L5.43943 4.96156L7.06168 6.1313ZM9.18549 3.86184L7.52014 2.75431L7.50154 2.78228L7.48389 2.81086L9.18549 3.86184ZM10.2367 0.876002L9.0957 -0.766591L8.32889 -0.233934L8.24483 0.695938L10.2367 0.876002ZM10.6816 0.805551L11.5321 -1.00458L11.3995 -1.06689L11.2592 -1.10921L10.6816 0.805551ZM11.242 3.14467L13.24 3.23372L13.242 3.18921V3.14467H11.242ZM10.3705 5.21386L11.816 6.59604L11.8231 6.58863L11.8301 6.58115L10.3705 5.21386ZM10.1829 6.05293L8.28634 6.68788L8.33259 6.82603L8.39838 6.95602L10.1829 6.05293ZM15.1405 7.17856L13.2186 7.73196L13.2334 7.78315L13.2508 7.83348L15.1405 7.17856ZM17.8572 6.54175C17.6888 5.75279 17.2629 5.04217 16.6466 4.52162L14.0656 7.5775C14.0043 7.52579 13.962 7.4552 13.9453 7.37683L17.8572 6.54175ZM16.6466 4.52162C16.0303 4.00107 15.2584 3.70011 14.4524 3.66605L14.2835 7.66248C14.2035 7.6591 14.1268 7.62921 14.0656 7.5775L16.6466 4.52162ZM14.368 5.66427C14.368 3.66427 14.3679 3.66427 14.3679 3.66427C14.3679 3.66427 14.3679 3.66427 14.3678 3.66427C14.3677 3.66427 14.3676 3.66427 14.3674 3.66427C14.367 3.66427 14.3665 3.66427 14.3657 3.66427C14.3643 3.66427 14.362 3.66427 14.3591 3.66427C14.3532 3.66427 14.3445 3.66426 14.333 3.66426C14.3102 3.66426 14.2766 3.66425 14.2337 3.66424C14.1481 3.66422 14.0254 3.66417 13.8776 3.66408C13.5819 3.6639 13.1859 3.66352 12.7841 3.66278C12.382 3.66204 11.9759 3.66094 11.6594 3.65928C11.2923 3.65737 11.1481 3.65459 11.1752 3.65629L10.9257 7.6485C11.1008 7.65944 12.0344 7.66141 12.7768 7.66278C13.1807 7.66352 13.5784 7.66389 13.8751 7.66408C14.0234 7.66417 14.1466 7.66422 14.2327 7.66424C14.2757 7.66425 14.3095 7.66426 14.3325 7.66426C14.3441 7.66426 14.3529 7.66427 14.3589 7.66427C14.3618 7.66427 14.3641 7.66427 14.3656 7.66427C14.3664 7.66427 14.367 7.66427 14.3674 7.66427C14.3676 7.66427 14.3677 7.66427 14.3678 7.66427C14.3678 7.66427 14.3679 7.66427 14.3679 7.66427C14.3679 7.66427 14.368 7.66427 14.368 5.66427ZM12.5546 6.97058C13.4715 5.92429 13.9944 4.59066 14.0328 3.19995L10.0344 3.08938C10.0217 3.54851 9.84905 3.98878 9.54633 4.3342L12.5546 6.97058ZM14.0336 3.14467C14.0336 2.1801 13.9453 1.25266 13.6797 0.454055C13.4096 -0.358104 12.8779 -1.24942 11.8644 -1.72334L10.1701 1.9001C9.84043 1.74598 9.81693 1.51444 9.88406 1.7163C9.95569 1.9317 10.0336 2.37251 10.0336 3.14467H14.0336ZM11.7167 -1.78532C11.1377 -2.00144 10.5108 -2.05567 9.90339 -1.94217L10.638 1.98979C10.5307 2.00983 10.42 2.00025 10.3177 1.96208L11.7167 -1.78532ZM9.90339 -1.94217C9.29595 -1.82868 8.73093 -1.55176 8.26908 -1.14118L10.9267 1.8483C10.8451 1.92082 10.7453 1.96974 10.638 1.98979L9.90339 -1.94217ZM8.31332 -1.17937L8.17163 -1.06063L10.7408 2.00522L10.8825 1.88649L8.31332 -1.17937ZM7.45621 0.472296V0.655942H11.4562V0.472296H7.45621ZM7.45983 0.535549C7.42152 1.17088 7.2154 1.78468 6.86249 2.31436L10.1913 4.53225C10.9365 3.41384 11.3717 2.11781 11.4526 0.776336L7.45983 0.535549ZM6.82282 2.37634C6.45797 2.97018 5.9757 3.48325 5.40555 3.88411L7.70617 7.15629C8.72186 6.44217 9.58101 5.52816 10.231 4.47027L6.82282 2.37634ZM4.94294 4.33763L3.10489 6.84456L6.33074 9.2097L8.16878 6.70277L4.94294 4.33763ZM4.71781 6.02713H3.9579V10.0271H4.71781V6.02713ZM5.9579 8.02713V6.44397H1.9579V8.02713H5.9579ZM3.9579 4.44397H0V8.44397H3.9579V4.44397ZM-2 6.44397V16.7345H2V6.44397H-2ZM0 18.7345H3.9579V14.7345H0V18.7345ZM5.9579 16.7345V15.1513H1.9579V16.7345H5.9579ZM3.9579 17.1513H5.37957V13.1513H3.9579V17.1513ZM4.65112 17.014L6.60632 17.7786L8.06323 14.0534L6.10803 13.2887L4.65112 17.014ZM7.32495 17.916L12.8058 17.9429L12.8255 13.9429L7.34459 13.916L7.32495 17.916ZM12.7344 17.9413C13.4383 17.9699 14.1361 17.8 14.7481 17.4511L12.7668 13.9762C12.8064 13.9537 12.8514 13.9427 12.8969 13.9446L12.7344 17.9413ZM14.7481 17.4511C15.3601 17.1021 15.8617 16.5882 16.1956 15.9678L12.6733 14.072C12.6949 14.032 12.7273 13.9988 12.7668 13.9762L14.7481 17.4511ZM16.2248 15.9113C16.4363 15.4866 16.5562 15.0221 16.5769 14.5481L12.5806 14.3742C12.5844 14.2888 12.606 14.2051 12.6441 14.1285L16.2248 15.9113ZM16.5769 14.5481C16.5975 14.074 16.5183 13.6009 16.3445 13.1594L12.6225 14.6245C12.5912 14.5449 12.5769 14.4596 12.5806 14.3742L16.5769 14.5481ZM15.4398 15.6485C15.8848 15.4063 16.2752 15.0753 16.5871 14.6761L13.4349 12.2137C13.46 12.1815 13.4914 12.1549 13.5272 12.1354L15.4398 15.6485ZM16.5871 14.6761C16.899 14.2768 17.1256 13.8179 17.2529 13.3275L13.3812 12.3223C13.3915 12.2828 13.4097 12.2458 13.4349 12.2137L16.5871 14.6761ZM17.2524 13.3294C17.3805 12.8378 17.407 12.3253 17.3302 11.8231L13.3762 12.4279C13.3707 12.3921 13.3726 12.3555 13.3817 12.3204L17.2524 13.3294ZM17.3302 11.8231C17.2534 11.321 17.0749 10.8398 16.8057 10.409L13.4136 12.5288C13.3944 12.4981 13.3817 12.4637 13.3762 12.4279L17.3302 11.8231ZM16.2615 13.1039C16.6686 12.8171 17.0151 12.4527 17.2811 12.0317L13.8994 9.8953C13.9147 9.8712 13.9345 9.85034 13.9578 9.83393L16.2615 13.1039ZM17.2811 12.0317C17.5471 11.6107 17.7273 11.1413 17.8115 10.6505L13.8691 9.97437C13.8739 9.94627 13.8842 9.9194 13.8994 9.8953L17.2811 12.0317ZM17.8176 10.6132C17.8943 10.1083 17.8662 9.59304 17.7348 9.09955L13.8694 10.1283C13.8593 10.0903 13.8571 10.0506 13.863 10.0117L17.8176 10.6132ZM17.7348 9.09955C17.6035 8.60607 17.3718 8.14497 17.0542 7.74507L13.9219 10.2327C13.8974 10.2019 13.8795 10.1664 13.8694 10.1283L17.7348 9.09955ZM17.0098 10.2866C17.4645 9.7535 17.7764 9.11373 17.9164 8.42721L13.9972 7.62776C13.9924 7.65117 13.9817 7.67299 13.9662 7.69117L17.0098 10.2866ZM17.9164 8.42721C18.0565 7.74069 18.02 7.02987 17.8105 6.36127L13.9935 7.55731C14.0007 7.58011 14.0019 7.60435 13.9972 7.62776L17.9164 8.42721ZM15.902 4.95929H15.9012V8.95929H15.902V4.95929ZM3.16632 13.9429H0.791579V17.9429H3.16632V13.9429ZM2.79158 15.9429V7.23555H-1.20842V15.9429H2.79158ZM0.791579 9.23555H3.16632V5.23555H0.791579V9.23555ZM1.16632 7.23555V15.9429H5.16632V7.23555H1.16632ZM13.642 6.92305L13.1813 7.21039L15.2982 10.6043L15.7588 10.317L13.642 6.92305ZM12.9499 10.4359L13.3655 10.7866L15.9451 7.7295L15.5295 7.37883L12.9499 10.4359ZM13.4697 10.8687C13.3278 10.7643 13.2163 10.6241 13.1463 10.4624L16.8179 8.87504C16.6067 8.3865 16.2695 7.96283 15.8409 7.64733L13.4697 10.8687ZM13.1463 10.4624C13.0764 10.3007 13.0507 10.1233 13.0718 9.94846L17.043 10.4278C17.1068 9.89943 17.0291 9.36357 16.8179 8.87504L13.1463 10.4624ZM13.0982 9.78631C13.1306 9.62859 13.2035 9.48205 13.3099 9.36121L16.312 12.0047C16.6661 11.6025 16.909 11.1149 17.0166 10.59L13.0982 9.78631ZM13.3099 9.36121C13.4164 9.24037 13.5525 9.14942 13.7048 9.09738L14.9978 12.8826C15.5049 12.7094 15.9579 12.4068 16.312 12.0047L13.3099 9.36121ZM13.5953 9.1384L13.004 9.37984L14.516 13.083L15.1073 12.8416L13.5953 9.1384ZM12.4367 12.731L12.9148 13.153L15.5615 10.1538L15.0833 9.73184L12.4367 12.731ZM12.9549 13.1874C12.8038 13.061 12.6915 12.8943 12.6311 12.7067L16.4386 11.4809C16.2676 10.9495 15.9495 10.4774 15.5213 10.1193L12.9549 13.1874ZM12.6311 12.7067C12.5707 12.519 12.5646 12.3182 12.6136 12.1272L16.488 13.122C16.6268 12.5813 16.6097 12.0123 16.4386 11.4809L12.6311 12.7067ZM12.6157 12.1193C12.667 11.9228 12.7729 11.7448 12.9211 11.606L15.6564 14.5245C16.0589 14.1472 16.3465 13.6638 16.4859 13.1299L12.6157 12.1193ZM12.9211 11.606C13.0692 11.4671 13.2537 11.373 13.4531 11.3345L14.211 15.262C14.7528 15.1575 15.2538 14.9018 15.6564 14.5245L12.9211 11.606ZM13.4108 11.3431L12.7973 11.4753L13.6399 15.3856L14.2534 15.2534L13.4108 11.3431ZM11.6357 14.6529L12.0196 15.15L15.1854 12.7051L14.8015 12.208L11.6357 14.6529ZM12.138 15.2896C11.9605 15.0988 11.8435 14.8597 11.8015 14.6025L15.7495 13.9592C15.6645 13.4375 15.427 12.9526 15.067 12.5655L12.138 15.2896ZM11.8015 14.6025C11.7596 14.3453 11.7948 14.0814 11.9025 13.8441L15.5447 15.4976C15.7633 15.0162 15.8345 14.481 15.7495 13.9592L11.8015 14.6025ZM12.0064 13.6456C12.1013 13.4867 12.238 13.3568 12.4017 13.2703L14.2714 16.8064C14.7556 16.5504 15.1601 16.1663 15.4409 15.6961L12.0064 13.6456ZM12.4017 13.2703C12.5653 13.1838 12.7496 13.1439 12.9344 13.1549L12.6953 17.1478C13.242 17.1805 13.7872 17.0624 14.2714 16.8064L12.4017 13.2703ZM12.8149 13.1513H7.55404V17.1513H12.8149V13.1513ZM8.28199 13.2885L6.3252 12.5239L4.86931 16.2495L6.8261 17.0142L8.28199 13.2885ZM5.62333 12.3868L3.98397 12.3655L3.93182 16.3651L5.57119 16.3865L5.62333 12.3868ZM5.9579 14.3653V8.81871H1.9579V14.3653H5.9579ZM3.9579 10.8187H5.12389V6.81871H3.9579V10.8187ZM6.74615 9.98845L8.68393 7.30104L5.43943 4.96156L3.50164 7.64897L6.74615 9.98845ZM8.22306 7.75955C9.29164 6.99736 10.1973 6.02955 10.8871 4.91282L7.48389 2.81086C7.07389 3.47467 6.53551 4.04998 5.9003 4.50305L8.22306 7.75955ZM10.8508 4.96937C11.6286 3.79991 12.1021 2.45482 12.2286 1.05606L8.24483 0.695938C8.17832 1.43168 7.92923 2.13918 7.52014 2.75431L10.8508 4.96937ZM11.3777 2.51859C11.1943 2.646 10.9845 2.73031 10.7639 2.76524L10.1382 -1.18552C9.76361 -1.12619 9.40722 -0.982985 9.0957 -0.766591L11.3777 2.51859ZM10.7639 2.76524C10.5433 2.80017 10.3177 2.78481 10.1039 2.72031L11.2592 -1.10921C10.8961 -1.21877 10.5129 -1.24485 10.1382 -1.18552L10.7639 2.76524ZM9.83103 2.61568C9.57515 2.49545 9.39406 2.3357 9.27791 2.19403C9.16739 2.05923 9.1327 1.96229 9.13411 1.96612C9.1443 1.99383 9.24201 2.30111 9.24201 3.14467H13.242C13.242 2.06073 13.1252 1.22933 12.888 0.584785C12.6415 -0.0851962 12.2084 -0.686792 11.5321 -1.00458L9.83103 2.61568ZM9.24399 3.05562C9.23085 3.35057 9.11269 3.6311 8.91085 3.84657L11.8301 6.58115C12.6843 5.66924 13.1844 4.48198 13.24 3.23372L9.24399 3.05562ZM8.92494 3.83168C8.56849 4.20447 8.32062 4.66753 8.20807 5.17089L12.1117 6.04367C12.0653 6.25129 11.963 6.44228 11.816 6.59604L8.92494 3.83168ZM8.20807 5.17089C8.09553 5.67424 8.1226 6.19878 8.28634 6.68788L12.0794 5.41799C12.1469 5.61971 12.1581 5.83606 12.1117 6.04367L8.20807 5.17089ZM8.39838 6.95602C8.87609 7.89998 9.72242 8.24076 10.3176 8.35762C10.802 8.45273 11.3565 8.44397 11.6837 8.44397V4.44397C11.4703 4.44397 11.3276 4.44369 11.2092 4.43926C11.0888 4.43476 11.0639 4.42778 11.0883 4.43256C11.1144 4.4377 11.2681 4.46947 11.4594 4.59102C11.6761 4.72875 11.8543 4.92647 11.9674 5.14984L8.39838 6.95602ZM11.6837 8.44397H14.368V4.44397H11.6837V8.44397ZM14.368 8.44397C13.8972 8.44397 13.5619 8.20831 13.4015 8.03445C13.2669 7.88846 13.2295 7.76986 13.2186 7.73196L17.0625 6.62515C16.9494 6.23263 16.7332 5.74673 16.3415 5.32211C15.924 4.86961 15.2535 4.44397 14.368 4.44397V8.44397ZM13.2508 7.83348C13.2008 7.68927 13.1979 7.53292 13.2425 7.38695L17.0681 8.55503C17.2709 7.89096 17.2576 7.17968 17.0303 6.52363L13.2508 7.83348ZM13.2425 7.38695C13.2871 7.24098 13.3768 7.11292 13.4988 7.02123L15.902 10.2188C16.4571 9.80166 16.8654 9.2191 17.0681 8.55503L13.2425 7.38695Z" fill="#9C0000" mask="url(#path-1-inside-1_14_734)"/>
</svg>
